# MagicaVoxel @ Ephtracy

# group
o 

# material
mtllib BiggerShelfFilled.mtl
usemtl palette

# normals
vn -1 0 0
vn 1 0 0
vn 0 0 1
vn 0 0 -1
vn 0 -1 0
vn 0 1 0

# texcoords
vt 0.0917969 0.5
vt 0.396484 0.5
vt 0.810547 0.5
vt 0.861328 0.5
vt 0.869141 0.5
vt 0.958984 0.5
vt 0.966797 0.5
vt 0.990234 0.5

# verts
v 0.2 2 -2.8
v 0.2 2 -3.7
v 0.2 4.9 -2.8
v 0.2 4.9 -3.7
v 0.5 4.7 -3.3
v 0.5 4.7 -3.5
v 0.5 5 -3.3
v 0.5 5 -3.5
v 0.5 5.1 -3.3
v 0.5 5.1 -3.5
v 0.5 5.2 -3.3
v 0.5 5.2 -3.5
v 0.7 4.7 -3
v 0.7 4.7 -3.2
v 0.7 5 -3
v 0.7 5 -3.2
v 0.7 5.1 -3
v 0.7 5.1 -3.2
v 0.7 5.2 -3
v 0.7 5.2 -3.2
v 1.1 3.5 -3.1
v 1.1 3.5 -3.4
v 1.1 3.6 -3.1
v 1.1 3.6 -3.4
v 1.1 3.7 -3.1
v 1.1 3.7 -3.4
v 1.1 3.8 -3.1
v 1.1 3.8 -3.4
v 1.1 3.9 -3.1
v 1.1 3.9 -3.4
v 1.3 4.7 -3.4
v 1.3 4.7 -3.6
v 1.3 5 -3.4
v 1.3 5 -3.6
v 1.3 5.1 -3.4
v 1.3 5.1 -3.6
v 1.3 5.2 -3.4
v 1.3 5.2 -3.6
v 1.9 4.7 -3
v 1.9 4.7 -3.3
v 1.9 5 -3
v 1.9 5 -3.3
v 2.2 3.5 -2.8
v 2.2 3.5 -3.1
v 2.2 3.6 -2.8
v 2.2 3.6 -3.1
v 2.2 3.8 -2.8
v 2.2 3.8 -3.1
v 2.2 3.9 -2.8
v 2.2 3.9 -3.1
v 2.7 3.5 -3.3
v 2.7 3.5 -3.6
v 2.7 3.6 -3.3
v 2.7 3.6 -3.6
v 2.7 3.8 -3.3
v 2.7 3.8 -3.6
v 2.7 3.9 -3.3
v 2.7 3.9 -3.6
v 3 3.5 -3.2
v 3 3.5 -3.3
v 3 3.6 -3.2
v 3 3.6 -3.3
v 3 3.8 -3.2
v 3 3.8 -3.3
v 3 3.9 -3.2
v 3 3.9 -3.3
v 3.6 2 -2.8
v 3.6 2 -3.7
v 3.6 2.8 -2.8
v 3.6 2.8 -3.7
v 3.6 2.9 -2.8
v 3.6 2.9 -3.7
v 3.6 3.4 -2.8
v 3.6 3.4 -3.7
v 3.6 3.5 -2.8
v 3.6 3.5 -3.7
v 3.6 4 -2.8
v 3.6 4 -3.7
v 3.6 4.1 -2.8
v 3.6 4.1 -3.7
v 3.6 4.6 -2.8
v 3.6 4.6 -3.7
v 3.6 4.7 -2.8
v 3.6 4.7 -3.7
v 3.6 4.9 -2.8
v 3.6 4.9 -3.7
v 0.3 2 -2.8
v 0.3 2 -3.7
v 0.3 2.8 -2.8
v 0.3 2.8 -3.7
v 0.3 2.9 -2.8
v 0.3 2.9 -3.7
v 0.3 3.4 -2.8
v 0.3 3.4 -3.7
v 0.3 3.5 -2.8
v 0.3 3.5 -3.7
v 0.3 4 -2.8
v 0.3 4 -3.7
v 0.3 4.1 -2.8
v 0.3 4.1 -3.7
v 0.3 4.6 -2.8
v 0.3 4.6 -3.7
v 0.3 4.7 -2.8
v 0.3 4.7 -3.7
v 0.3 4.9 -2.8
v 0.3 4.9 -3.7
v 1 4.7 -3.3
v 1 4.7 -3.5
v 1 5 -3.3
v 1 5 -3.5
v 1 5.1 -3.3
v 1 5.1 -3.5
v 1 5.2 -3.3
v 1 5.2 -3.5
v 1.2 4.7 -3
v 1.2 4.7 -3.2
v 1.2 5 -3
v 1.2 5 -3.2
v 1.2 5.1 -3
v 1.2 5.1 -3.2
v 1.2 5.2 -3
v 1.2 5.2 -3.2
v 1.8 4.7 -3.4
v 1.8 4.7 -3.6
v 1.8 5 -3.4
v 1.8 5 -3.6
v 1.8 5.1 -3.4
v 1.8 5.1 -3.6
v 1.8 5.2 -3.4
v 1.8 5.2 -3.6
v 2 3.5 -3.1
v 2 3.5 -3.2
v 2 3.5 -3.3
v 2 3.5 -3.4
v 2 3.6 -3.1
v 2 3.6 -3.2
v 2 3.6 -3.3
v 2 3.6 -3.4
v 2 3.7 -3.1
v 2 3.7 -3.4
v 2 3.8 -3.1
v 2 3.8 -3.4
v 2 3.9 -3.1
v 2 3.9 -3.4
v 2.3 4.7 -3
v 2.3 4.7 -3.3
v 2.3 5 -3
v 2.3 5 -3.3
v 2.5 3.5 -2.8
v 2.5 3.5 -3.1
v 2.5 3.6 -2.8
v 2.5 3.6 -3.1
v 2.5 3.8 -2.8
v 2.5 3.8 -3.1
v 2.5 3.9 -2.8
v 2.5 3.9 -3.1
v 3 3.5 -3.5
v 3 3.5 -3.6
v 3 3.6 -3.5
v 3 3.6 -3.6
v 3 3.8 -3.5
v 3 3.8 -3.6
v 3 3.9 -3.5
v 3 3.9 -3.6
v 3.3 3.5 -3.2
v 3.3 3.5 -3.5
v 3.3 3.6 -3.2
v 3.3 3.6 -3.5
v 3.3 3.8 -3.2
v 3.3 3.8 -3.5
v 3.3 3.9 -3.2
v 3.3 3.9 -3.5
v 3.7 2 -2.8
v 3.7 2 -3.7
v 3.7 4.9 -2.8
v 3.7 4.9 -3.7
v 0.2 2 -2.8
v 0.2 4.9 -2.8
v 0.3 2 -2.8
v 0.3 2.8 -2.8
v 0.3 2.9 -2.8
v 0.3 3.4 -2.8
v 0.3 3.5 -2.8
v 0.3 4 -2.8
v 0.3 4.1 -2.8
v 0.3 4.6 -2.8
v 0.3 4.7 -2.8
v 0.3 4.9 -2.8
v 2.2 3.5 -2.8
v 2.2 3.6 -2.8
v 2.2 3.8 -2.8
v 2.2 3.9 -2.8
v 2.5 3.5 -2.8
v 2.5 3.6 -2.8
v 2.5 3.8 -2.8
v 2.5 3.9 -2.8
v 3.6 2 -2.8
v 3.6 2.8 -2.8
v 3.6 2.9 -2.8
v 3.6 3.4 -2.8
v 3.6 3.5 -2.8
v 3.6 4 -2.8
v 3.6 4.1 -2.8
v 3.6 4.6 -2.8
v 3.6 4.7 -2.8
v 3.6 4.9 -2.8
v 3.7 2 -2.8
v 3.7 4.9 -2.8
v 0.7 4.7 -3
v 0.7 5 -3
v 0.7 5.1 -3
v 0.7 5.2 -3
v 1.2 4.7 -3
v 1.2 5 -3
v 1.2 5.1 -3
v 1.2 5.2 -3
v 1.9 4.7 -3
v 1.9 5 -3
v 2 4.7 -3
v 2 5 -3
v 2.2 4.7 -3
v 2.2 5 -3
v 2.3 4.7 -3
v 2.3 5 -3
v 1.1 3.5 -3.1
v 1.1 3.6 -3.1
v 1.1 3.7 -3.1
v 1.1 3.8 -3.1
v 1.1 3.9 -3.1
v 2 3.5 -3.1
v 2 3.6 -3.1
v 2 3.7 -3.1
v 2 3.8 -3.1
v 2 3.9 -3.1
v 3 3.5 -3.2
v 3 3.6 -3.2
v 3 3.8 -3.2
v 3 3.9 -3.2
v 3.3 3.5 -3.2
v 3.3 3.6 -3.2
v 3.3 3.8 -3.2
v 3.3 3.9 -3.2
v 0.5 4.7 -3.3
v 0.5 5 -3.3
v 0.5 5.1 -3.3
v 0.5 5.2 -3.3
v 1 4.7 -3.3
v 1 5 -3.3
v 1 5.1 -3.3
v 1 5.2 -3.3
v 2.7 3.5 -3.3
v 2.7 3.6 -3.3
v 2.7 3.8 -3.3
v 2.7 3.9 -3.3
v 3 3.5 -3.3
v 3 3.6 -3.3
v 3 3.8 -3.3
v 3 3.9 -3.3
v 1.3 4.7 -3.4
v 1.3 5 -3.4
v 1.3 5.1 -3.4
v 1.3 5.2 -3.4
v 1.8 4.7 -3.4
v 1.8 5 -3.4
v 1.8 5.1 -3.4
v 1.8 5.2 -3.4
v 2.2 3.5 -3.1
v 2.2 3.6 -3.1
v 2.2 3.8 -3.1
v 2.2 3.9 -3.1
v 2.5 3.5 -3.1
v 2.5 3.6 -3.1
v 2.5 3.8 -3.1
v 2.5 3.9 -3.1
v 0.7 4.7 -3.2
v 0.7 5 -3.2
v 0.7 5.1 -3.2
v 0.7 5.2 -3.2
v 1.2 4.7 -3.2
v 1.2 5 -3.2
v 1.2 5.1 -3.2
v 1.2 5.2 -3.2
v 1.9 4.7 -3.3
v 1.9 5 -3.3
v 2 4.7 -3.3
v 2 5 -3.3
v 2.2 4.7 -3.3
v 2.2 5 -3.3
v 2.3 4.7 -3.3
v 2.3 5 -3.3
v 1.1 3.5 -3.4
v 1.1 3.6 -3.4
v 1.1 3.7 -3.4
v 1.1 3.8 -3.4
v 1.1 3.9 -3.4
v 2 3.5 -3.4
v 2 3.6 -3.4
v 2 3.7 -3.4
v 2 3.8 -3.4
v 2 3.9 -3.4
v 0.5 4.7 -3.5
v 0.5 5 -3.5
v 0.5 5.1 -3.5
v 0.5 5.2 -3.5
v 1 4.7 -3.5
v 1 5 -3.5
v 1 5.1 -3.5
v 1 5.2 -3.5
v 3 3.5 -3.5
v 3 3.6 -3.5
v 3 3.8 -3.5
v 3 3.9 -3.5
v 3.3 3.5 -3.5
v 3.3 3.6 -3.5
v 3.3 3.8 -3.5
v 3.3 3.9 -3.5
v 1.3 4.7 -3.6
v 1.3 5 -3.6
v 1.3 5.1 -3.6
v 1.3 5.2 -3.6
v 1.8 4.7 -3.6
v 1.8 5 -3.6
v 1.8 5.1 -3.6
v 1.8 5.2 -3.6
v 2.7 3.5 -3.6
v 2.7 3.6 -3.6
v 2.7 3.8 -3.6
v 2.7 3.9 -3.6
v 3 3.5 -3.6
v 3 3.6 -3.6
v 3 3.8 -3.6
v 3 3.9 -3.6
v 0.2 2 -3.7
v 0.2 4.9 -3.7
v 0.3 2 -3.7
v 0.3 2.8 -3.7
v 0.3 2.9 -3.7
v 0.3 3.4 -3.7
v 0.3 3.5 -3.7
v 0.3 4 -3.7
v 0.3 4.1 -3.7
v 0.3 4.6 -3.7
v 0.3 4.7 -3.7
v 0.3 4.9 -3.7
v 3.6 2 -3.7
v 3.6 2.8 -3.7
v 3.6 2.9 -3.7
v 3.6 3.4 -3.7
v 3.6 3.5 -3.7
v 3.6 4 -3.7
v 3.6 4.1 -3.7
v 3.6 4.6 -3.7
v 3.6 4.7 -3.7
v 3.6 4.9 -3.7
v 3.7 2 -3.7
v 3.7 4.9 -3.7
v 0.2 2 -2.8
v 0.3 2 -2.8
v 3.6 2 -2.8
v 3.7 2 -2.8
v 0.2 2 -3.7
v 0.3 2 -3.7
v 3.6 2 -3.7
v 3.7 2 -3.7
v 0.3 2.8 -2.8
v 3.6 2.8 -2.8
v 0.3 2.8 -3.7
v 3.6 2.8 -3.7
v 0.3 3.4 -2.8
v 3.6 3.4 -2.8
v 0.3 3.4 -3.7
v 3.6 3.4 -3.7
v 0.3 4 -2.8
v 3.6 4 -2.8
v 0.3 4 -3.7
v 3.6 4 -3.7
v 0.3 4.6 -2.8
v 3.6 4.6 -2.8
v 0.3 4.6 -3.7
v 3.6 4.6 -3.7
v 0.3 2.9 -2.8
v 3.6 2.9 -2.8
v 0.3 2.9 -3.7
v 3.6 2.9 -3.7
v 0.3 3.5 -2.8
v 2.2 3.5 -2.8
v 2.5 3.5 -2.8
v 3.6 3.5 -2.8
v 1.1 3.5 -3.1
v 2 3.5 -3.1
v 2.2 3.5 -3.1
v 2.5 3.5 -3.1
v 2 3.5 -3.2
v 3 3.5 -3.2
v 3.3 3.5 -3.2
v 2 3.5 -3.3
v 2.7 3.5 -3.3
v 3 3.5 -3.3
v 1.1 3.5 -3.4
v 2 3.5 -3.4
v 3 3.5 -3.5
v 3.3 3.5 -3.5
v 2.7 3.5 -3.6
v 3 3.5 -3.6
v 0.3 3.5 -3.7
v 3.6 3.5 -3.7
v 2.2 3.9 -2.8
v 2.5 3.9 -2.8
v 1.1 3.9 -3.1
v 2 3.9 -3.1
v 2.2 3.9 -3.1
v 2.5 3.9 -3.1
v 3 3.9 -3.2
v 3.3 3.9 -3.2
v 2.7 3.9 -3.3
v 3 3.9 -3.3
v 1.1 3.9 -3.4
v 2 3.9 -3.4
v 3 3.9 -3.5
v 3.3 3.9 -3.5
v 2.7 3.9 -3.6
v 3 3.9 -3.6
v 0.3 4.1 -2.8
v 3.6 4.1 -2.8
v 0.3 4.1 -3.7
v 3.6 4.1 -3.7
v 0.3 4.7 -2.8
v 3.6 4.7 -2.8
v 0.7 4.7 -3
v 1.2 4.7 -3
v 1.9 4.7 -3
v 2 4.7 -3
v 2.2 4.7 -3
v 2.3 4.7 -3
v 0.7 4.7 -3.2
v 1.2 4.7 -3.2
v 0.5 4.7 -3.3
v 1 4.7 -3.3
v 1.9 4.7 -3.3
v 2 4.7 -3.3
v 2.2 4.7 -3.3
v 2.3 4.7 -3.3
v 1.3 4.7 -3.4
v 1.8 4.7 -3.4
v 0.5 4.7 -3.5
v 1 4.7 -3.5
v 1.3 4.7 -3.6
v 1.8 4.7 -3.6
v 0.3 4.7 -3.7
v 3.6 4.7 -3.7
v 0.2 4.9 -2.8
v 0.3 4.9 -2.8
v 3.6 4.9 -2.8
v 3.7 4.9 -2.8
v 0.2 4.9 -3.7
v 0.3 4.9 -3.7
v 3.6 4.9 -3.7
v 3.7 4.9 -3.7
v 1.9 5 -3
v 2 5 -3
v 2.2 5 -3
v 2.3 5 -3
v 1.9 5 -3.3
v 2 5 -3.3
v 2.2 5 -3.3
v 2.3 5 -3.3
v 0.7 5.2 -3
v 1.2 5.2 -3
v 0.7 5.2 -3.2
v 1.2 5.2 -3.2
v 0.5 5.2 -3.3
v 1 5.2 -3.3
v 1.3 5.2 -3.4
v 1.8 5.2 -3.4
v 0.5 5.2 -3.5
v 1 5.2 -3.5
v 1.3 5.2 -3.6
v 1.8 5.2 -3.6

# faces
f 3/2/1 2/2/1 1/2/1
f 4/2/1 2/2/1 3/2/1
f 7/3/1 6/3/1 5/3/1
f 8/3/1 6/3/1 7/3/1
f 9/1/1 8/1/1 7/1/1
f 10/1/1 8/1/1 9/1/1
f 11/3/1 10/3/1 9/3/1
f 12/3/1 10/3/1 11/3/1
f 15/3/1 14/3/1 13/3/1
f 16/3/1 14/3/1 15/3/1
f 17/1/1 16/1/1 15/1/1
f 18/1/1 16/1/1 17/1/1
f 19/3/1 18/3/1 17/3/1
f 20/3/1 18/3/1 19/3/1
f 23/8/1 22/8/1 21/8/1
f 24/8/1 22/8/1 23/8/1
f 25/7/1 24/7/1 23/7/1
f 26/7/1 24/7/1 25/7/1
f 27/8/1 26/8/1 25/8/1
f 28/8/1 26/8/1 27/8/1
f 29/7/1 28/7/1 27/7/1
f 30/7/1 28/7/1 29/7/1
f 33/3/1 32/3/1 31/3/1
f 34/3/1 32/3/1 33/3/1
f 35/1/1 34/1/1 33/1/1
f 36/1/1 34/1/1 35/1/1
f 37/3/1 36/3/1 35/3/1
f 38/3/1 36/3/1 37/3/1
f 41/5/1 40/5/1 39/5/1
f 42/5/1 40/5/1 41/5/1
f 45/5/1 44/5/1 43/5/1
f 46/5/1 44/5/1 45/5/1
f 47/4/1 46/4/1 45/4/1
f 48/4/1 46/4/1 47/4/1
f 49/6/1 48/6/1 47/6/1
f 50/6/1 48/6/1 49/6/1
f 53/5/1 52/5/1 51/5/1
f 54/5/1 52/5/1 53/5/1
f 55/4/1 54/4/1 53/4/1
f 56/4/1 54/4/1 55/4/1
f 57/6/1 56/6/1 55/6/1
f 58/6/1 56/6/1 57/6/1
f 61/5/1 60/5/1 59/5/1
f 62/5/1 60/5/1 61/5/1
f 63/4/1 62/4/1 61/4/1
f 64/4/1 62/4/1 63/4/1
f 65/6/1 64/6/1 63/6/1
f 66/6/1 64/6/1 65/6/1
f 69/2/1 68/2/1 67/2/1
f 70/2/1 68/2/1 69/2/1
f 73/2/1 72/2/1 71/2/1
f 74/2/1 72/2/1 73/2/1
f 77/2/1 76/2/1 75/2/1
f 78/2/1 76/2/1 77/2/1
f 81/2/1 80/2/1 79/2/1
f 82/2/1 80/2/1 81/2/1
f 85/2/1 84/2/1 83/2/1
f 86/2/1 84/2/1 85/2/1
f 87/2/2 88/2/2 89/2/2
f 89/2/2 88/2/2 90/2/2
f 91/2/2 92/2/2 93/2/2
f 93/2/2 92/2/2 94/2/2
f 95/2/2 96/2/2 97/2/2
f 97/2/2 96/2/2 98/2/2
f 99/2/2 100/2/2 101/2/2
f 101/2/2 100/2/2 102/2/2
f 103/2/2 104/2/2 105/2/2
f 105/2/2 104/2/2 106/2/2
f 107/3/2 108/3/2 109/3/2
f 109/3/2 108/3/2 110/3/2
f 109/1/2 110/1/2 111/1/2
f 111/1/2 110/1/2 112/1/2
f 111/3/2 112/3/2 113/3/2
f 113/3/2 112/3/2 114/3/2
f 115/3/2 116/3/2 117/3/2
f 117/3/2 116/3/2 118/3/2
f 117/1/2 118/1/2 119/1/2
f 119/1/2 118/1/2 120/1/2
f 119/3/2 120/3/2 121/3/2
f 121/3/2 120/3/2 122/3/2
f 123/3/2 124/3/2 125/3/2
f 125/3/2 124/3/2 126/3/2
f 125/1/2 126/1/2 127/1/2
f 127/1/2 126/1/2 128/1/2
f 127/3/2 128/3/2 129/3/2
f 129/3/2 128/3/2 130/3/2
f 131/8/2 132/8/2 135/8/2
f 132/7/2 133/7/2 136/7/2
f 135/8/2 132/8/2 136/8/2
f 133/8/2 134/8/2 137/8/2
f 136/7/2 133/7/2 137/7/2
f 137/8/2 134/8/2 138/8/2
f 135/7/2 136/7/2 139/7/2
f 136/7/2 137/7/2 139/7/2
f 137/7/2 138/7/2 139/7/2
f 139/7/2 138/7/2 140/7/2
f 139/8/2 140/8/2 141/8/2
f 141/8/2 140/8/2 142/8/2
f 141/7/2 142/7/2 143/7/2
f 143/7/2 142/7/2 144/7/2
f 145/6/2 146/6/2 147/6/2
f 147/6/2 146/6/2 148/6/2
f 149/5/2 150/5/2 151/5/2
f 151/5/2 150/5/2 152/5/2
f 151/4/2 152/4/2 153/4/2
f 153/4/2 152/4/2 154/4/2
f 153/6/2 154/6/2 155/6/2
f 155/6/2 154/6/2 156/6/2
f 157/5/2 158/5/2 159/5/2
f 159/5/2 158/5/2 160/5/2
f 159/4/2 160/4/2 161/4/2
f 161/4/2 160/4/2 162/4/2
f 161/6/2 162/6/2 163/6/2
f 163/6/2 162/6/2 164/6/2
f 165/5/2 166/5/2 167/5/2
f 167/5/2 166/5/2 168/5/2
f 167/4/2 168/4/2 169/4/2
f 169/4/2 168/4/2 170/4/2
f 169/6/2 170/6/2 171/6/2
f 171/6/2 170/6/2 172/6/2
f 173/2/2 174/2/2 175/2/2
f 175/2/2 174/2/2 176/2/2
f 179/2/3 178/2/3 177/2/3
f 180/2/3 178/2/3 179/2/3
f 181/2/3 178/2/3 180/2/3
f 182/2/3 178/2/3 181/2/3
f 183/2/3 178/2/3 182/2/3
f 184/2/3 178/2/3 183/2/3
f 185/2/3 178/2/3 184/2/3
f 186/2/3 178/2/3 185/2/3
f 187/2/3 178/2/3 186/2/3
f 188/2/3 178/2/3 187/2/3
f 189/2/3 183/2/3 182/2/3
f 193/2/3 189/2/3 182/2/3
f 193/5/3 190/5/3 189/5/3
f 194/4/3 191/4/3 190/4/3
f 194/5/3 190/5/3 193/5/3
f 195/6/3 192/6/3 191/6/3
f 195/4/3 191/4/3 194/4/3
f 196/6/3 192/6/3 195/6/3
f 198/2/3 181/2/3 180/2/3
f 199/2/3 181/2/3 198/2/3
f 200/2/3 193/2/3 182/2/3
f 201/2/3 193/2/3 200/2/3
f 202/2/3 185/2/3 184/2/3
f 203/2/3 185/2/3 202/2/3
f 204/2/3 187/2/3 186/2/3
f 205/2/3 187/2/3 204/2/3
f 207/2/3 199/2/3 198/2/3
f 207/2/3 206/2/3 205/2/3
f 207/2/3 205/2/3 204/2/3
f 207/2/3 204/2/3 203/2/3
f 207/2/3 203/2/3 202/2/3
f 207/2/3 202/2/3 201/2/3
f 207/2/3 201/2/3 200/2/3
f 207/2/3 200/2/3 199/2/3
f 207/2/3 198/2/3 197/2/3
f 208/2/3 206/2/3 207/2/3
f 213/3/3 210/3/3 209/3/3
f 214/1/3 211/1/3 210/1/3
f 214/3/3 210/3/3 213/3/3
f 215/3/3 212/3/3 211/3/3
f 215/1/3 211/1/3 214/1/3
f 216/3/3 212/3/3 215/3/3
f 219/5/3 218/5/3 217/5/3
f 220/5/3 218/5/3 219/5/3
f 221/4/3 220/4/3 219/4/3
f 222/4/3 220/4/3 221/4/3
f 223/6/3 222/6/3 221/6/3
f 224/6/3 222/6/3 223/6/3
f 230/8/3 226/8/3 225/8/3
f 231/7/3 227/7/3 226/7/3
f 231/8/3 226/8/3 230/8/3
f 232/8/3 228/8/3 227/8/3
f 232/7/3 227/7/3 231/7/3
f 233/7/3 229/7/3 228/7/3
f 233/8/3 228/8/3 232/8/3
f 234/7/3 229/7/3 233/7/3
f 239/5/3 236/5/3 235/5/3
f 240/4/3 237/4/3 236/4/3
f 240/5/3 236/5/3 239/5/3
f 241/6/3 238/6/3 237/6/3
f 241/4/3 237/4/3 240/4/3
f 242/6/3 238/6/3 241/6/3
f 247/3/3 244/3/3 243/3/3
f 248/1/3 245/1/3 244/1/3
f 248/3/3 244/3/3 247/3/3
f 249/3/3 246/3/3 245/3/3
f 249/1/3 245/1/3 248/1/3
f 250/3/3 246/3/3 249/3/3
f 255/5/3 252/5/3 251/5/3
f 256/4/3 253/4/3 252/4/3
f 256/5/3 252/5/3 255/5/3
f 257/6/3 254/6/3 253/6/3
f 257/4/3 253/4/3 256/4/3
f 258/6/3 254/6/3 257/6/3
f 263/3/3 260/3/3 259/3/3
f 264/1/3 261/1/3 260/1/3
f 264/3/3 260/3/3 263/3/3
f 265/3/3 262/3/3 261/3/3
f 265/1/3 261/1/3 264/1/3
f 266/3/3 262/3/3 265/3/3
f 267/5/4 268/5/4 271/5/4
f 268/4/4 269/4/4 272/4/4
f 271/5/4 268/5/4 272/5/4
f 269/6/4 270/6/4 273/6/4
f 272/4/4 269/4/4 273/4/4
f 273/6/4 270/6/4 274/6/4
f 275/3/4 276/3/4 279/3/4
f 276/1/4 277/1/4 280/1/4
f 279/3/4 276/3/4 280/3/4
f 277/3/4 278/3/4 281/3/4
f 280/1/4 277/1/4 281/1/4
f 281/3/4 278/3/4 282/3/4
f 283/5/4 284/5/4 285/5/4
f 285/5/4 284/5/4 286/5/4
f 285/4/4 286/4/4 287/4/4
f 287/4/4 286/4/4 288/4/4
f 287/6/4 288/6/4 289/6/4
f 289/6/4 288/6/4 290/6/4
f 291/8/4 292/8/4 296/8/4
f 292/7/4 293/7/4 297/7/4
f 296/8/4 292/8/4 297/8/4
f 293/8/4 294/8/4 298/8/4
f 297/7/4 293/7/4 298/7/4
f 294/7/4 295/7/4 299/7/4
f 298/8/4 294/8/4 299/8/4
f 299/7/4 295/7/4 300/7/4
f 301/3/4 302/3/4 305/3/4
f 302/1/4 303/1/4 306/1/4
f 305/3/4 302/3/4 306/3/4
f 303/3/4 304/3/4 307/3/4
f 306/1/4 303/1/4 307/1/4
f 307/3/4 304/3/4 308/3/4
f 309/5/4 310/5/4 313/5/4
f 310/4/4 311/4/4 314/4/4
f 313/5/4 310/5/4 314/5/4
f 311/6/4 312/6/4 315/6/4
f 314/4/4 311/4/4 315/4/4
f 315/6/4 312/6/4 316/6/4
f 317/3/4 318/3/4 321/3/4
f 318/1/4 319/1/4 322/1/4
f 321/3/4 318/3/4 322/3/4
f 319/3/4 320/3/4 323/3/4
f 322/1/4 319/1/4 323/1/4
f 323/3/4 320/3/4 324/3/4
f 325/5/4 326/5/4 329/5/4
f 326/4/4 327/4/4 330/4/4
f 329/5/4 326/5/4 330/5/4
f 327/6/4 328/6/4 331/6/4
f 330/4/4 327/4/4 331/4/4
f 331/6/4 328/6/4 332/6/4
f 333/2/4 334/2/4 335/2/4
f 335/2/4 334/2/4 336/2/4
f 336/2/4 334/2/4 337/2/4
f 337/2/4 334/2/4 338/2/4
f 338/2/4 334/2/4 339/2/4
f 339/2/4 334/2/4 340/2/4
f 340/2/4 334/2/4 341/2/4
f 341/2/4 334/2/4 342/2/4
f 342/2/4 334/2/4 343/2/4
f 343/2/4 334/2/4 344/2/4
f 336/2/4 337/2/4 346/2/4
f 346/2/4 337/2/4 347/2/4
f 338/2/4 339/2/4 348/2/4
f 348/2/4 339/2/4 349/2/4
f 340/2/4 341/2/4 350/2/4
f 350/2/4 341/2/4 351/2/4
f 342/2/4 343/2/4 352/2/4
f 352/2/4 343/2/4 353/2/4
f 348/2/4 349/2/4 355/2/4
f 353/2/4 354/2/4 355/2/4
f 352/2/4 353/2/4 355/2/4
f 351/2/4 352/2/4 355/2/4
f 350/2/4 351/2/4 355/2/4
f 349/2/4 350/2/4 355/2/4
f 346/2/4 347/2/4 355/2/4
f 347/2/4 348/2/4 355/2/4
f 345/2/4 346/2/4 355/2/4
f 355/2/4 354/2/4 356/2/4
f 361/2/5 358/2/5 357/2/5
f 362/2/5 358/2/5 361/2/5
f 363/2/5 360/2/5 359/2/5
f 364/2/5 360/2/5 363/2/5
f 367/2/5 366/2/5 365/2/5
f 368/2/5 366/2/5 367/2/5
f 371/2/5 370/2/5 369/2/5
f 372/2/5 370/2/5 371/2/5
f 375/2/5 374/2/5 373/2/5
f 376/2/5 374/2/5 375/2/5
f 379/2/5 378/2/5 377/2/5
f 380/2/5 378/2/5 379/2/5
f 381/2/6 382/2/6 383/2/6
f 383/2/6 382/2/6 384/2/6
f 385/2/6 386/2/6 389/2/6
f 389/2/6 386/2/6 390/2/6
f 390/2/6 386/2/6 391/2/6
f 387/2/6 388/2/6 392/2/6
f 390/2/6 391/2/6 393/2/6
f 391/2/6 392/2/6 393/2/6
f 392/2/6 388/2/6 394/2/6
f 393/2/6 392/2/6 394/2/6
f 394/2/6 388/2/6 395/2/6
f 393/2/6 394/2/6 396/2/6
f 396/2/6 394/2/6 397/2/6
f 397/2/6 394/2/6 398/2/6
f 385/2/6 389/2/6 399/2/6
f 396/2/6 397/2/6 400/2/6
f 395/2/6 388/2/6 402/2/6
f 399/2/6 400/2/6 403/2/6
f 400/2/6 397/2/6 403/2/6
f 401/2/6 402/2/6 404/2/6
f 399/2/6 403/2/6 405/2/6
f 403/2/6 404/2/6 405/2/6
f 385/2/6 399/2/6 405/2/6
f 404/2/6 402/2/6 406/2/6
f 405/2/6 404/2/6 406/2/6
f 402/2/6 388/2/6 406/2/6
f 407/6/6 408/6/6 411/6/6
f 411/6/6 408/6/6 412/6/6
f 413/6/6 414/6/6 416/6/6
f 409/7/6 410/7/6 417/7/6
f 417/7/6 410/7/6 418/7/6
f 415/6/6 416/6/6 419/6/6
f 416/6/6 414/6/6 419/6/6
f 419/6/6 414/6/6 420/6/6
f 415/6/6 419/6/6 421/6/6
f 421/6/6 419/6/6 422/6/6
f 423/2/6 424/2/6 425/2/6
f 425/2/6 424/2/6 426/2/6
f 427/2/6 428/2/6 429/2/6
f 429/2/6 428/2/6 430/2/6
f 430/2/6 428/2/6 431/2/6
f 431/2/6 428/2/6 432/2/6
f 432/2/6 428/2/6 433/2/6
f 433/2/6 428/2/6 434/2/6
f 427/2/6 429/2/6 435/2/6
f 430/2/6 431/2/6 436/2/6
f 427/2/6 435/2/6 437/2/6
f 435/2/6 436/2/6 437/2/6
f 437/2/6 436/2/6 438/2/6
f 436/2/6 431/2/6 439/2/6
f 438/2/6 436/2/6 439/2/6
f 434/2/6 428/2/6 442/2/6
f 440/2/6 441/2/6 443/2/6
f 441/2/6 442/2/6 443/2/6
f 438/2/6 439/2/6 443/2/6
f 439/2/6 440/2/6 443/2/6
f 443/2/6 442/2/6 444/2/6
f 427/2/6 437/2/6 445/2/6
f 438/2/6 443/2/6 446/2/6
f 446/2/6 443/2/6 447/2/6
f 445/2/6 446/2/6 447/2/6
f 444/2/6 442/2/6 448/2/6
f 445/2/6 447/2/6 449/2/6
f 447/2/6 448/2/6 449/2/6
f 427/2/6 445/2/6 449/2/6
f 442/2/6 428/2/6 450/2/6
f 449/2/6 448/2/6 450/2/6
f 448/2/6 442/2/6 450/2/6
f 451/2/6 452/2/6 455/2/6
f 455/2/6 452/2/6 456/2/6
f 453/2/6 454/2/6 457/2/6
f 457/2/6 454/2/6 458/2/6
f 459/5/6 460/5/6 463/5/6
f 460/4/6 461/4/6 464/4/6
f 463/5/6 460/5/6 464/5/6
f 461/6/6 462/6/6 465/6/6
f 464/4/6 461/4/6 465/4/6
f 465/6/6 462/6/6 466/6/6
f 467/3/6 468/3/6 469/3/6
f 469/3/6 468/3/6 470/3/6
f 471/3/6 472/3/6 475/3/6
f 475/3/6 472/3/6 476/3/6
f 473/3/6 474/3/6 477/3/6
f 477/3/6 474/3/6 478/3/6
