# MagicaVoxel @ Ephtracy

# group
o 

# material
mtllib Kasse.mtl
usemtl palette

# normals
vn -1 0 0
vn 1 0 0
vn 0 0 1
vn 0 0 -1
vn 0 -1 0
vn 0 1 0

# texcoords
vt 0.142578 0.5
vt 0.958984 0.5
vt 0.990234 0.5
vt 0.994141 0.5

# verts
v -1.1 0.7 -0.1
v -1.1 0.7 -0.4
v -1.1 1.7 -0.1
v -1.1 1.7 -0.4
v -1 0 1
v -1 0 -0.9
v -1 0.3 1
v -1 0.3 -0.9
v -0.5 0.3 -0.2
v -0.5 0.3 -0.3
v -0.5 0.7 -0.2
v -0.5 0.7 -0.3
v 0.3 0.8 -0.1
v 0.3 0.8 -0.2
v 0.3 1.6 -0.1
v 0.3 1.6 -0.2
v 0.5 0.3 -0.1
v 0.5 0.3 -0.9
v 0.5 0.6 -0.1
v 0.5 0.6 -0.2
v 0.5 0.7 -0.2
v 0.5 0.7 -0.9
v 0.6 0.7 -0.7
v 0.6 0.7 -0.8
v 0.6 0.8 -0.7
v 0.6 0.8 -0.8
v -1 0.8 -0.1
v -1 0.8 -0.2
v -1 1.6 -0.1
v -1 1.6 -0.2
v -0.2 0.3 -0.2
v -0.2 0.3 -0.3
v -0.2 0.7 -0.2
v -0.2 0.7 -0.3
v 0.4 0.7 -0.1
v 0.4 0.7 -0.4
v 0.4 1.7 -0.1
v 0.4 1.7 -0.4
v 1 0.7 -0.7
v 1 0.7 -0.8
v 1 0.8 -0.7
v 1 0.8 -0.8
v 1.1 0 1
v 1.1 0 -0.9
v 1.1 0.3 1
v 1.1 0.3 -0.1
v 1.1 0.6 -0.1
v 1.1 0.6 -0.2
v 1.1 0.7 -0.2
v 1.1 0.7 -0.9
v -1 0 1
v -1 0.3 1
v -0.8 0 1
v -0.8 0.2 1
v 0.9 0 1
v 0.9 0.2 1
v 1.1 0 1
v 1.1 0.3 1
v -1.1 0.7 -0.1
v -1.1 1.7 -0.1
v -1 0.8 -0.1
v -1 1.6 -0.1
v 0.3 0.8 -0.1
v 0.3 1.6 -0.1
v 0.4 0.7 -0.1
v 0.4 1.7 -0.1
v 0.5 0.3 -0.1
v 0.5 0.6 -0.1
v 1.1 0.3 -0.1
v 1.1 0.6 -0.1
v -1 0.8 -0.2
v -1 1.6 -0.2
v -0.5 0.3 -0.2
v -0.5 0.7 -0.2
v -0.2 0.3 -0.2
v -0.2 0.7 -0.2
v 0.3 0.8 -0.2
v 0.3 1.6 -0.2
v 0.5 0.6 -0.2
v 0.5 0.7 -0.2
v 1.1 0.6 -0.2
v 1.1 0.7 -0.2
v 0.6 0.7 -0.7
v 0.6 0.8 -0.7
v 1 0.7 -0.7
v 1 0.8 -0.7
v -0.5 0.3 -0.3
v -0.5 0.7 -0.3
v -0.2 0.3 -0.3
v -0.2 0.7 -0.3
v -1.1 0.7 -0.4
v -1.1 1.7 -0.4
v 0.4 0.7 -0.4
v 0.4 1.7 -0.4
v 0.6 0.7 -0.8
v 0.6 0.8 -0.8
v 1 0.7 -0.8
v 1 0.8 -0.8
v -1 0 -0.9
v -1 0.3 -0.9
v 0.5 0.3 -0.9
v 0.5 0.7 -0.9
v 1.1 0 -0.9
v 1.1 0.7 -0.9
v -1 0 1
v -0.8 0 1
v 0.9 0 1
v 1.1 0 1
v -0.8 0 0.9
v 0.9 0 0.9
v -1 0 -0.9
v 1.1 0 -0.9
v -1.1 0.7 -0.1
v 0.4 0.7 -0.1
v -0.5 0.7 -0.2
v -0.2 0.7 -0.2
v -0.5 0.7 -0.3
v -0.2 0.7 -0.3
v -1.1 0.7 -0.4
v 0.4 0.7 -0.4
v -1 1.6 -0.1
v 0.3 1.6 -0.1
v -1 1.6 -0.2
v 0.3 1.6 -0.2
v -1 0.3 1
v 1.1 0.3 1
v -0.8 0.3 0.9
v 0.9 0.3 0.9
v -0.7 0.3 0.8
v -0.6 0.3 0.8
v -0.5 0.3 0.8
v -0.4 0.3 0.8
v -0.3 0.3 0.8
v -0.2 0.3 0.8
v -0.1 0.3 0.8
v 0.2 0.3 0.8
v 0.3 0.3 0.8
v 0.4 0.3 0.8
v 0.5 0.3 0.8
v 0.6 0.3 0.8
v 0.7 0.3 0.8
v 0.8 0.3 0.8
v -0.7 0.3 0.7
v -0.6 0.3 0.7
v -0.5 0.3 0.7
v -0.4 0.3 0.7
v -0.3 0.3 0.7
v -0.2 0.3 0.7
v -0.1 0.3 0.7
v 0.2 0.3 0.7
v 0.3 0.3 0.7
v 0.4 0.3 0.7
v 0.5 0.3 0.7
v 0.6 0.3 0.7
v 0.7 0.3 0.7
v 0.8 0.3 0.7
v -0.7 0.3 0.6
v -0.6 0.3 0.6
v -0.5 0.3 0.6
v -0.4 0.3 0.6
v -0.3 0.3 0.6
v -0.2 0.3 0.6
v -0.1 0.3 0.6
v 0 0.3 0.6
v 0.1 0.3 0.6
v 0.2 0.3 0.6
v 0.3 0.3 0.6
v 0.4 0.3 0.6
v 0.5 0.3 0.6
v 0.6 0.3 0.6
v 0.7 0.3 0.6
v 0.8 0.3 0.6
v -0.7 0.3 0.5
v -0.6 0.3 0.5
v -0.5 0.3 0.5
v -0.4 0.3 0.5
v -0.3 0.3 0.5
v -0.2 0.3 0.5
v -0.1 0.3 0.5
v 0 0.3 0.5
v 0.1 0.3 0.5
v 0.2 0.3 0.5
v 0.3 0.3 0.5
v 0.4 0.3 0.5
v 0.5 0.3 0.5
v 0.6 0.3 0.5
v 0.7 0.3 0.5
v 0.8 0.3 0.5
v -0.7 0.3 0.4
v -0.6 0.3 0.4
v -0.5 0.3 0.4
v -0.4 0.3 0.4
v -0.3 0.3 0.4
v -0.2 0.3 0.4
v -0.1 0.3 0.4
v 0 0.3 0.4
v 0.1 0.3 0.4
v 0.2 0.3 0.4
v 0.3 0.3 0.4
v 0.4 0.3 0.4
v 0.5 0.3 0.4
v 0.6 0.3 0.4
v 0.7 0.3 0.4
v 0.8 0.3 0.4
v -0.7 0.3 0.3
v -0.6 0.3 0.3
v -0.5 0.3 0.3
v -0.4 0.3 0.3
v -0.3 0.3 0.3
v -0.2 0.3 0.3
v -0.1 0.3 0.3
v 0 0.3 0.3
v 0.1 0.3 0.3
v 0.2 0.3 0.3
v 0.3 0.3 0.3
v 0.4 0.3 0.3
v 0.5 0.3 0.3
v 0.6 0.3 0.3
v 0.7 0.3 0.3
v 0.8 0.3 0.3
v -0.7 0.3 0.2
v -0.6 0.3 0.2
v -0.5 0.3 0.2
v -0.4 0.3 0.2
v -0.3 0.3 0.2
v -0.2 0.3 0.2
v -0.1 0.3 0.2
v 0 0.3 0.2
v 0.1 0.3 0.2
v 0.2 0.3 0.2
v 0.3 0.3 0.2
v 0.4 0.3 0.2
v 0.5 0.3 0.2
v 0.6 0.3 0.2
v 0.7 0.3 0.2
v 0.8 0.3 0.2
v -0.7 0.3 0.1
v -0.6 0.3 0.1
v -0.5 0.3 0.1
v -0.4 0.3 0.1
v -0.3 0.3 0.1
v -0.2 0.3 0.1
v -0.1 0.3 0.1
v 0 0.3 0.1
v 0.1 0.3 0.1
v 0.2 0.3 0.1
v 0.3 0.3 0.1
v 0.4 0.3 0.1
v 0.5 0.3 0.1
v 0.6 0.3 0.1
v 0.7 0.3 0.1
v 0.8 0.3 0.1
v -0.8 0.3 0
v 0.9 0.3 0
v 0.5 0.3 -0.1
v 1.1 0.3 -0.1
v -0.5 0.3 -0.2
v -0.2 0.3 -0.2
v -0.5 0.3 -0.3
v -0.2 0.3 -0.3
v -1 0.3 -0.9
v 0.5 0.3 -0.9
v 0.5 0.6 -0.1
v 1.1 0.6 -0.1
v 0.5 0.6 -0.2
v 1.1 0.6 -0.2
v 0.5 0.7 -0.2
v 1.1 0.7 -0.2
v 0.6 0.7 -0.7
v 1 0.7 -0.7
v 0.6 0.7 -0.8
v 1 0.7 -0.8
v 0.5 0.7 -0.9
v 1.1 0.7 -0.9
v -1 0.8 -0.1
v 0.3 0.8 -0.1
v -1 0.8 -0.2
v 0.3 0.8 -0.2
v 0.6 0.8 -0.7
v 1 0.8 -0.7
v 0.6 0.8 -0.8
v 1 0.8 -0.8
v -1.1 1.7 -0.1
v 0.4 1.7 -0.1
v -1.1 1.7 -0.4
v 0.4 1.7 -0.4

# faces
f 3/3/1 2/3/1 1/3/1
f 4/3/1 2/3/1 3/3/1
f 7/3/1 6/3/1 5/3/1
f 8/3/1 6/3/1 7/3/1
f 11/3/1 10/3/1 9/3/1
f 12/3/1 10/3/1 11/3/1
f 15/3/1 14/3/1 13/3/1
f 16/3/1 14/3/1 15/3/1
f 19/3/1 18/3/1 17/3/1
f 20/3/1 18/3/1 19/3/1
f 21/3/1 18/3/1 20/3/1
f 22/3/1 18/3/1 21/3/1
f 25/2/1 24/2/1 23/2/1
f 26/2/1 24/2/1 25/2/1
f 27/3/2 28/3/2 29/3/2
f 29/3/2 28/3/2 30/3/2
f 31/3/2 32/3/2 33/3/2
f 33/3/2 32/3/2 34/3/2
f 35/3/2 36/3/2 37/3/2
f 37/3/2 36/3/2 38/3/2
f 39/2/2 40/2/2 41/2/2
f 41/2/2 40/2/2 42/2/2
f 43/3/2 44/3/2 45/3/2
f 45/3/2 44/3/2 46/3/2
f 46/3/2 44/3/2 47/3/2
f 47/3/2 44/3/2 48/3/2
f 48/3/2 44/3/2 49/3/2
f 49/3/2 44/3/2 50/3/2
f 53/3/3 52/3/3 51/3/3
f 54/3/3 52/3/3 53/3/3
f 55/4/3 54/4/3 53/4/3
f 56/3/3 52/3/3 54/3/3
f 56/4/3 54/4/3 55/4/3
f 57/3/3 56/3/3 55/3/3
f 58/3/3 52/3/3 56/3/3
f 58/3/3 56/3/3 57/3/3
f 61/3/3 60/3/3 59/3/3
f 62/3/3 60/3/3 61/3/3
f 63/3/3 61/3/3 59/3/3
f 64/3/3 60/3/3 62/3/3
f 65/3/3 63/3/3 59/3/3
f 65/3/3 64/3/3 63/3/3
f 66/3/3 60/3/3 64/3/3
f 66/3/3 64/3/3 65/3/3
f 69/3/3 68/3/3 67/3/3
f 70/3/3 68/3/3 69/3/3
f 75/3/3 74/3/3 73/3/3
f 76/3/3 74/3/3 75/3/3
f 77/1/3 72/1/3 71/1/3
f 78/1/3 72/1/3 77/1/3
f 81/3/3 80/3/3 79/3/3
f 82/3/3 80/3/3 81/3/3
f 85/2/3 84/2/3 83/2/3
f 86/2/3 84/2/3 85/2/3
f 87/3/4 88/3/4 89/3/4
f 89/3/4 88/3/4 90/3/4
f 91/3/4 92/3/4 93/3/4
f 93/3/4 92/3/4 94/3/4
f 95/2/4 96/2/4 97/2/4
f 97/2/4 96/2/4 98/2/4
f 99/3/4 100/3/4 101/3/4
f 99/3/4 101/3/4 103/3/4
f 101/3/4 102/3/4 103/3/4
f 103/3/4 102/3/4 104/3/4
f 109/3/5 106/3/5 105/3/5
f 109/4/5 107/4/5 106/4/5
f 110/3/5 108/3/5 107/3/5
f 110/4/5 107/4/5 109/4/5
f 111/3/5 109/3/5 105/3/5
f 111/3/5 110/3/5 109/3/5
f 112/3/5 108/3/5 110/3/5
f 112/3/5 110/3/5 111/3/5
f 115/3/5 114/3/5 113/3/5
f 116/3/5 114/3/5 115/3/5
f 117/3/5 115/3/5 113/3/5
f 118/3/5 114/3/5 116/3/5
f 119/3/5 117/3/5 113/3/5
f 119/3/5 118/3/5 117/3/5
f 120/3/5 114/3/5 118/3/5
f 120/3/5 118/3/5 119/3/5
f 123/3/5 122/3/5 121/3/5
f 124/3/5 122/3/5 123/3/5
f 125/3/6 126/3/6 127/3/6
f 127/3/6 126/3/6 128/3/6
f 127/4/6 128/4/6 129/4/6
f 129/4/6 128/4/6 130/4/6
f 130/4/6 128/4/6 131/4/6
f 131/4/6 128/4/6 132/4/6
f 132/4/6 128/4/6 133/4/6
f 133/4/6 128/4/6 134/4/6
f 134/4/6 128/4/6 135/4/6
f 135/4/6 128/4/6 136/4/6
f 136/4/6 128/4/6 137/4/6
f 137/4/6 128/4/6 138/4/6
f 138/4/6 128/4/6 139/4/6
f 139/4/6 128/4/6 140/4/6
f 140/4/6 128/4/6 141/4/6
f 141/4/6 128/4/6 142/4/6
f 127/4/6 129/4/6 143/4/6
f 129/3/6 130/3/6 143/3/6
f 130/4/6 131/4/6 144/4/6
f 143/3/6 130/3/6 144/3/6
f 131/3/6 132/3/6 145/3/6
f 144/4/6 131/4/6 145/4/6
f 132/4/6 133/4/6 146/4/6
f 145/3/6 132/3/6 146/3/6
f 133/3/6 134/3/6 147/3/6
f 146/4/6 133/4/6 147/4/6
f 134/4/6 135/4/6 148/4/6
f 147/3/6 134/3/6 148/3/6
f 135/3/6 136/3/6 149/3/6
f 148/4/6 135/4/6 149/4/6
f 136/4/6 137/4/6 150/4/6
f 149/3/6 136/3/6 150/3/6
f 137/3/6 138/3/6 151/3/6
f 150/4/6 137/4/6 151/4/6
f 138/4/6 139/4/6 152/4/6
f 151/3/6 138/3/6 152/3/6
f 139/3/6 140/3/6 153/3/6
f 152/4/6 139/4/6 153/4/6
f 140/4/6 141/4/6 154/4/6
f 153/3/6 140/3/6 154/3/6
f 141/3/6 142/3/6 155/3/6
f 154/4/6 141/4/6 155/4/6
f 142/4/6 128/4/6 156/4/6
f 155/3/6 142/3/6 156/3/6
f 154/4/6 155/4/6 157/4/6
f 153/4/6 154/4/6 157/4/6
f 155/4/6 156/4/6 157/4/6
f 152/4/6 153/4/6 157/4/6
f 151/4/6 152/4/6 157/4/6
f 150/4/6 151/4/6 157/4/6
f 149/4/6 150/4/6 157/4/6
f 148/4/6 149/4/6 157/4/6
f 147/4/6 148/4/6 157/4/6
f 146/4/6 147/4/6 157/4/6
f 145/4/6 146/4/6 157/4/6
f 144/4/6 145/4/6 157/4/6
f 143/4/6 144/4/6 157/4/6
f 127/4/6 143/4/6 157/4/6
f 157/4/6 156/4/6 158/4/6
f 158/4/6 156/4/6 159/4/6
f 159/4/6 156/4/6 160/4/6
f 160/4/6 156/4/6 161/4/6
f 161/4/6 156/4/6 162/4/6
f 162/4/6 156/4/6 163/4/6
f 163/4/6 156/4/6 164/4/6
f 164/4/6 156/4/6 165/4/6
f 165/4/6 156/4/6 166/4/6
f 166/4/6 156/4/6 167/4/6
f 167/4/6 156/4/6 168/4/6
f 168/4/6 156/4/6 169/4/6
f 169/4/6 156/4/6 170/4/6
f 170/4/6 156/4/6 171/4/6
f 156/4/6 128/4/6 172/4/6
f 171/4/6 156/4/6 172/4/6
f 127/4/6 157/4/6 173/4/6
f 157/3/6 158/3/6 173/3/6
f 158/4/6 159/4/6 174/4/6
f 173/3/6 158/3/6 174/3/6
f 159/3/6 160/3/6 175/3/6
f 174/4/6 159/4/6 175/4/6
f 160/4/6 161/4/6 176/4/6
f 175/3/6 160/3/6 176/3/6
f 161/3/6 162/3/6 177/3/6
f 176/4/6 161/4/6 177/4/6
f 162/4/6 163/4/6 178/4/6
f 177/3/6 162/3/6 178/3/6
f 163/3/6 164/3/6 179/3/6
f 178/4/6 163/4/6 179/4/6
f 164/4/6 165/4/6 180/4/6
f 179/3/6 164/3/6 180/3/6
f 165/3/6 166/3/6 181/3/6
f 180/4/6 165/4/6 181/4/6
f 166/4/6 167/4/6 182/4/6
f 181/3/6 166/3/6 182/3/6
f 167/3/6 168/3/6 183/3/6
f 182/4/6 167/4/6 183/4/6
f 168/4/6 169/4/6 184/4/6
f 183/3/6 168/3/6 184/3/6
f 169/3/6 170/3/6 185/3/6
f 184/4/6 169/4/6 185/4/6
f 170/4/6 171/4/6 186/4/6
f 185/3/6 170/3/6 186/3/6
f 171/3/6 172/3/6 187/3/6
f 186/4/6 171/4/6 187/4/6
f 172/4/6 128/4/6 188/4/6
f 187/3/6 172/3/6 188/3/6
f 184/4/6 185/4/6 189/4/6
f 186/4/6 187/4/6 189/4/6
f 187/4/6 188/4/6 189/4/6
f 183/4/6 184/4/6 189/4/6
f 182/4/6 183/4/6 189/4/6
f 181/4/6 182/4/6 189/4/6
f 180/4/6 181/4/6 189/4/6
f 179/4/6 180/4/6 189/4/6
f 178/4/6 179/4/6 189/4/6
f 177/4/6 178/4/6 189/4/6
f 176/4/6 177/4/6 189/4/6
f 175/4/6 176/4/6 189/4/6
f 174/4/6 175/4/6 189/4/6
f 173/4/6 174/4/6 189/4/6
f 127/4/6 173/4/6 189/4/6
f 185/4/6 186/4/6 189/4/6
f 189/4/6 188/4/6 190/4/6
f 190/4/6 188/4/6 191/4/6
f 191/4/6 188/4/6 192/4/6
f 192/4/6 188/4/6 193/4/6
f 193/4/6 188/4/6 194/4/6
f 194/4/6 188/4/6 195/4/6
f 195/4/6 188/4/6 196/4/6
f 196/4/6 188/4/6 197/4/6
f 197/4/6 188/4/6 198/4/6
f 198/4/6 188/4/6 199/4/6
f 199/4/6 188/4/6 200/4/6
f 200/4/6 188/4/6 201/4/6
f 201/4/6 188/4/6 202/4/6
f 202/4/6 188/4/6 203/4/6
f 188/4/6 128/4/6 204/4/6
f 203/4/6 188/4/6 204/4/6
f 127/4/6 189/4/6 205/4/6
f 189/3/6 190/3/6 205/3/6
f 190/4/6 191/4/6 206/4/6
f 205/3/6 190/3/6 206/3/6
f 191/3/6 192/3/6 207/3/6
f 206/4/6 191/4/6 207/4/6
f 192/4/6 193/4/6 208/4/6
f 207/3/6 192/3/6 208/3/6
f 193/3/6 194/3/6 209/3/6
f 208/4/6 193/4/6 209/4/6
f 194/4/6 195/4/6 210/4/6
f 209/3/6 194/3/6 210/3/6
f 195/3/6 196/3/6 211/3/6
f 210/4/6 195/4/6 211/4/6
f 196/4/6 197/4/6 212/4/6
f 211/3/6 196/3/6 212/3/6
f 197/3/6 198/3/6 213/3/6
f 212/4/6 197/4/6 213/4/6
f 198/4/6 199/4/6 214/4/6
f 213/3/6 198/3/6 214/3/6
f 199/3/6 200/3/6 215/3/6
f 214/4/6 199/4/6 215/4/6
f 200/4/6 201/4/6 216/4/6
f 215/3/6 200/3/6 216/3/6
f 201/3/6 202/3/6 217/3/6
f 216/4/6 201/4/6 217/4/6
f 202/4/6 203/4/6 218/4/6
f 217/3/6 202/3/6 218/3/6
f 203/3/6 204/3/6 219/3/6
f 218/4/6 203/4/6 219/4/6
f 204/4/6 128/4/6 220/4/6
f 219/3/6 204/3/6 220/3/6
f 216/4/6 217/4/6 221/4/6
f 218/4/6 219/4/6 221/4/6
f 219/4/6 220/4/6 221/4/6
f 215/4/6 216/4/6 221/4/6
f 214/4/6 215/4/6 221/4/6
f 213/4/6 214/4/6 221/4/6
f 212/4/6 213/4/6 221/4/6
f 211/4/6 212/4/6 221/4/6
f 210/4/6 211/4/6 221/4/6
f 209/4/6 210/4/6 221/4/6
f 208/4/6 209/4/6 221/4/6
f 207/4/6 208/4/6 221/4/6
f 206/4/6 207/4/6 221/4/6
f 205/4/6 206/4/6 221/4/6
f 127/4/6 205/4/6 221/4/6
f 217/4/6 218/4/6 221/4/6
f 221/4/6 220/4/6 222/4/6
f 222/4/6 220/4/6 223/4/6
f 223/4/6 220/4/6 224/4/6
f 224/4/6 220/4/6 225/4/6
f 225/4/6 220/4/6 226/4/6
f 226/4/6 220/4/6 227/4/6
f 227/4/6 220/4/6 228/4/6
f 228/4/6 220/4/6 229/4/6
f 229/4/6 220/4/6 230/4/6
f 230/4/6 220/4/6 231/4/6
f 231/4/6 220/4/6 232/4/6
f 232/4/6 220/4/6 233/4/6
f 233/4/6 220/4/6 234/4/6
f 234/4/6 220/4/6 235/4/6
f 220/4/6 128/4/6 236/4/6
f 235/4/6 220/4/6 236/4/6
f 127/4/6 221/4/6 237/4/6
f 221/3/6 222/3/6 237/3/6
f 222/4/6 223/4/6 238/4/6
f 237/3/6 222/3/6 238/3/6
f 223/3/6 224/3/6 239/3/6
f 238/4/6 223/4/6 239/4/6
f 224/4/6 225/4/6 240/4/6
f 239/3/6 224/3/6 240/3/6
f 225/3/6 226/3/6 241/3/6
f 240/4/6 225/4/6 241/4/6
f 226/4/6 227/4/6 242/4/6
f 241/3/6 226/3/6 242/3/6
f 227/3/6 228/3/6 243/3/6
f 242/4/6 227/4/6 243/4/6
f 228/4/6 229/4/6 244/4/6
f 243/3/6 228/3/6 244/3/6
f 229/3/6 230/3/6 245/3/6
f 244/4/6 229/4/6 245/4/6
f 230/4/6 231/4/6 246/4/6
f 245/3/6 230/3/6 246/3/6
f 231/3/6 232/3/6 247/3/6
f 246/4/6 231/4/6 247/4/6
f 232/4/6 233/4/6 248/4/6
f 247/3/6 232/3/6 248/3/6
f 233/3/6 234/3/6 249/3/6
f 248/4/6 233/4/6 249/4/6
f 234/4/6 235/4/6 250/4/6
f 249/3/6 234/3/6 250/3/6
f 235/3/6 236/3/6 251/3/6
f 250/4/6 235/4/6 251/4/6
f 236/4/6 128/4/6 252/4/6
f 251/3/6 236/3/6 252/3/6
f 125/3/6 127/3/6 253/3/6
f 248/4/6 249/4/6 253/4/6
f 251/4/6 252/4/6 253/4/6
f 247/4/6 248/4/6 253/4/6
f 246/4/6 247/4/6 253/4/6
f 245/4/6 246/4/6 253/4/6
f 244/4/6 245/4/6 253/4/6
f 243/4/6 244/4/6 253/4/6
f 242/4/6 243/4/6 253/4/6
f 241/4/6 242/4/6 253/4/6
f 240/4/6 241/4/6 253/4/6
f 239/4/6 240/4/6 253/4/6
f 238/4/6 239/4/6 253/4/6
f 237/4/6 238/4/6 253/4/6
f 127/4/6 237/4/6 253/4/6
f 249/4/6 250/4/6 253/4/6
f 250/4/6 251/4/6 253/4/6
f 252/4/6 128/4/6 254/4/6
f 253/4/6 252/4/6 254/4/6
f 128/3/6 126/3/6 254/3/6
f 253/3/6 254/3/6 255/3/6
f 254/3/6 126/3/6 256/3/6
f 255/3/6 254/3/6 256/3/6
f 253/3/6 255/3/6 257/3/6
f 257/3/6 255/3/6 258/3/6
f 253/3/6 257/3/6 259/3/6
f 258/3/6 255/3/6 260/3/6
f 125/3/6 253/3/6 261/3/6
f 259/3/6 260/3/6 261/3/6
f 253/3/6 259/3/6 261/3/6
f 260/3/6 255/3/6 262/3/6
f 261/3/6 260/3/6 262/3/6
f 263/3/6 264/3/6 265/3/6
f 265/3/6 264/3/6 266/3/6
f 267/3/6 268/3/6 269/3/6
f 269/3/6 268/3/6 270/3/6
f 267/3/6 269/3/6 271/3/6
f 270/3/6 268/3/6 272/3/6
f 267/3/6 271/3/6 273/3/6
f 271/3/6 272/3/6 273/3/6
f 272/3/6 268/3/6 274/3/6
f 273/3/6 272/3/6 274/3/6
f 275/3/6 276/3/6 277/3/6
f 277/3/6 276/3/6 278/3/6
f 279/2/6 280/2/6 281/2/6
f 281/2/6 280/2/6 282/2/6
f 283/3/6 284/3/6 285/3/6
f 285/3/6 284/3/6 286/3/6
