# MagicaVoxel @ Ephtracy

# group
o 

# material
mtllib Picture.mtl
usemtl palette

# normals
vn -1 0 0
vn 1 0 0
vn 0 0 1
vn 0 0 -1
vn 0 -1 0
vn 0 1 0

# texcoords
vt 0.0292969 0.5
vt 0.0527344 0.5
vt 0.197266 0.5
vt 0.537109 0.5
vt 0.744141 0.5
vt 0.767578 0.5
vt 0.787109 0.5
vt 0.873047 0.5

# verts
v -0.9 0.2 1.1
v -0.9 0.2 -1.1
v -0.9 0.3 1.1
v -0.9 0.3 -1.1
v -0.8 0.1 1
v -0.8 0.1 -1
v -0.8 0.2 1
v -0.8 0.2 -1
v -0.7 0 0.9
v -0.7 0 -0.9
v -0.7 0.1 0.9
v -0.7 0.1 -0.9
v 0.7 0.2 0.8
v 0.7 0.2 -0.8
v 0.7 0.3 0.8
v 0.7 0.3 -0.8
v -0.6 0.2 0.8
v -0.6 0.2 -0.8
v -0.6 0.3 0.8
v -0.6 0.3 -0.8
v 0.8 0 0.9
v 0.8 0 -0.9
v 0.8 0.1 0.9
v 0.8 0.1 -0.9
v 0.9 0.1 1
v 0.9 0.1 -1
v 0.9 0.2 1
v 0.9 0.2 -1
v 1 0.2 1.1
v 1 0.2 -1.1
v 1 0.3 1.1
v 1 0.3 -1.1
v -0.9 0.2 1.1
v -0.9 0.3 1.1
v 1 0.2 1.1
v 1 0.3 1.1
v -0.8 0.1 1
v -0.8 0.2 1
v 0.9 0.1 1
v 0.9 0.2 1
v -0.7 0 0.9
v -0.7 0.1 0.9
v 0.8 0 0.9
v 0.8 0.1 0.9
v -0.6 0.2 -0.8
v -0.6 0.3 -0.8
v -0.4 0.2 -0.8
v -0.2 0.2 -0.8
v -0.1 0.2 -0.8
v 0.2 0.2 -0.8
v 0.3 0.2 -0.8
v 0.5 0.2 -0.8
v 0.7 0.2 -0.8
v 0.7 0.3 -0.8
v -0.6 0.2 0.8
v -0.6 0.3 0.8
v 0.7 0.2 0.8
v 0.7 0.3 0.8
v -0.7 0 -0.9
v -0.7 0.1 -0.9
v 0.8 0 -0.9
v 0.8 0.1 -0.9
v -0.8 0.1 -1
v -0.8 0.2 -1
v 0.9 0.1 -1
v 0.9 0.2 -1
v -0.9 0.2 -1.1
v -0.9 0.3 -1.1
v 1 0.2 -1.1
v 1 0.3 -1.1
v -0.7 0 0.9
v 0.8 0 0.9
v -0.7 0 -0.9
v 0.8 0 -0.9
v -0.8 0.1 1
v 0.9 0.1 1
v -0.7 0.1 0.9
v 0.8 0.1 0.9
v -0.7 0.1 -0.9
v 0.8 0.1 -0.9
v -0.8 0.1 -1
v 0.9 0.1 -1
v -0.9 0.2 1.1
v 1 0.2 1.1
v -0.8 0.2 1
v 0.9 0.2 1
v -0.8 0.2 -1
v 0.9 0.2 -1
v -0.9 0.2 -1.1
v 1 0.2 -1.1
v -0.6 0.2 0.8
v 0.7 0.2 0.8
v -0.2 0.2 0.7
v 0.3 0.2 0.7
v -0.3 0.2 0.6
v -0.2 0.2 0.6
v 0.3 0.2 0.6
v 0.4 0.2 0.6
v 0 0.2 0.5
v 0.1 0.2 0.5
v -0.1 0.2 0.4
v 0 0.2 0.4
v 0.1 0.2 0.4
v 0.2 0.2 0.4
v -0.2 0.2 0.3
v -0.1 0.2 0.3
v 0 0.2 0.3
v 0.1 0.2 0.3
v 0.2 0.2 0.3
v 0.3 0.2 0.3
v -0.1 0.2 0.2
v 0 0.2 0.2
v 0.1 0.2 0.2
v 0.2 0.2 0.2
v 0 0.2 0.1
v 0.1 0.2 0.1
v -0.2 0.2 0
v -0.1 0.2 0
v 0 0.2 0
v 0.1 0.2 0
v 0.2 0.2 0
v 0.3 0.2 0
v -0.1 0.2 -0.1
v 0.2 0.2 -0.1
v -0.4 0.2 -0.2
v -0.3 0.2 -0.2
v -0.1 0.2 -0.2
v 0.2 0.2 -0.2
v 0.4 0.2 -0.2
v 0.5 0.2 -0.2
v -0.2 0.2 -0.4
v -0.1 0.2 -0.4
v 0.2 0.2 -0.4
v 0.3 0.2 -0.4
v -0.6 0.2 -0.8
v -0.4 0.2 -0.8
v -0.2 0.2 -0.8
v -0.1 0.2 -0.8
v 0.2 0.2 -0.8
v 0.3 0.2 -0.8
v 0.5 0.2 -0.8
v 0.7 0.2 -0.8
v -0.9 0.3 1.1
v 1 0.3 1.1
v -0.6 0.3 0.8
v 0.7 0.3 0.8
v -0.6 0.3 -0.8
v 0.7 0.3 -0.8
v -0.9 0.3 -1.1
v 1 0.3 -1.1

# faces
f 3/4/1 2/4/1 1/4/1
f 4/4/1 2/4/1 3/4/1
f 7/4/1 6/4/1 5/4/1
f 8/4/1 6/4/1 7/4/1
f 11/4/1 10/4/1 9/4/1
f 12/4/1 10/4/1 11/4/1
f 15/4/1 14/4/1 13/4/1
f 16/4/1 14/4/1 15/4/1
f 17/4/2 18/4/2 19/4/2
f 19/4/2 18/4/2 20/4/2
f 21/4/2 22/4/2 23/4/2
f 23/4/2 22/4/2 24/4/2
f 25/4/2 26/4/2 27/4/2
f 27/4/2 26/4/2 28/4/2
f 29/4/2 30/4/2 31/4/2
f 31/4/2 30/4/2 32/4/2
f 35/4/3 34/4/3 33/4/3
f 36/4/3 34/4/3 35/4/3
f 39/4/3 38/4/3 37/4/3
f 40/4/3 38/4/3 39/4/3
f 43/4/3 42/4/3 41/4/3
f 44/4/3 42/4/3 43/4/3
f 47/4/3 46/4/3 45/4/3
f 48/4/3 46/4/3 47/4/3
f 49/4/3 46/4/3 48/4/3
f 50/4/3 46/4/3 49/4/3
f 51/4/3 46/4/3 50/4/3
f 52/4/3 46/4/3 51/4/3
f 53/4/3 46/4/3 52/4/3
f 54/4/3 46/4/3 53/4/3
f 55/4/4 56/4/4 57/4/4
f 57/4/4 56/4/4 58/4/4
f 59/4/4 60/4/4 61/4/4
f 61/4/4 60/4/4 62/4/4
f 63/4/4 64/4/4 65/4/4
f 65/4/4 64/4/4 66/4/4
f 67/4/4 68/4/4 69/4/4
f 69/4/4 68/4/4 70/4/4
f 73/4/5 72/4/5 71/4/5
f 74/4/5 72/4/5 73/4/5
f 77/4/5 76/4/5 75/4/5
f 78/4/5 76/4/5 77/4/5
f 79/4/5 77/4/5 75/4/5
f 80/4/5 76/4/5 78/4/5
f 81/4/5 79/4/5 75/4/5
f 81/4/5 80/4/5 79/4/5
f 82/4/5 76/4/5 80/4/5
f 82/4/5 80/4/5 81/4/5
f 85/4/5 84/4/5 83/4/5
f 86/4/5 84/4/5 85/4/5
f 87/4/5 85/4/5 83/4/5
f 88/4/5 84/4/5 86/4/5
f 89/4/5 87/4/5 83/4/5
f 89/4/5 88/4/5 87/4/5
f 90/4/5 84/4/5 88/4/5
f 90/4/5 88/4/5 89/4/5
f 91/3/6 92/3/6 93/3/6
f 93/3/6 92/3/6 94/3/6
f 91/3/6 93/3/6 95/3/6
f 93/8/6 94/8/6 96/8/6
f 95/3/6 93/3/6 96/3/6
f 94/3/6 92/3/6 97/3/6
f 96/8/6 94/8/6 97/8/6
f 97/3/6 92/3/6 98/3/6
f 95/8/6 96/8/6 99/8/6
f 96/8/6 97/8/6 99/8/6
f 97/8/6 98/8/6 99/8/6
f 99/8/6 98/8/6 100/8/6
f 95/8/6 99/8/6 101/8/6
f 99/1/6 100/1/6 102/1/6
f 101/8/6 99/8/6 102/8/6
f 100/8/6 98/8/6 103/8/6
f 102/1/6 100/1/6 103/1/6
f 103/8/6 98/8/6 104/8/6
f 95/8/6 101/8/6 105/8/6
f 101/1/6 102/1/6 106/1/6
f 105/8/6 101/8/6 106/8/6
f 102/1/6 103/1/6 106/1/6
f 103/1/6 104/1/6 106/1/6
f 106/1/6 104/1/6 107/1/6
f 107/1/6 104/1/6 108/1/6
f 104/8/6 98/8/6 109/8/6
f 108/1/6 104/1/6 109/1/6
f 109/8/6 98/8/6 110/8/6
f 105/1/6 106/1/6 111/1/6
f 106/7/6 107/7/6 111/7/6
f 107/1/6 108/1/6 112/1/6
f 111/7/6 107/7/6 112/7/6
f 108/7/6 109/7/6 113/7/6
f 112/1/6 108/1/6 113/1/6
f 109/1/6 110/1/6 114/1/6
f 113/7/6 109/7/6 114/7/6
f 112/1/6 113/1/6 115/1/6
f 111/1/6 112/1/6 115/1/6
f 113/1/6 114/1/6 115/1/6
f 115/1/6 114/1/6 116/1/6
f 95/8/6 105/8/6 117/8/6
f 105/1/6 111/1/6 117/1/6
f 111/1/6 115/1/6 117/1/6
f 117/1/6 115/1/6 118/1/6
f 115/2/6 116/2/6 119/2/6
f 118/1/6 115/1/6 119/1/6
f 116/1/6 114/1/6 120/1/6
f 119/2/6 116/2/6 120/2/6
f 114/1/6 110/1/6 121/1/6
f 120/1/6 114/1/6 121/1/6
f 110/8/6 98/8/6 122/8/6
f 121/1/6 110/1/6 122/1/6
f 118/1/6 119/1/6 123/1/6
f 117/8/6 118/8/6 123/8/6
f 120/1/6 121/1/6 123/1/6
f 119/1/6 120/1/6 123/1/6
f 121/8/6 122/8/6 124/8/6
f 123/1/6 121/1/6 124/1/6
f 91/3/6 95/3/6 125/3/6
f 117/8/6 123/8/6 126/8/6
f 125/3/6 95/3/6 126/3/6
f 95/8/6 117/8/6 126/8/6
f 123/5/6 124/5/6 127/5/6
f 126/8/6 123/8/6 127/8/6
f 124/8/6 122/8/6 128/8/6
f 127/5/6 124/5/6 128/5/6
f 98/3/6 92/3/6 129/3/6
f 128/8/6 122/8/6 129/8/6
f 122/8/6 98/8/6 129/8/6
f 129/3/6 92/3/6 130/3/6
f 127/5/6 128/5/6 131/5/6
f 126/5/6 127/5/6 131/5/6
f 129/5/6 130/5/6 131/5/6
f 128/5/6 129/5/6 131/5/6
f 125/5/6 126/5/6 131/5/6
f 131/5/6 130/5/6 132/5/6
f 132/5/6 130/5/6 133/5/6
f 133/5/6 130/5/6 134/5/6
f 91/3/6 125/3/6 135/3/6
f 125/5/6 131/5/6 136/5/6
f 135/3/6 125/3/6 136/3/6
f 131/6/6 132/6/6 137/6/6
f 136/5/6 131/5/6 137/5/6
f 132/5/6 133/5/6 138/5/6
f 137/6/6 132/6/6 138/6/6
f 133/6/6 134/6/6 139/6/6
f 138/5/6 133/5/6 139/5/6
f 134/5/6 130/5/6 140/5/6
f 139/6/6 134/6/6 140/6/6
f 130/3/6 92/3/6 141/3/6
f 140/5/6 130/5/6 141/5/6
f 141/3/6 92/3/6 142/3/6
f 143/4/6 144/4/6 145/4/6
f 145/4/6 144/4/6 146/4/6
f 143/4/6 145/4/6 147/4/6
f 146/4/6 144/4/6 148/4/6
f 143/4/6 147/4/6 149/4/6
f 147/4/6 148/4/6 149/4/6
f 148/4/6 144/4/6 150/4/6
f 149/4/6 148/4/6 150/4/6
