# MagicaVoxel @ Ephtracy

# group
o 

# material
mtllib Poster.mtl
usemtl palette

# normals
vn -1 0 0
vn 1 0 0
vn 0 0 1
vn 0 0 -1
vn 0 -1 0
vn 0 1 0

# texcoords
vt 0.00976563 0.5
vt 0.0332031 0.5
vt 0.197266 0.5
vt 0.220703 0.5
vt 0.537109 0.5
vt 0.728516 0.5
vt 0.994141 0.5

# verts
v -1.1 0 1.6
v -1.1 0 -1.6
v -1.1 0.2 1.6
v -1.1 0.2 -1.6
v 1.1 0 1.6
v 1.1 0 -1.6
v 1.1 0.2 1.6
v 1.1 0.2 -1.6
v -1.1 0 1.6
v -1.1 0.2 1.6
v 1.1 0 1.6
v 1.1 0.2 1.6
v -1.1 0 -1.6
v -1.1 0.2 -1.6
v 1.1 0 -1.6
v 1.1 0.2 -1.6
v -1.1 0 1.6
v 1.1 0 1.6
v -1.1 0 -1.6
v 1.1 0 -1.6
v -1.1 0.2 1.6
v 1.1 0.2 1.6
v -1 0.2 1.5
v -0.6 0.2 1.5
v -0.5 0.2 1.5
v -0.1 0.2 1.5
v 0 0.2 1.5
v 0.4 0.2 1.5
v 0.7 0.2 1.5
v 0.8 0.2 1.5
v -0.9 0.2 1.4
v -0.6 0.2 1.4
v -0.4 0.2 1.4
v -0.2 0.2 1.4
v 0 0.2 1.4
v 0.3 0.2 1.4
v 0 0.2 1
v 0.3 0.2 1
v 0.1 0.2 0.9
v 0.4 0.2 0.9
v -0.4 0.2 0.6
v -0.2 0.2 0.6
v 0.1 0.2 0.6
v 0.4 0.2 0.6
v 0.5 0.2 0.6
v 0.7 0.2 0.6
v 0.8 0.2 0.6
v 1 0.2 0.6
v -1 0.2 0.5
v -0.9 0.2 0.5
v -0.5 0.2 0.5
v -0.1 0.2 0.5
v 0 0.2 0.5
v 0.4 0.2 0.5
v 0.5 0.2 0.5
v 1 0.2 0.5
v -0.7 0.2 0.4
v 0.7 0.2 0.4
v -0.7 0.2 0.3
v -0.6 0.2 0.3
v -0.4 0.2 0.3
v -0.3 0.2 0.3
v 0.3 0.2 0.3
v 0.4 0.2 0.3
v 0.6 0.2 0.3
v 0.7 0.2 0.3
v -0.4 0.2 -0.1
v -0.3 0.2 -0.1
v 0.3 0.2 -0.1
v 0.4 0.2 -0.1
v -0.6 0.2 -0.4
v -0.5 0.2 -0.4
v 0.5 0.2 -0.4
v 0.6 0.2 -0.4
v -0.5 0.2 -0.5
v -0.3 0.2 -0.5
v 0.3 0.2 -0.5
v 0.5 0.2 -0.5
v -0.4 0.2 -0.6
v -0.3 0.2 -0.6
v 0.3 0.2 -0.6
v 0.4 0.2 -0.6
v -0.2 0.2 -0.7
v -0.1 0.2 -0.7
v 0.1 0.2 -0.7
v 0.2 0.2 -0.7
v -0.4 0.2 -0.8
v -0.3 0.2 -0.8
v -0.2 0.2 -0.8
v -0.1 0.2 -0.8
v 0.1 0.2 -0.8
v 0.2 0.2 -0.8
v 0.3 0.2 -0.8
v 0.4 0.2 -0.8
v -0.3 0.2 -0.9
v -0.2 0.2 -0.9
v 0.2 0.2 -0.9
v 0.3 0.2 -0.9
v -0.2 0.2 -1
v 0.2 0.2 -1
v -0.4 0.2 -1.3
v -0.3 0.2 -1.3
v 0.3 0.2 -1.3
v 0.4 0.2 -1.3
v -0.3 0.2 -1.4
v 0.3 0.2 -1.4
v -1.1 0.2 -1.6
v 1.1 0.2 -1.6

# faces
f 3/1/1 2/1/1 1/1/1
f 4/1/1 2/1/1 3/1/1
f 5/1/2 6/1/2 7/1/2
f 7/1/2 6/1/2 8/1/2
f 11/1/3 10/1/3 9/1/3
f 12/1/3 10/1/3 11/1/3
f 13/1/4 14/1/4 15/1/4
f 15/1/4 14/1/4 16/1/4
f 19/1/5 18/1/5 17/1/5
f 20/1/5 18/1/5 19/1/5
f 21/1/6 22/1/6 23/1/6
f 23/1/6 22/1/6 24/1/6
f 24/1/6 22/1/6 25/1/6
f 25/1/6 22/1/6 26/1/6
f 26/1/6 22/1/6 27/1/6
f 27/1/6 22/1/6 28/1/6
f 28/1/6 22/1/6 29/1/6
f 29/1/6 22/1/6 30/1/6
f 23/7/6 24/7/6 31/7/6
f 24/1/6 25/1/6 32/1/6
f 31/7/6 24/7/6 32/7/6
f 25/7/6 26/7/6 33/7/6
f 33/7/6 26/7/6 34/7/6
f 26/1/6 27/1/6 35/1/6
f 27/7/6 28/7/6 35/7/6
f 35/7/6 28/7/6 36/7/6
f 26/1/6 35/1/6 37/1/6
f 35/1/6 36/1/6 37/1/6
f 36/7/6 28/7/6 38/7/6
f 37/1/6 36/1/6 38/1/6
f 37/7/6 38/7/6 39/7/6
f 28/1/6 29/1/6 40/1/6
f 39/7/6 38/7/6 40/7/6
f 38/7/6 28/7/6 40/7/6
f 33/1/6 34/1/6 41/1/6
f 25/7/6 33/7/6 41/7/6
f 34/7/6 26/7/6 42/7/6
f 41/1/6 34/1/6 42/1/6
f 37/7/6 39/7/6 43/7/6
f 39/1/6 40/1/6 43/1/6
f 40/1/6 29/1/6 44/1/6
f 43/1/6 40/1/6 44/1/6
f 44/1/6 29/1/6 45/1/6
f 29/7/6 30/7/6 46/7/6
f 45/1/6 29/1/6 46/1/6
f 30/1/6 22/1/6 47/1/6
f 46/7/6 30/7/6 47/7/6
f 47/1/6 22/1/6 48/1/6
f 21/1/6 23/1/6 49/1/6
f 23/7/6 31/7/6 49/7/6
f 31/1/6 32/1/6 50/1/6
f 49/7/6 31/7/6 50/7/6
f 32/1/6 25/1/6 51/1/6
f 50/1/6 32/1/6 51/1/6
f 25/7/6 41/7/6 51/7/6
f 41/7/6 42/7/6 51/7/6
f 42/7/6 26/7/6 52/7/6
f 51/7/6 42/7/6 52/7/6
f 26/1/6 37/1/6 52/1/6
f 37/7/6 43/7/6 53/7/6
f 52/1/6 37/1/6 53/1/6
f 43/7/6 44/7/6 53/7/6
f 44/1/6 45/1/6 54/1/6
f 53/7/6 44/7/6 54/7/6
f 45/7/6 46/7/6 55/7/6
f 54/1/6 45/1/6 55/1/6
f 47/7/6 48/7/6 55/7/6
f 46/7/6 47/7/6 55/7/6
f 48/1/6 22/1/6 56/1/6
f 55/7/6 48/7/6 56/7/6
f 54/1/6 55/1/6 57/1/6
f 53/1/6 54/1/6 57/1/6
f 55/1/6 56/1/6 57/1/6
f 50/1/6 51/1/6 57/1/6
f 51/1/6 52/1/6 57/1/6
f 52/1/6 53/1/6 57/1/6
f 49/1/6 50/1/6 57/1/6
f 57/1/6 56/1/6 58/1/6
f 49/1/6 57/1/6 59/1/6
f 57/7/6 58/7/6 59/7/6
f 59/7/6 58/7/6 60/7/6
f 60/7/6 58/7/6 61/7/6
f 61/7/6 58/7/6 62/7/6
f 62/7/6 58/7/6 63/7/6
f 63/7/6 58/7/6 64/7/6
f 64/7/6 58/7/6 65/7/6
f 58/1/6 56/1/6 66/1/6
f 65/7/6 58/7/6 66/7/6
f 60/3/6 61/3/6 67/3/6
f 61/4/6 62/4/6 67/4/6
f 62/3/6 63/3/6 68/3/6
f 67/4/6 62/4/6 68/4/6
f 63/4/6 64/4/6 69/4/6
f 68/3/6 63/3/6 69/3/6
f 64/3/6 65/3/6 70/3/6
f 69/4/6 64/4/6 70/4/6
f 68/3/6 69/3/6 71/3/6
f 59/1/6 60/1/6 71/1/6
f 69/3/6 70/3/6 71/3/6
f 67/3/6 68/3/6 71/3/6
f 60/3/6 67/3/6 71/3/6
f 71/3/6 70/3/6 72/3/6
f 70/3/6 65/3/6 73/3/6
f 72/3/6 70/3/6 73/3/6
f 65/1/6 66/1/6 74/1/6
f 73/3/6 65/3/6 74/3/6
f 71/1/6 72/1/6 75/1/6
f 72/3/6 73/3/6 75/3/6
f 75/3/6 73/3/6 76/3/6
f 76/3/6 73/3/6 77/3/6
f 73/1/6 74/1/6 78/1/6
f 77/3/6 73/3/6 78/3/6
f 75/1/6 76/1/6 79/1/6
f 76/2/6 77/2/6 80/2/6
f 79/1/6 76/1/6 80/1/6
f 77/1/6 78/1/6 81/1/6
f 80/2/6 77/2/6 81/2/6
f 81/1/6 78/1/6 82/1/6
f 79/2/6 80/2/6 83/2/6
f 80/2/6 81/2/6 83/2/6
f 81/2/6 82/2/6 83/2/6
f 83/2/6 82/2/6 84/2/6
f 84/2/6 82/2/6 85/2/6
f 85/2/6 82/2/6 86/2/6
f 75/1/6 79/1/6 87/1/6
f 79/2/6 83/2/6 87/2/6
f 87/2/6 83/2/6 88/2/6
f 83/6/6 84/6/6 89/6/6
f 88/2/6 83/2/6 89/2/6
f 84/2/6 85/2/6 90/2/6
f 89/6/6 84/6/6 90/6/6
f 85/6/6 86/6/6 91/6/6
f 90/2/6 85/2/6 91/2/6
f 86/2/6 82/2/6 92/2/6
f 91/6/6 86/6/6 92/6/6
f 92/2/6 82/2/6 93/2/6
f 82/1/6 78/1/6 94/1/6
f 93/2/6 82/2/6 94/2/6
f 90/2/6 91/2/6 95/2/6
f 92/2/6 93/2/6 95/2/6
f 89/2/6 90/2/6 95/2/6
f 91/2/6 92/2/6 95/2/6
f 87/5/6 88/5/6 95/5/6
f 88/2/6 89/2/6 95/2/6
f 95/2/6 93/2/6 96/2/6
f 96/2/6 93/2/6 97/2/6
f 93/5/6 94/5/6 98/5/6
f 97/2/6 93/2/6 98/2/6
f 96/2/6 97/2/6 99/2/6
f 95/5/6 96/5/6 99/5/6
f 97/5/6 98/5/6 100/5/6
f 99/2/6 97/2/6 100/2/6
f 75/1/6 87/1/6 101/1/6
f 87/5/6 95/5/6 101/5/6
f 99/5/6 100/5/6 101/5/6
f 95/5/6 99/5/6 101/5/6
f 101/5/6 100/5/6 102/5/6
f 98/5/6 94/5/6 103/5/6
f 102/5/6 100/5/6 103/5/6
f 100/5/6 98/5/6 103/5/6
f 94/1/6 78/1/6 104/1/6
f 103/5/6 94/5/6 104/5/6
f 102/5/6 103/5/6 105/5/6
f 101/1/6 102/1/6 105/1/6
f 103/1/6 104/1/6 106/1/6
f 105/5/6 103/5/6 106/5/6
f 21/1/6 49/1/6 107/1/6
f 49/1/6 59/1/6 107/1/6
f 105/1/6 106/1/6 107/1/6
f 75/1/6 101/1/6 107/1/6
f 101/1/6 105/1/6 107/1/6
f 59/1/6 71/1/6 107/1/6
f 71/1/6 75/1/6 107/1/6
f 56/1/6 22/1/6 108/1/6
f 107/1/6 106/1/6 108/1/6
f 106/1/6 104/1/6 108/1/6
f 66/1/6 56/1/6 108/1/6
f 104/1/6 78/1/6 108/1/6
f 78/1/6 74/1/6 108/1/6
f 74/1/6 66/1/6 108/1/6
