# MagicaVoxel @ Ephtracy

# group
o 

# material
mtllib Poster.mtl
usemtl palette

# normals
vn -1 0 0
vn 1 0 0
vn 0 0 1
vn 0 0 -1
vn 0 -1 0
vn 0 1 0

# texcoords
vt 0.00976563 0.5
vt 0.0332031 0.5
vt 0.197266 0.5
vt 0.220703 0.5
vt 0.537109 0.5
vt 0.728516 0.5
vt 0.958984 0.5
vt 0.994141 0.5

# verts
v -1.1 0 1.6
v -1.1 0 -1.6
v -1.1 0.1 1.6
v -1.1 0.1 -1.6
v -1.1 0.2 1.6
v -1.1 0.2 -1.6
v 1.1 0 1.6
v 1.1 0 -1.6
v 1.1 0.1 1.6
v 1.1 0.1 -1.6
v 1.1 0.2 1.6
v 1.1 0.2 -1.6
v -1.1 0 1.6
v -1.1 0.1 1.6
v -1.1 0.2 1.6
v 1.1 0 1.6
v 1.1 0.1 1.6
v 1.1 0.2 1.6
v -1.1 0 -1.6
v -1.1 0.1 -1.6
v -1.1 0.2 -1.6
v 1.1 0 -1.6
v 1.1 0.1 -1.6
v 1.1 0.2 -1.6
v -1.1 0 1.6
v 1.1 0 1.6
v -1.1 0 -1.6
v 1.1 0 -1.6
v -1.1 0.2 1.6
v 1.1 0.2 1.6
v -1 0.2 1.5
v -0.6 0.2 1.5
v -0.5 0.2 1.5
v -0.1 0.2 1.5
v 0 0.2 1.5
v 0.4 0.2 1.5
v 0.7 0.2 1.5
v 0.8 0.2 1.5
v -0.9 0.2 1.4
v -0.6 0.2 1.4
v -0.4 0.2 1.4
v -0.2 0.2 1.4
v 0 0.2 1.4
v 0.3 0.2 1.4
v 0 0.2 1
v 0.3 0.2 1
v 0.1 0.2 0.9
v 0.4 0.2 0.9
v -0.4 0.2 0.6
v -0.2 0.2 0.6
v 0.1 0.2 0.6
v 0.4 0.2 0.6
v 0.5 0.2 0.6
v 0.7 0.2 0.6
v 0.8 0.2 0.6
v 1 0.2 0.6
v -1 0.2 0.5
v -0.9 0.2 0.5
v -0.5 0.2 0.5
v -0.1 0.2 0.5
v 0 0.2 0.5
v 0.4 0.2 0.5
v 0.5 0.2 0.5
v 1 0.2 0.5
v -0.8 0.2 0.4
v 0.8 0.2 0.4
v -0.7 0.2 0.3
v -0.6 0.2 0.3
v -0.4 0.2 0.3
v -0.3 0.2 0.3
v 0.3 0.2 0.3
v 0.4 0.2 0.3
v 0.6 0.2 0.3
v 0.7 0.2 0.3
v -0.4 0.2 -0.1
v -0.3 0.2 -0.1
v 0.3 0.2 -0.1
v 0.4 0.2 -0.1
v -0.6 0.2 -0.3
v -0.5 0.2 -0.3
v 0.5 0.2 -0.3
v 0.6 0.2 -0.3
v -0.5 0.2 -0.4
v -0.2 0.2 -0.4
v 0.2 0.2 -0.4
v 0.5 0.2 -0.4
v -0.3 0.2 -0.5
v -0.2 0.2 -0.5
v 0.2 0.2 -0.5
v 0.3 0.2 -0.5
v -0.4 0.2 -0.6
v -0.3 0.2 -0.6
v 0.3 0.2 -0.6
v 0.4 0.2 -0.6
v -0.2 0.2 -0.7
v -0.1 0.2 -0.7
v 0.1 0.2 -0.7
v 0.2 0.2 -0.7
v -0.4 0.2 -0.8
v -0.3 0.2 -0.8
v -0.2 0.2 -0.8
v -0.1 0.2 -0.8
v 0.1 0.2 -0.8
v 0.2 0.2 -0.8
v 0.3 0.2 -0.8
v 0.4 0.2 -0.8
v -0.3 0.2 -0.9
v -0.2 0.2 -0.9
v 0.2 0.2 -0.9
v 0.3 0.2 -0.9
v -0.2 0.2 -1
v 0.2 0.2 -1
v -0.4 0.2 -1.3
v -0.3 0.2 -1.3
v 0.3 0.2 -1.3
v 0.4 0.2 -1.3
v -0.7 0.2 -1.4
v -0.3 0.2 -1.4
v 0.3 0.2 -1.4
v 0.7 0.2 -1.4
v -0.8 0.2 -1.5
v 0.8 0.2 -1.5
v -1.1 0.2 -1.6
v 1.1 0.2 -1.6

# faces
f 3/7/1 2/7/1 1/7/1
f 4/7/1 2/7/1 3/7/1
f 5/1/1 4/1/1 3/1/1
f 6/1/1 4/1/1 5/1/1
f 7/7/2 8/7/2 9/7/2
f 9/7/2 8/7/2 10/7/2
f 9/1/2 10/1/2 11/1/2
f 11/1/2 10/1/2 12/1/2
f 16/7/3 14/7/3 13/7/3
f 17/1/3 15/1/3 14/1/3
f 17/7/3 14/7/3 16/7/3
f 18/1/3 15/1/3 17/1/3
f 19/7/4 20/7/4 22/7/4
f 20/1/4 21/1/4 23/1/4
f 22/7/4 20/7/4 23/7/4
f 23/1/4 21/1/4 24/1/4
f 27/7/5 26/7/5 25/7/5
f 28/7/5 26/7/5 27/7/5
f 29/1/6 30/1/6 31/1/6
f 31/1/6 30/1/6 32/1/6
f 32/1/6 30/1/6 33/1/6
f 33/1/6 30/1/6 34/1/6
f 34/1/6 30/1/6 35/1/6
f 35/1/6 30/1/6 36/1/6
f 36/1/6 30/1/6 37/1/6
f 37/1/6 30/1/6 38/1/6
f 31/8/6 32/8/6 39/8/6
f 32/1/6 33/1/6 40/1/6
f 39/8/6 32/8/6 40/8/6
f 33/8/6 34/8/6 41/8/6
f 41/8/6 34/8/6 42/8/6
f 34/1/6 35/1/6 43/1/6
f 35/8/6 36/8/6 43/8/6
f 43/8/6 36/8/6 44/8/6
f 34/1/6 43/1/6 45/1/6
f 43/1/6 44/1/6 45/1/6
f 44/8/6 36/8/6 46/8/6
f 45/1/6 44/1/6 46/1/6
f 45/8/6 46/8/6 47/8/6
f 36/1/6 37/1/6 48/1/6
f 47/8/6 46/8/6 48/8/6
f 46/8/6 36/8/6 48/8/6
f 41/1/6 42/1/6 49/1/6
f 33/8/6 41/8/6 49/8/6
f 42/8/6 34/8/6 50/8/6
f 49/1/6 42/1/6 50/1/6
f 45/8/6 47/8/6 51/8/6
f 47/1/6 48/1/6 51/1/6
f 48/1/6 37/1/6 52/1/6
f 51/1/6 48/1/6 52/1/6
f 52/1/6 37/1/6 53/1/6
f 37/8/6 38/8/6 54/8/6
f 53/1/6 37/1/6 54/1/6
f 38/1/6 30/1/6 55/1/6
f 54/8/6 38/8/6 55/8/6
f 55/1/6 30/1/6 56/1/6
f 29/1/6 31/1/6 57/1/6
f 31/8/6 39/8/6 57/8/6
f 39/1/6 40/1/6 58/1/6
f 57/8/6 39/8/6 58/8/6
f 40/1/6 33/1/6 59/1/6
f 58/1/6 40/1/6 59/1/6
f 33/8/6 49/8/6 59/8/6
f 49/8/6 50/8/6 59/8/6
f 50/8/6 34/8/6 60/8/6
f 59/8/6 50/8/6 60/8/6
f 34/1/6 45/1/6 60/1/6
f 45/8/6 51/8/6 61/8/6
f 60/1/6 45/1/6 61/1/6
f 51/8/6 52/8/6 61/8/6
f 52/1/6 53/1/6 62/1/6
f 61/8/6 52/8/6 62/8/6
f 53/8/6 54/8/6 63/8/6
f 62/1/6 53/1/6 63/1/6
f 55/8/6 56/8/6 63/8/6
f 54/8/6 55/8/6 63/8/6
f 56/1/6 30/1/6 64/1/6
f 63/8/6 56/8/6 64/8/6
f 62/1/6 63/1/6 65/1/6
f 61/1/6 62/1/6 65/1/6
f 63/1/6 64/1/6 65/1/6
f 58/1/6 59/1/6 65/1/6
f 59/1/6 60/1/6 65/1/6
f 60/1/6 61/1/6 65/1/6
f 57/1/6 58/1/6 65/1/6
f 65/1/6 64/1/6 66/1/6
f 65/8/6 66/8/6 67/8/6
f 67/8/6 66/8/6 68/8/6
f 68/8/6 66/8/6 69/8/6
f 69/8/6 66/8/6 70/8/6
f 70/8/6 66/8/6 71/8/6
f 71/8/6 66/8/6 72/8/6
f 72/8/6 66/8/6 73/8/6
f 73/8/6 66/8/6 74/8/6
f 68/3/6 69/3/6 75/3/6
f 69/4/6 70/4/6 75/4/6
f 70/3/6 71/3/6 76/3/6
f 75/4/6 70/4/6 76/4/6
f 71/4/6 72/4/6 77/4/6
f 76/3/6 71/3/6 77/3/6
f 72/3/6 73/3/6 78/3/6
f 77/4/6 72/4/6 78/4/6
f 67/7/6 68/7/6 79/7/6
f 68/3/6 75/3/6 79/3/6
f 77/3/6 78/3/6 79/3/6
f 76/3/6 77/3/6 79/3/6
f 75/3/6 76/3/6 79/3/6
f 79/3/6 78/3/6 80/3/6
f 78/3/6 73/3/6 81/3/6
f 80/3/6 78/3/6 81/3/6
f 73/7/6 74/7/6 82/7/6
f 81/3/6 73/3/6 82/3/6
f 79/7/6 80/7/6 83/7/6
f 80/3/6 81/3/6 83/3/6
f 83/3/6 81/3/6 84/3/6
f 84/3/6 81/3/6 85/3/6
f 81/7/6 82/7/6 86/7/6
f 85/3/6 81/3/6 86/3/6
f 83/7/6 84/7/6 87/7/6
f 84/2/6 85/2/6 88/2/6
f 87/7/6 84/7/6 88/7/6
f 85/7/6 86/7/6 89/7/6
f 88/2/6 85/2/6 89/2/6
f 89/7/6 86/7/6 90/7/6
f 83/7/6 87/7/6 91/7/6
f 87/2/6 88/2/6 92/2/6
f 91/7/6 87/7/6 92/7/6
f 88/2/6 89/2/6 92/2/6
f 89/2/6 90/2/6 92/2/6
f 90/7/6 86/7/6 93/7/6
f 92/2/6 90/2/6 93/2/6
f 93/7/6 86/7/6 94/7/6
f 91/2/6 92/2/6 95/2/6
f 92/2/6 93/2/6 95/2/6
f 93/2/6 94/2/6 95/2/6
f 95/2/6 94/2/6 96/2/6
f 96/2/6 94/2/6 97/2/6
f 97/2/6 94/2/6 98/2/6
f 83/7/6 91/7/6 99/7/6
f 91/2/6 95/2/6 99/2/6
f 99/2/6 95/2/6 100/2/6
f 95/6/6 96/6/6 101/6/6
f 100/2/6 95/2/6 101/2/6
f 96/2/6 97/2/6 102/2/6
f 101/6/6 96/6/6 102/6/6
f 97/6/6 98/6/6 103/6/6
f 102/2/6 97/2/6 103/2/6
f 98/2/6 94/2/6 104/2/6
f 103/6/6 98/6/6 104/6/6
f 104/2/6 94/2/6 105/2/6
f 94/7/6 86/7/6 106/7/6
f 105/2/6 94/2/6 106/2/6
f 104/2/6 105/2/6 107/2/6
f 102/2/6 103/2/6 107/2/6
f 101/2/6 102/2/6 107/2/6
f 103/2/6 104/2/6 107/2/6
f 99/5/6 100/5/6 107/5/6
f 100/2/6 101/2/6 107/2/6
f 107/2/6 105/2/6 108/2/6
f 108/2/6 105/2/6 109/2/6
f 105/5/6 106/5/6 110/5/6
f 109/2/6 105/2/6 110/2/6
f 108/2/6 109/2/6 111/2/6
f 107/5/6 108/5/6 111/5/6
f 109/5/6 110/5/6 112/5/6
f 111/2/6 109/2/6 112/2/6
f 83/7/6 99/7/6 113/7/6
f 99/5/6 107/5/6 113/5/6
f 111/5/6 112/5/6 113/5/6
f 107/5/6 111/5/6 113/5/6
f 113/5/6 112/5/6 114/5/6
f 110/5/6 106/5/6 115/5/6
f 114/5/6 112/5/6 115/5/6
f 112/5/6 110/5/6 115/5/6
f 106/7/6 86/7/6 116/7/6
f 115/5/6 106/5/6 116/5/6
f 65/8/6 67/8/6 117/8/6
f 67/7/6 79/7/6 117/7/6
f 79/7/6 83/7/6 117/7/6
f 83/7/6 113/7/6 117/7/6
f 113/7/6 114/7/6 117/7/6
f 114/5/6 115/5/6 118/5/6
f 117/7/6 114/7/6 118/7/6
f 115/7/6 116/7/6 119/7/6
f 118/5/6 115/5/6 119/5/6
f 116/7/6 86/7/6 120/7/6
f 119/7/6 116/7/6 120/7/6
f 82/7/6 74/7/6 120/7/6
f 86/7/6 82/7/6 120/7/6
f 74/8/6 66/8/6 120/8/6
f 57/1/6 65/1/6 121/1/6
f 118/8/6 119/8/6 121/8/6
f 119/8/6 120/8/6 121/8/6
f 65/8/6 117/8/6 121/8/6
f 117/8/6 118/8/6 121/8/6
f 120/8/6 66/8/6 122/8/6
f 121/8/6 120/8/6 122/8/6
f 66/1/6 64/1/6 122/1/6
f 29/1/6 57/1/6 123/1/6
f 57/1/6 121/1/6 123/1/6
f 121/1/6 122/1/6 123/1/6
f 64/1/6 30/1/6 124/1/6
f 123/1/6 122/1/6 124/1/6
f 122/1/6 64/1/6 124/1/6
