# MagicaVoxel @ Ephtracy

# group
o 

# material
mtllib Shop_Sign3.mtl
usemtl palette

# normals
vn -1 0 0
vn 1 0 0
vn 0 0 1
vn 0 0 -1
vn 0 -1 0
vn 0 1 0

# texcoords
vt 0.0175781 0.5
vt 0.181641 0.5
vt 0.841797 0.5
vt 0.845703 0.5

# verts
v -1.1 0 -0.5
v -1.1 0 -0.8
v -1.1 0.1 -0.5
v -1.1 0.1 -0.8
v -1 0 -0.2
v -1 0 -0.5
v -1 0.1 -0.2
v -1 0.1 -0.5
v -0.9 0 0
v -0.9 0 -0.2
v -0.9 0.1 0
v -0.9 0.1 -0.2
v -0.8 0 0.4
v -0.8 0 0.2
v -0.8 0 0
v -0.8 0 -0.7
v -0.8 0 -0.9
v -0.8 0.1 0.4
v -0.8 0.1 0.2
v -0.8 0.1 0
v -0.8 0.1 -0.7
v -0.8 0.1 -0.9
v -0.7 0 0.7
v -0.7 0 0.4
v -0.7 0.1 0.7
v -0.7 0.1 0.4
v -0.6 0 1.1
v -0.6 0 0.7
v -0.6 0.1 1.1
v -0.6 0.1 0.7
v -0.5 0 1.4
v -0.5 0 1.1
v -0.5 0 -0.7
v -0.5 0 -1.1
v -0.5 0.1 1.4
v -0.5 0.1 1.1
v -0.5 0.1 -0.7
v -0.5 0.1 -1.1
v -0.4 0 1.6
v -0.4 0 1.4
v -0.4 0.1 1.6
v -0.4 0.1 1.4
v 0 0 -0.9
v 0 0 -1.1
v 0 0.1 -0.9
v 0 0.1 -1.1
v 0.6 0 -0.8
v 0.6 0 -1
v 0.6 0.1 -0.8
v 0.6 0.1 -1
v 1.1 0 -0.7
v 1.1 0 -0.8
v 1.1 0.1 -0.7
v 1.1 0.1 -0.8
v -0.9 0 -0.7
v -0.9 0 -0.8
v -0.9 0.1 -0.7
v -0.9 0.1 -0.8
v -0.6 0 -0.7
v -0.6 0 -0.9
v -0.6 0.1 -0.7
v -0.6 0.1 -0.9
v -0.3 0 -1
v -0.3 0 -1.1
v -0.3 0.1 -1
v -0.3 0.1 -1.1
v -0.1 0 -0.9
v -0.1 0 -1
v -0.1 0.1 -0.9
v -0.1 0.1 -1
v 0.3 0 -0.9
v 0.3 0 -1.1
v 0.3 0.1 -0.9
v 0.3 0.1 -1.1
v 0.5 0 -0.8
v 0.5 0 -0.9
v 0.5 0.1 -0.8
v 0.5 0.1 -0.9
v 0.6 0 1.6
v 0.6 0 1.4
v 0.6 0.1 1.6
v 0.6 0.1 1.4
v 0.7 0 1.4
v 0.7 0 1.1
v 0.7 0.1 1.4
v 0.7 0.1 1.1
v 0.8 0 1.1
v 0.8 0 0.7
v 0.8 0.1 1.1
v 0.8 0.1 0.7
v 0.9 0 0.7
v 0.9 0 0.4
v 0.9 0 -0.8
v 0.9 0 -1
v 0.9 0.1 0.7
v 0.9 0.1 0.4
v 0.9 0.1 -0.8
v 0.9 0.1 -1
v 1 0 0.4
v 1 0 0.2
v 1 0 0
v 1 0 -0.7
v 1 0 -0.8
v 1 0.1 0.4
v 1 0.1 0.2
v 1 0.1 0
v 1 0.1 -0.7
v 1 0.1 -0.8
v 1.1 0 0
v 1.1 0 -0.2
v 1.1 0.1 0
v 1.1 0.1 -0.2
v 1.2 0 -0.2
v 1.2 0 -0.5
v 1.2 0 -0.7
v 1.2 0 -0.8
v 1.2 0.1 -0.2
v 1.2 0.1 -0.5
v 1.2 0.1 -0.7
v 1.2 0.1 -0.8
v 1.3 0 -0.5
v 1.3 0 -0.7
v 1.3 0.1 -0.5
v 1.3 0.1 -0.7
v -0.4 0 1.6
v -0.4 0.1 1.6
v 0.6 0 1.6
v 0.6 0.1 1.6
v -0.5 0 1.4
v -0.5 0.1 1.4
v -0.4 0 1.4
v -0.4 0.1 1.4
v 0.6 0 1.4
v 0.6 0.1 1.4
v 0.7 0 1.4
v 0.7 0.1 1.4
v -0.6 0 1.1
v -0.6 0.1 1.1
v -0.5 0 1.1
v -0.5 0.1 1.1
v 0.7 0 1.1
v 0.7 0.1 1.1
v 0.8 0 1.1
v 0.8 0.1 1.1
v -0.7 0 0.7
v -0.7 0.1 0.7
v -0.6 0 0.7
v -0.6 0.1 0.7
v 0.8 0 0.7
v 0.8 0.1 0.7
v 0.9 0 0.7
v 0.9 0.1 0.7
v -0.8 0 0.4
v -0.8 0.1 0.4
v -0.7 0 0.4
v -0.7 0.1 0.4
v 0.9 0 0.4
v 0.9 0.1 0.4
v 1 0 0.4
v 1 0.1 0.4
v -0.9 0 0
v -0.9 0.1 0
v -0.8 0 0
v -0.8 0.1 0
v 1 0 0
v 1 0.1 0
v 1.1 0 0
v 1.1 0.1 0
v -1 0 -0.2
v -1 0.1 -0.2
v -0.9 0 -0.2
v -0.9 0.1 -0.2
v 1.1 0 -0.2
v 1.1 0.1 -0.2
v 1.2 0 -0.2
v 1.2 0.1 -0.2
v -1.1 0 -0.5
v -1.1 0.1 -0.5
v -1 0 -0.5
v -1 0.1 -0.5
v 1.2 0 -0.5
v 1.2 0.1 -0.5
v 1.3 0 -0.5
v 1.3 0.1 -0.5
v -0.9 0 -0.7
v -0.9 0.1 -0.7
v -0.8 0 -0.7
v -0.8 0.1 -0.7
v -0.6 0 -0.7
v -0.6 0.1 -0.7
v -0.5 0 -0.7
v -0.5 0.1 -0.7
v 1 0 -0.7
v 1 0.1 -0.7
v 1.1 0 -0.7
v 1.1 0.1 -0.7
v 1.2 0 -0.7
v 1.2 0.1 -0.7
v 1.3 0 -0.7
v 1.3 0.1 -0.7
v -1.1 0 -0.8
v -1.1 0.1 -0.8
v -0.9 0 -0.8
v -0.9 0.1 -0.8
v 0.5 0 -0.8
v 0.5 0.1 -0.8
v 0.6 0 -0.8
v 0.6 0.1 -0.8
v 0.9 0 -0.8
v 0.9 0.1 -0.8
v 1 0 -0.8
v 1 0.1 -0.8
v 1.1 0 -0.8
v 1.1 0.1 -0.8
v 1.2 0 -0.8
v 1.2 0.1 -0.8
v -0.8 0 -0.9
v -0.8 0.1 -0.9
v -0.6 0 -0.9
v -0.6 0.1 -0.9
v -0.1 0 -0.9
v -0.1 0.1 -0.9
v 0 0 -0.9
v 0 0.1 -0.9
v 0.3 0 -0.9
v 0.3 0.1 -0.9
v 0.5 0 -0.9
v 0.5 0.1 -0.9
v -0.3 0 -1
v -0.3 0.1 -1
v -0.1 0 -1
v -0.1 0.1 -1
v 0.6 0 -1
v 0.6 0.1 -1
v 0.9 0 -1
v 0.9 0.1 -1
v -0.5 0 -1.1
v -0.5 0.1 -1.1
v -0.3 0 -1.1
v -0.3 0.1 -1.1
v 0 0 -1.1
v 0 0.1 -1.1
v 0.3 0 -1.1
v 0.3 0.1 -1.1
v -0.4 0 1.6
v 0.6 0 1.6
v -0.3 0 1.5
v 0.5 0 1.5
v -0.5 0 1.4
v -0.4 0 1.4
v -0.3 0 1.4
v 0.5 0 1.4
v 0.6 0 1.4
v 0.7 0 1.4
v -0.6 0 1.1
v -0.5 0 1.1
v -0.4 0 1.1
v -0.2 0 1.1
v 0 0 1.1
v 0.1 0 1.1
v 0.3 0 1.1
v 0.6 0 1.1
v 0.7 0 1.1
v 0.8 0 1.1
v -0.3 0 1
v -0.2 0 1
v 0 0 1
v 0.1 0 1
v 0.3 0 1
v 0.4 0 1
v -0.7 0 0.7
v -0.6 0 0.7
v -0.5 0 0.7
v 0.7 0 0.7
v 0.8 0 0.7
v 0.9 0 0.7
v 0 0 0.6
v 0.1 0 0.6
v -0.3 0 0.5
v -0.2 0 0.5
v 0.3 0 0.5
v 0.4 0 0.5
v -0.8 0 0.4
v -0.7 0 0.4
v -0.6 0 0.4
v 0.8 0 0.4
v 0.9 0 0.4
v 1 0 0.4
v -0.7 0 0.3
v 0.9 0 0.3
v -0.8 0 0.2
v -0.5 0 0.2
v -0.4 0 0.2
v -0.2 0 0.2
v -0.1 0 0.2
v 0.1 0 0.2
v 0.2 0 0.2
v 0.4 0 0.2
v 0.7 0 0.2
v 1 0 0.2
v 0.4 0 0.1
v 0.5 0 0.1
v -0.9 0 0
v -0.8 0 0
v -0.6 0 0
v -0.5 0 0
v 0.2 0 0
v 0.3 0 0
v 0.7 0 0
v 0.8 0 0
v 1 0 0
v 1.1 0 0
v 0.5 0 -0.1
v 0.6 0 -0.1
v -1 0 -0.2
v -0.9 0 -0.2
v -0.7 0 -0.2
v -0.6 0 -0.2
v 0.1 0 -0.2
v 0.2 0 -0.2
v 0.6 0 -0.2
v 0.7 0 -0.2
v 0.8 0 -0.2
v 0.9 0 -0.2
v 1.1 0 -0.2
v 1.2 0 -0.2
v 0.3 0 -0.3
v 0.4 0 -0.3
v -0.5 0 -0.4
v -0.4 0 -0.4
v -1.1 0 -0.5
v -1 0 -0.5
v -0.8 0 -0.5
v -0.7 0 -0.5
v -0.3 0 -0.5
v -0.2 0 -0.5
v 0.4 0 -0.5
v 0.5 0 -0.5
v 0.7 0 -0.5
v 0.8 0 -0.5
v 0.9 0 -0.5
v 1 0 -0.5
v 1.2 0 -0.5
v 1.3 0 -0.5
v -0.1 0 -0.6
v 0 0 -0.6
v -0.9 0 -0.7
v -0.8 0 -0.7
v -0.6 0 -0.7
v -0.5 0 -0.7
v 0.2 0 -0.7
v 0.3 0 -0.7
v 0.8 0 -0.7
v 0.9 0 -0.7
v 1 0 -0.7
v 1.1 0 -0.7
v 1.2 0 -0.7
v 1.3 0 -0.7
v -1.1 0 -0.8
v -0.9 0 -0.8
v 0.5 0 -0.8
v 0.6 0 -0.8
v 0.9 0 -0.8
v 1 0 -0.8
v 1.1 0 -0.8
v 1.2 0 -0.8
v -0.8 0 -0.9
v -0.6 0 -0.9
v -0.1 0 -0.9
v 0 0 -0.9
v 0.3 0 -0.9
v 0.5 0 -0.9
v -0.3 0 -1
v -0.1 0 -1
v 0.6 0 -1
v 0.9 0 -1
v -0.5 0 -1.1
v -0.3 0 -1.1
v 0 0 -1.1
v 0.3 0 -1.1
v -0.4 0.1 1.6
v 0.6 0.1 1.6
v -0.3 0.1 1.5
v 0.5 0.1 1.5
v -0.5 0.1 1.4
v -0.4 0.1 1.4
v -0.3 0.1 1.4
v 0.5 0.1 1.4
v 0.6 0.1 1.4
v 0.7 0.1 1.4
v -0.6 0.1 1.1
v -0.5 0.1 1.1
v -0.4 0.1 1.1
v -0.2 0.1 1.1
v 0 0.1 1.1
v 0.1 0.1 1.1
v 0.3 0.1 1.1
v 0.6 0.1 1.1
v 0.7 0.1 1.1
v 0.8 0.1 1.1
v -0.3 0.1 1
v -0.2 0.1 1
v 0 0.1 1
v 0.1 0.1 1
v 0.3 0.1 1
v 0.4 0.1 1
v -0.7 0.1 0.7
v -0.6 0.1 0.7
v -0.5 0.1 0.7
v 0.7 0.1 0.7
v 0.8 0.1 0.7
v 0.9 0.1 0.7
v 0 0.1 0.6
v 0.1 0.1 0.6
v -0.3 0.1 0.5
v -0.2 0.1 0.5
v 0.3 0.1 0.5
v 0.4 0.1 0.5
v -0.8 0.1 0.4
v -0.7 0.1 0.4
v -0.6 0.1 0.4
v 0.8 0.1 0.4
v 0.9 0.1 0.4
v 1 0.1 0.4
v -0.7 0.1 0.3
v 0.9 0.1 0.3
v -0.8 0.1 0.2
v -0.5 0.1 0.2
v -0.4 0.1 0.2
v -0.2 0.1 0.2
v -0.1 0.1 0.2
v 0.1 0.1 0.2
v 0.2 0.1 0.2
v 0.4 0.1 0.2
v 0.7 0.1 0.2
v 1 0.1 0.2
v 0.4 0.1 0.1
v 0.5 0.1 0.1
v -0.9 0.1 0
v -0.8 0.1 0
v -0.6 0.1 0
v -0.5 0.1 0
v 0.2 0.1 0
v 0.3 0.1 0
v 0.7 0.1 0
v 0.8 0.1 0
v 1 0.1 0
v 1.1 0.1 0
v 0.5 0.1 -0.1
v 0.6 0.1 -0.1
v -1 0.1 -0.2
v -0.9 0.1 -0.2
v -0.7 0.1 -0.2
v -0.6 0.1 -0.2
v 0.1 0.1 -0.2
v 0.2 0.1 -0.2
v 0.6 0.1 -0.2
v 0.7 0.1 -0.2
v 0.8 0.1 -0.2
v 0.9 0.1 -0.2
v 1.1 0.1 -0.2
v 1.2 0.1 -0.2
v 0.3 0.1 -0.3
v 0.4 0.1 -0.3
v -0.5 0.1 -0.4
v -0.4 0.1 -0.4
v -1.1 0.1 -0.5
v -1 0.1 -0.5
v -0.8 0.1 -0.5
v -0.7 0.1 -0.5
v -0.3 0.1 -0.5
v -0.2 0.1 -0.5
v 0.4 0.1 -0.5
v 0.5 0.1 -0.5
v 0.7 0.1 -0.5
v 0.8 0.1 -0.5
v 0.9 0.1 -0.5
v 1 0.1 -0.5
v 1.2 0.1 -0.5
v 1.3 0.1 -0.5
v -0.1 0.1 -0.6
v 0 0.1 -0.6
v -0.9 0.1 -0.7
v -0.8 0.1 -0.7
v -0.6 0.1 -0.7
v -0.5 0.1 -0.7
v 0.2 0.1 -0.7
v 0.3 0.1 -0.7
v 0.8 0.1 -0.7
v 0.9 0.1 -0.7
v 1 0.1 -0.7
v 1.1 0.1 -0.7
v 1.2 0.1 -0.7
v 1.3 0.1 -0.7
v -1.1 0.1 -0.8
v -0.9 0.1 -0.8
v 0.5 0.1 -0.8
v 0.6 0.1 -0.8
v 0.9 0.1 -0.8
v 1 0.1 -0.8
v 1.1 0.1 -0.8
v 1.2 0.1 -0.8
v -0.8 0.1 -0.9
v -0.6 0.1 -0.9
v -0.1 0.1 -0.9
v 0 0.1 -0.9
v 0.3 0.1 -0.9
v 0.5 0.1 -0.9
v -0.3 0.1 -1
v -0.1 0.1 -1
v 0.6 0.1 -1
v 0.9 0.1 -1
v -0.5 0.1 -1.1
v -0.3 0.1 -1.1
v 0 0.1 -1.1
v 0.3 0.1 -1.1

# faces
f 3/1/1 2/1/1 1/1/1
f 4/1/1 2/1/1 3/1/1
f 7/1/1 6/1/1 5/1/1
f 8/1/1 6/1/1 7/1/1
f 11/1/1 10/1/1 9/1/1
f 12/1/1 10/1/1 11/1/1
f 18/4/1 14/4/1 13/4/1
f 19/1/1 15/1/1 14/1/1
f 19/4/1 14/4/1 18/4/1
f 20/1/1 15/1/1 19/1/1
f 21/2/1 17/2/1 16/2/1
f 22/2/1 17/2/1 21/2/1
f 25/4/1 24/4/1 23/4/1
f 26/4/1 24/4/1 25/4/1
f 29/4/1 28/4/1 27/4/1
f 30/4/1 28/4/1 29/4/1
f 35/4/1 32/4/1 31/4/1
f 36/4/1 32/4/1 35/4/1
f 37/1/1 34/1/1 33/1/1
f 38/1/1 34/1/1 37/1/1
f 41/4/1 40/4/1 39/4/1
f 42/4/1 40/4/1 41/4/1
f 45/1/1 44/1/1 43/1/1
f 46/1/1 44/1/1 45/1/1
f 49/1/1 48/1/1 47/1/1
f 50/1/1 48/1/1 49/1/1
f 53/1/1 52/1/1 51/1/1
f 54/1/1 52/1/1 53/1/1
f 55/1/2 56/1/2 57/1/2
f 57/1/2 56/1/2 58/1/2
f 59/2/2 60/2/2 61/2/2
f 61/2/2 60/2/2 62/2/2
f 63/1/2 64/1/2 65/1/2
f 65/1/2 64/1/2 66/1/2
f 67/2/2 68/2/2 69/2/2
f 69/2/2 68/2/2 70/2/2
f 71/1/2 72/1/2 73/1/2
f 73/1/2 72/1/2 74/1/2
f 75/2/2 76/2/2 77/2/2
f 77/2/2 76/2/2 78/2/2
f 79/4/2 80/4/2 81/4/2
f 81/4/2 80/4/2 82/4/2
f 83/4/2 84/4/2 85/4/2
f 85/4/2 84/4/2 86/4/2
f 87/4/2 88/4/2 89/4/2
f 89/4/2 88/4/2 90/4/2
f 91/4/2 92/4/2 95/4/2
f 95/4/2 92/4/2 96/4/2
f 93/1/2 94/1/2 97/1/2
f 97/1/2 94/1/2 98/1/2
f 99/4/2 100/4/2 104/4/2
f 100/1/2 101/1/2 105/1/2
f 104/4/2 100/4/2 105/4/2
f 105/1/2 101/1/2 106/1/2
f 102/2/2 103/2/2 107/2/2
f 107/2/2 103/2/2 108/2/2
f 109/1/2 110/1/2 111/1/2
f 111/1/2 110/1/2 112/1/2
f 113/1/2 114/1/2 117/1/2
f 117/1/2 114/1/2 118/1/2
f 115/1/2 116/1/2 119/1/2
f 119/1/2 116/1/2 120/1/2
f 121/1/2 122/1/2 123/1/2
f 123/1/2 122/1/2 124/1/2
f 127/4/3 126/4/3 125/4/3
f 128/4/3 126/4/3 127/4/3
f 131/4/3 130/4/3 129/4/3
f 132/4/3 130/4/3 131/4/3
f 135/4/3 134/4/3 133/4/3
f 136/4/3 134/4/3 135/4/3
f 139/4/3 138/4/3 137/4/3
f 140/4/3 138/4/3 139/4/3
f 143/4/3 142/4/3 141/4/3
f 144/4/3 142/4/3 143/4/3
f 147/4/3 146/4/3 145/4/3
f 148/4/3 146/4/3 147/4/3
f 151/4/3 150/4/3 149/4/3
f 152/4/3 150/4/3 151/4/3
f 155/4/3 154/4/3 153/4/3
f 156/4/3 154/4/3 155/4/3
f 159/4/3 158/4/3 157/4/3
f 160/4/3 158/4/3 159/4/3
f 163/1/3 162/1/3 161/1/3
f 164/1/3 162/1/3 163/1/3
f 167/1/3 166/1/3 165/1/3
f 168/1/3 166/1/3 167/1/3
f 171/1/3 170/1/3 169/1/3
f 172/1/3 170/1/3 171/1/3
f 175/1/3 174/1/3 173/1/3
f 176/1/3 174/1/3 175/1/3
f 179/1/3 178/1/3 177/1/3
f 180/1/3 178/1/3 179/1/3
f 183/1/3 182/1/3 181/1/3
f 184/1/3 182/1/3 183/1/3
f 185/1/4 186/1/4 187/1/4
f 187/1/4 186/1/4 188/1/4
f 189/2/4 190/2/4 191/2/4
f 191/2/4 190/2/4 192/2/4
f 193/1/4 194/1/4 195/1/4
f 195/1/4 194/1/4 196/1/4
f 197/1/4 198/1/4 199/1/4
f 199/1/4 198/1/4 200/1/4
f 201/1/4 202/1/4 203/1/4
f 203/1/4 202/1/4 204/1/4
f 205/1/4 206/1/4 207/1/4
f 207/1/4 206/1/4 208/1/4
f 209/2/4 210/2/4 211/2/4
f 211/2/4 210/2/4 212/2/4
f 213/1/4 214/1/4 215/1/4
f 215/1/4 214/1/4 216/1/4
f 217/2/4 218/2/4 219/2/4
f 219/2/4 218/2/4 220/2/4
f 221/2/4 222/2/4 223/2/4
f 223/2/4 222/2/4 224/2/4
f 225/2/4 226/2/4 227/2/4
f 227/2/4 226/2/4 228/2/4
f 229/2/4 230/2/4 231/2/4
f 231/2/4 230/2/4 232/2/4
f 233/1/4 234/1/4 235/1/4
f 235/1/4 234/1/4 236/1/4
f 237/1/4 238/1/4 239/1/4
f 239/1/4 238/1/4 240/1/4
f 241/1/4 242/1/4 243/1/4
f 243/1/4 242/1/4 244/1/4
f 247/4/5 246/4/5 245/4/5
f 248/4/5 246/4/5 247/4/5
f 250/4/5 247/4/5 245/4/5
f 251/3/5 248/3/5 247/3/5
f 251/4/5 247/4/5 250/4/5
f 252/4/5 246/4/5 248/4/5
f 252/3/5 248/3/5 251/3/5
f 253/4/5 246/4/5 252/4/5
f 256/4/5 250/4/5 249/4/5
f 257/3/5 251/3/5 250/3/5
f 257/3/5 252/3/5 251/3/5
f 257/4/5 250/4/5 256/4/5
f 257/3/5 253/3/5 252/3/5
f 258/3/5 253/3/5 257/3/5
f 259/3/5 253/3/5 258/3/5
f 260/3/5 253/3/5 259/3/5
f 261/3/5 253/3/5 260/3/5
f 262/4/5 254/4/5 253/4/5
f 262/3/5 253/3/5 261/3/5
f 263/4/5 254/4/5 262/4/5
f 265/3/5 257/3/5 256/3/5
f 265/3/5 258/3/5 257/3/5
f 266/1/5 259/1/5 258/1/5
f 266/3/5 258/3/5 265/3/5
f 267/3/5 260/3/5 259/3/5
f 267/1/5 259/1/5 266/1/5
f 268/1/5 261/1/5 260/1/5
f 268/3/5 260/3/5 267/3/5
f 269/3/5 263/3/5 262/3/5
f 269/1/5 261/1/5 268/1/5
f 269/3/5 262/3/5 261/3/5
f 270/3/5 263/3/5 269/3/5
f 272/4/5 256/4/5 255/4/5
f 273/3/5 265/3/5 256/3/5
f 273/4/5 256/4/5 272/4/5
f 274/3/5 263/3/5 270/3/5
f 274/4/5 264/4/5 263/4/5
f 275/4/5 264/4/5 274/4/5
f 277/3/5 267/3/5 266/3/5
f 277/1/5 268/1/5 267/1/5
f 278/3/5 269/3/5 268/3/5
f 278/1/5 268/1/5 277/1/5
f 279/3/5 265/3/5 273/3/5
f 279/3/5 273/3/5 272/3/5
f 279/1/5 266/1/5 265/1/5
f 280/3/5 278/3/5 277/3/5
f 280/1/5 266/1/5 279/1/5
f 280/3/5 277/3/5 266/3/5
f 281/3/5 269/3/5 278/3/5
f 281/3/5 278/3/5 280/3/5
f 281/1/5 270/1/5 269/1/5
f 282/3/5 275/3/5 274/3/5
f 282/1/5 270/1/5 281/1/5
f 282/3/5 274/3/5 270/3/5
f 284/4/5 272/4/5 271/4/5
f 285/3/5 280/3/5 279/3/5
f 285/3/5 279/3/5 272/3/5
f 285/4/5 272/4/5 284/4/5
f 285/3/5 281/3/5 280/3/5
f 285/3/5 282/3/5 281/3/5
f 286/4/5 276/4/5 275/4/5
f 286/3/5 282/3/5 285/3/5
f 286/3/5 275/3/5 282/3/5
f 287/4/5 276/4/5 286/4/5
f 289/4/5 284/4/5 283/4/5
f 289/3/5 285/3/5 284/3/5
f 289/3/5 287/3/5 286/3/5
f 289/3/5 286/3/5 285/3/5
f 290/4/5 288/4/5 287/4/5
f 290/3/5 287/3/5 289/3/5
f 291/4/5 289/4/5 283/4/5
f 291/4/5 290/4/5 289/4/5
f 292/4/5 290/4/5 291/4/5
f 293/4/5 290/4/5 292/4/5
f 294/4/5 290/4/5 293/4/5
f 295/4/5 290/4/5 294/4/5
f 296/4/5 290/4/5 295/4/5
f 297/4/5 290/4/5 296/4/5
f 298/4/5 290/4/5 297/4/5
f 299/4/5 290/4/5 298/4/5
f 300/4/5 288/4/5 290/4/5
f 300/4/5 290/4/5 299/4/5
f 301/2/5 299/2/5 298/2/5
f 301/1/5 298/1/5 297/1/5
f 302/2/5 299/2/5 301/2/5
f 304/1/5 292/1/5 291/1/5
f 305/1/5 292/1/5 304/1/5
f 306/2/5 293/2/5 292/2/5
f 306/1/5 292/1/5 305/1/5
f 307/2/5 297/2/5 296/2/5
f 307/1/5 301/1/5 297/1/5
f 307/1/5 302/1/5 301/1/5
f 308/1/5 302/1/5 307/1/5
f 309/2/5 299/2/5 302/2/5
f 309/1/5 300/1/5 299/1/5
f 310/1/5 300/1/5 309/1/5
f 311/1/5 300/1/5 310/1/5
f 313/1/5 302/1/5 308/1/5
f 313/2/5 309/2/5 302/2/5
f 313/2/5 310/2/5 309/2/5
f 314/2/5 310/2/5 313/2/5
f 316/1/5 305/1/5 304/1/5
f 316/1/5 304/1/5 303/1/5
f 317/1/5 305/1/5 316/1/5
f 318/2/5 306/2/5 305/2/5
f 318/1/5 305/1/5 317/1/5
f 319/1/5 296/1/5 295/1/5
f 319/2/5 308/2/5 307/2/5
f 319/2/5 307/2/5 296/2/5
f 320/2/5 308/2/5 319/2/5
f 321/2/5 310/2/5 314/2/5
f 321/1/5 314/1/5 313/1/5
f 322/2/5 310/2/5 321/2/5
f 323/1/5 311/1/5 310/1/5
f 323/2/5 310/2/5 322/2/5
f 323/1/5 312/1/5 311/1/5
f 324/1/5 312/1/5 323/1/5
f 325/1/5 312/1/5 324/1/5
f 327/1/5 322/1/5 321/1/5
f 327/1/5 321/1/5 313/1/5
f 327/2/5 308/2/5 320/2/5
f 327/1/5 313/1/5 308/1/5
f 328/1/5 322/1/5 327/1/5
f 329/2/5 306/2/5 318/2/5
f 329/2/5 293/2/5 306/2/5
f 329/2/5 318/2/5 317/2/5
f 330/1/5 294/1/5 293/1/5
f 330/2/5 293/2/5 329/2/5
f 332/1/5 317/1/5 316/1/5
f 332/1/5 316/1/5 315/1/5
f 333/1/5 317/1/5 332/1/5
f 334/2/5 329/2/5 317/2/5
f 334/1/5 317/1/5 333/1/5
f 335/1/5 294/1/5 330/1/5
f 335/1/5 330/1/5 329/1/5
f 336/2/5 295/2/5 294/2/5
f 336/1/5 294/1/5 335/1/5
f 337/1/5 322/1/5 328/1/5
f 337/2/5 328/2/5 327/2/5
f 338/1/5 322/1/5 337/1/5
f 339/2/5 324/2/5 323/2/5
f 339/1/5 322/1/5 338/1/5
f 339/2/5 323/2/5 322/2/5
f 340/2/5 324/2/5 339/2/5
f 341/1/5 326/1/5 325/1/5
f 341/2/5 324/2/5 340/2/5
f 341/1/5 325/1/5 324/1/5
f 342/1/5 326/1/5 341/1/5
f 343/1/5 326/1/5 342/1/5
f 345/2/5 295/2/5 336/2/5
f 345/2/5 336/2/5 335/2/5
f 345/1/5 320/1/5 319/1/5
f 345/1/5 319/1/5 295/1/5
f 346/1/5 320/1/5 345/1/5
f 347/1/5 333/1/5 332/1/5
f 347/1/5 332/1/5 331/1/5
f 348/2/5 334/2/5 333/2/5
f 348/1/5 333/1/5 347/1/5
f 349/2/5 329/2/5 334/2/5
f 349/2/5 334/2/5 348/2/5
f 350/1/5 335/1/5 329/1/5
f 350/2/5 329/2/5 349/2/5
f 351/2/5 338/2/5 337/2/5
f 351/1/5 320/1/5 346/1/5
f 351/2/5 327/2/5 320/2/5
f 351/2/5 337/2/5 327/2/5
f 352/2/5 338/2/5 351/2/5
f 353/1/5 340/1/5 339/1/5
f 353/1/5 339/1/5 338/1/5
f 353/2/5 342/2/5 341/2/5
f 353/2/5 341/2/5 340/2/5
f 354/2/5 342/2/5 353/2/5
f 355/1/5 344/1/5 343/1/5
f 355/2/5 342/2/5 354/2/5
f 355/1/5 343/1/5 342/1/5
f 356/1/5 344/1/5 355/1/5
f 357/1/5 344/1/5 356/1/5
f 358/1/5 344/1/5 357/1/5
f 359/1/5 347/1/5 331/1/5
f 360/1/5 347/1/5 359/1/5
f 361/2/5 338/2/5 352/2/5
f 361/1/5 354/1/5 353/1/5
f 361/1/5 353/1/5 338/1/5
f 362/1/5 354/1/5 361/1/5
f 363/2/5 355/2/5 354/2/5
f 363/1/5 354/1/5 362/1/5
f 364/2/5 355/2/5 363/2/5
f 365/1/5 357/1/5 356/1/5
f 366/1/5 357/1/5 365/1/5
f 367/2/5 349/2/5 348/2/5
f 368/2/5 349/2/5 367/2/5
f 369/2/5 345/2/5 335/2/5
f 369/2/5 346/2/5 345/2/5
f 370/1/5 352/1/5 351/1/5
f 370/2/5 346/2/5 369/2/5
f 370/1/5 351/1/5 346/1/5
f 371/2/5 361/2/5 352/2/5
f 371/1/5 352/1/5 370/1/5
f 372/2/5 361/2/5 371/2/5
f 373/2/5 369/2/5 335/2/5
f 373/1/5 335/1/5 350/1/5
f 374/2/5 369/2/5 373/2/5
f 375/1/5 363/1/5 362/1/5
f 376/1/5 363/1/5 375/1/5
f 377/1/5 373/1/5 350/1/5
f 378/1/5 373/1/5 377/1/5
f 379/1/5 371/1/5 370/1/5
f 380/1/5 371/1/5 379/1/5
f 381/4/6 382/4/6 383/4/6
f 383/4/6 382/4/6 384/4/6
f 381/4/6 383/4/6 386/4/6
f 383/3/6 384/3/6 387/3/6
f 386/4/6 383/4/6 387/4/6
f 384/4/6 382/4/6 388/4/6
f 387/3/6 384/3/6 388/3/6
f 388/4/6 382/4/6 389/4/6
f 385/4/6 386/4/6 392/4/6
f 386/3/6 387/3/6 393/3/6
f 387/3/6 388/3/6 393/3/6
f 392/4/6 386/4/6 393/4/6
f 388/3/6 389/3/6 393/3/6
f 393/3/6 389/3/6 394/3/6
f 394/3/6 389/3/6 395/3/6
f 395/3/6 389/3/6 396/3/6
f 396/3/6 389/3/6 397/3/6
f 389/4/6 390/4/6 398/4/6
f 397/3/6 389/3/6 398/3/6
f 398/4/6 390/4/6 399/4/6
f 392/3/6 393/3/6 401/3/6
f 393/3/6 394/3/6 401/3/6
f 394/1/6 395/1/6 402/1/6
f 401/3/6 394/3/6 402/3/6
f 395/3/6 396/3/6 403/3/6
f 402/1/6 395/1/6 403/1/6
f 396/1/6 397/1/6 404/1/6
f 403/3/6 396/3/6 404/3/6
f 398/3/6 399/3/6 405/3/6
f 404/1/6 397/1/6 405/1/6
f 397/3/6 398/3/6 405/3/6
f 405/3/6 399/3/6 406/3/6
f 391/4/6 392/4/6 408/4/6
f 392/3/6 401/3/6 409/3/6
f 408/4/6 392/4/6 409/4/6
f 406/3/6 399/3/6 410/3/6
f 399/4/6 400/4/6 410/4/6
f 410/4/6 400/4/6 411/4/6
f 402/3/6 403/3/6 413/3/6
f 403/1/6 404/1/6 413/1/6
f 404/3/6 405/3/6 414/3/6
f 413/1/6 404/1/6 414/1/6
f 409/3/6 401/3/6 415/3/6
f 408/3/6 409/3/6 415/3/6
f 401/1/6 402/1/6 415/1/6
f 413/3/6 414/3/6 416/3/6
f 415/1/6 402/1/6 416/1/6
f 402/3/6 413/3/6 416/3/6
f 414/3/6 405/3/6 417/3/6
f 416/3/6 414/3/6 417/3/6
f 405/1/6 406/1/6 417/1/6
f 410/3/6 411/3/6 418/3/6
f 417/1/6 406/1/6 418/1/6
f 406/3/6 410/3/6 418/3/6
f 407/4/6 408/4/6 420/4/6
f 415/3/6 416/3/6 421/3/6
f 408/3/6 415/3/6 421/3/6
f 420/4/6 408/4/6 421/4/6
f 416/3/6 417/3/6 421/3/6
f 417/3/6 418/3/6 421/3/6
f 411/4/6 412/4/6 422/4/6
f 421/3/6 418/3/6 422/3/6
f 418/3/6 411/3/6 422/3/6
f 422/4/6 412/4/6 423/4/6
f 419/4/6 420/4/6 425/4/6
f 420/3/6 421/3/6 425/3/6
f 422/3/6 423/3/6 425/3/6
f 421/3/6 422/3/6 425/3/6
f 423/4/6 424/4/6 426/4/6
f 425/3/6 423/3/6 426/3/6
f 419/4/6 425/4/6 427/4/6
f 425/4/6 426/4/6 427/4/6
f 427/4/6 426/4/6 428/4/6
f 428/4/6 426/4/6 429/4/6
f 429/4/6 426/4/6 430/4/6
f 430/4/6 426/4/6 431/4/6
f 431/4/6 426/4/6 432/4/6
f 432/4/6 426/4/6 433/4/6
f 433/4/6 426/4/6 434/4/6
f 434/4/6 426/4/6 435/4/6
f 426/4/6 424/4/6 436/4/6
f 435/4/6 426/4/6 436/4/6
f 434/2/6 435/2/6 437/2/6
f 433/1/6 434/1/6 437/1/6
f 437/2/6 435/2/6 438/2/6
f 427/1/6 428/1/6 440/1/6
f 440/1/6 428/1/6 441/1/6
f 428/2/6 429/2/6 442/2/6
f 441/1/6 428/1/6 442/1/6
f 432/2/6 433/2/6 443/2/6
f 433/1/6 437/1/6 443/1/6
f 437/1/6 438/1/6 443/1/6
f 443/1/6 438/1/6 444/1/6
f 438/2/6 435/2/6 445/2/6
f 435/1/6 436/1/6 445/1/6
f 445/1/6 436/1/6 446/1/6
f 446/1/6 436/1/6 447/1/6
f 444/1/6 438/1/6 449/1/6
f 438/2/6 445/2/6 449/2/6
f 445/2/6 446/2/6 449/2/6
f 449/2/6 446/2/6 450/2/6
f 440/1/6 441/1/6 452/1/6
f 439/1/6 440/1/6 452/1/6
f 452/1/6 441/1/6 453/1/6
f 441/2/6 442/2/6 454/2/6
f 453/1/6 441/1/6 454/1/6
f 431/1/6 432/1/6 455/1/6
f 443/2/6 444/2/6 455/2/6
f 432/2/6 443/2/6 455/2/6
f 455/2/6 444/2/6 456/2/6
f 450/2/6 446/2/6 457/2/6
f 449/1/6 450/1/6 457/1/6
f 457/2/6 446/2/6 458/2/6
f 446/1/6 447/1/6 459/1/6
f 458/2/6 446/2/6 459/2/6
f 447/1/6 448/1/6 459/1/6
f 459/1/6 448/1/6 460/1/6
f 460/1/6 448/1/6 461/1/6
f 457/1/6 458/1/6 463/1/6
f 449/1/6 457/1/6 463/1/6
f 456/2/6 444/2/6 463/2/6
f 444/1/6 449/1/6 463/1/6
f 463/1/6 458/1/6 464/1/6
f 454/2/6 442/2/6 465/2/6
f 442/2/6 429/2/6 465/2/6
f 453/2/6 454/2/6 465/2/6
f 429/1/6 430/1/6 466/1/6
f 465/2/6 429/2/6 466/2/6
f 452/1/6 453/1/6 468/1/6
f 451/1/6 452/1/6 468/1/6
f 468/1/6 453/1/6 469/1/6
f 453/2/6 465/2/6 470/2/6
f 469/1/6 453/1/6 470/1/6
f 466/1/6 430/1/6 471/1/6
f 465/1/6 466/1/6 471/1/6
f 430/2/6 431/2/6 472/2/6
f 471/1/6 430/1/6 472/1/6
f 464/1/6 458/1/6 473/1/6
f 463/2/6 464/2/6 473/2/6
f 473/1/6 458/1/6 474/1/6
f 459/2/6 460/2/6 475/2/6
f 474/1/6 458/1/6 475/1/6
f 458/2/6 459/2/6 475/2/6
f 475/2/6 460/2/6 476/2/6
f 461/1/6 462/1/6 477/1/6
f 476/2/6 460/2/6 477/2/6
f 460/1/6 461/1/6 477/1/6
f 477/1/6 462/1/6 478/1/6
f 478/1/6 462/1/6 479/1/6
f 472/2/6 431/2/6 481/2/6
f 471/2/6 472/2/6 481/2/6
f 455/1/6 456/1/6 481/1/6
f 431/1/6 455/1/6 481/1/6
f 481/1/6 456/1/6 482/1/6
f 468/1/6 469/1/6 483/1/6
f 467/1/6 468/1/6 483/1/6
f 469/2/6 470/2/6 484/2/6
f 483/1/6 469/1/6 484/1/6
f 470/2/6 465/2/6 485/2/6
f 484/2/6 470/2/6 485/2/6
f 465/1/6 471/1/6 486/1/6
f 485/2/6 465/2/6 486/2/6
f 473/2/6 474/2/6 487/2/6
f 482/1/6 456/1/6 487/1/6
f 456/2/6 463/2/6 487/2/6
f 463/2/6 473/2/6 487/2/6
f 487/2/6 474/2/6 488/2/6
f 475/1/6 476/1/6 489/1/6
f 474/1/6 475/1/6 489/1/6
f 477/2/6 478/2/6 489/2/6
f 476/2/6 477/2/6 489/2/6
f 489/2/6 478/2/6 490/2/6
f 479/1/6 480/1/6 491/1/6
f 490/2/6 478/2/6 491/2/6
f 478/1/6 479/1/6 491/1/6
f 491/1/6 480/1/6 492/1/6
f 492/1/6 480/1/6 493/1/6
f 493/1/6 480/1/6 494/1/6
f 467/1/6 483/1/6 495/1/6
f 495/1/6 483/1/6 496/1/6
f 488/2/6 474/2/6 497/2/6
f 489/1/6 490/1/6 497/1/6
f 474/1/6 489/1/6 497/1/6
f 497/1/6 490/1/6 498/1/6
f 490/2/6 491/2/6 499/2/6
f 498/1/6 490/1/6 499/1/6
f 499/2/6 491/2/6 500/2/6
f 492/1/6 493/1/6 501/1/6
f 501/1/6 493/1/6 502/1/6
f 484/2/6 485/2/6 503/2/6
f 503/2/6 485/2/6 504/2/6
f 471/2/6 481/2/6 505/2/6
f 481/2/6 482/2/6 505/2/6
f 487/1/6 488/1/6 506/1/6
f 505/2/6 482/2/6 506/2/6
f 482/1/6 487/1/6 506/1/6
f 488/2/6 497/2/6 507/2/6
f 506/1/6 488/1/6 507/1/6
f 507/2/6 497/2/6 508/2/6
f 471/2/6 505/2/6 509/2/6
f 486/1/6 471/1/6 509/1/6
f 509/2/6 505/2/6 510/2/6
f 498/1/6 499/1/6 511/1/6
f 511/1/6 499/1/6 512/1/6
f 486/1/6 509/1/6 513/1/6
f 513/1/6 509/1/6 514/1/6
f 506/1/6 507/1/6 515/1/6
f 515/1/6 507/1/6 516/1/6
