# MagicaVoxel @ Ephtracy

# group
o 

# material
mtllib Supermarket_Sign.mtl
usemtl palette

# normals
vn -1 0 0
vn 1 0 0
vn 0 0 1
vn 0 0 -1
vn 0 -1 0
vn 0 1 0

# texcoords
vt 0.294922 0.5
vt 0.830078 0.5

# verts
v -2.5 1 -2.3
v -2.5 1 -2.5
v -2.5 1.1 -2.3
v -2.5 1.1 -2.5
v -2.5 4 -2.3
v -2.5 4 -2.5
v -2.5 4.1 -2.3
v -2.5 4.1 -2.5
v 2.5 1 -2.3
v 2.5 1 -2.5
v 2.5 1.1 -2.3
v 2.5 1.1 -2.5
v 2.5 4 -2.3
v 2.5 4 -2.5
v 2.5 4.1 -2.3
v 2.5 4.1 -2.5
v -2.5 1 -2.3
v -2.5 1.1 -2.3
v -2.5 4 -2.3
v -2.5 4.1 -2.3
v -2.3 1.3 -2.3
v -2.3 2.4 -2.3
v -2.3 2.7 -2.3
v -2.3 2.9 -2.3
v -2.3 3.2 -2.3
v -2.3 3.8 -2.3
v -2.2 1.3 -2.3
v -2.2 2.2 -2.3
v -2.2 2.3 -2.3
v -2.2 2.4 -2.3
v -2.2 2.8 -2.3
v -2.2 2.9 -2.3
v -2.2 3.3 -2.3
v -2.2 3.7 -2.3
v -2.1 2 -2.3
v -2.1 2.2 -2.3
v -2.1 2.3 -2.3
v -2 1.9 -2.3
v -2 2 -2.3
v -2 2.2 -2.3
v -1.9 1.9 -2.3
v -1.9 2 -2.3
v -1.9 2.2 -2.3
v -1.9 2.8 -2.3
v -1.9 3.2 -2.3
v -1.9 3.6 -2.3
v -1.9 3.7 -2.3
v -1.8 2 -2.3
v -1.8 2.2 -2.3
v -1.8 2.3 -2.3
v -1.8 2.7 -2.3
v -1.8 3.3 -2.3
v -1.8 3.6 -2.3
v -1.8 3.8 -2.3
v -1.7 1.3 -2.3
v -1.7 2.2 -2.3
v -1.7 2.3 -2.3
v -1.7 2.4 -2.3
v -1.6 1.3 -2.3
v -1.6 2.4 -2.3
v -1.6 2.7 -2.3
v -1.6 3.8 -2.3
v -1.5 2.8 -2.3
v -1.5 3.8 -2.3
v -1.4 1.3 -2.3
v -1.4 2.3 -2.3
v -1.3 1.3 -2.3
v -1.3 1.8 -2.3
v -1.3 1.9 -2.3
v -1.3 2.2 -2.3
v -1.3 2.3 -2.3
v -1.3 2.4 -2.3
v -1.2 2.2 -2.3
v -1.2 2.3 -2.3
v -1.1 2.8 -2.3
v -1.1 3.8 -2.3
v -1 2.2 -2.3
v -1 2.3 -2.3
v -1 2.7 -2.3
v -1 3.8 -2.3
v -0.9 1.3 -2.3
v -0.9 1.8 -2.3
v -0.9 1.9 -2.3
v -0.9 2.2 -2.3
v -0.9 2.3 -2.3
v -0.9 2.4 -2.3
v -0.8 1.3 -2.3
v -0.8 2.3 -2.3
v -0.8 2.7 -2.3
v -0.8 3.8 -2.3
v -0.7 2.7 -2.3
v -0.7 3.2 -2.3
v -0.7 3.3 -2.3
v -0.7 3.7 -2.3
v -0.6 1.3 -2.3
v -0.6 2.4 -2.3
v -0.5 1.3 -2.3
v -0.5 1.8 -2.3
v -0.5 1.9 -2.3
v -0.5 2.3 -2.3
v -0.3 3.2 -2.3
v -0.3 3.3 -2.3
v -0.3 3.7 -2.3
v -0.3 3.8 -2.3
v -0.2 3.3 -2.3
v -0.2 3.7 -2.3
v -0.0999999 1.3 -2.3
v -0.0999999 1.8 -2.3
v -0.0999999 1.9 -2.3
v -0.0999999 2.3 -2.3
v -0.0999999 2.4 -2.3
v 2.38419e-007 1.4 -2.3
v 2.38419e-007 1.8 -2.3
v 2.38419e-007 1.9 -2.3
v 2.38419e-007 2.3 -2.3
v 2.38419e-007 2.7 -2.3
v 2.38419e-007 3.8 -2.3
v 0.1 1.3 -2.3
v 0.1 1.4 -2.3
v 0.1 2.8 -2.3
v 0.1 3.2 -2.3
v 0.1 3.3 -2.3
v 0.1 3.7 -2.3
v 0.3 1.3 -2.3
v 0.3 2.4 -2.3
v 0.4 1.3 -2.3
v 0.4 1.8 -2.3
v 0.4 1.9 -2.3
v 0.4 2.4 -2.3
v 0.5 1.7 -2.3
v 0.5 1.8 -2.3
v 0.5 1.9 -2.3
v 0.5 2 -2.3
v 0.5 3.2 -2.3
v 0.5 3.3 -2.3
v 0.6 1.6 -2.3
v 0.6 1.7 -2.3
v 0.6 1.8 -2.3
v 0.6 1.9 -2.3
v 0.6 2 -2.3
v 0.6 2.1 -2.3
v 0.6 2.7 -2.3
v 0.6 2.8 -2.3
v 0.6 3.7 -2.3
v 0.6 3.8 -2.3
v 0.7 1.5 -2.3
v 0.7 1.6 -2.3
v 0.7 1.7 -2.3
v 0.7 2 -2.3
v 0.7 2.1 -2.3
v 0.7 2.2 -2.3
v 0.8 1.3 -2.3
v 0.8 1.5 -2.3
v 0.8 1.6 -2.3
v 0.8 2.1 -2.3
v 0.8 2.2 -2.3
v 0.8 2.4 -2.3
v 0.8 2.7 -2.3
v 0.8 3.8 -2.3
v 0.9 1.3 -2.3
v 0.9 1.5 -2.3
v 0.9 2.2 -2.3
v 0.9 2.4 -2.3
v 0.9 2.7 -2.3
v 0.9 3.2 -2.3
v 0.9 3.3 -2.3
v 0.9 3.7 -2.3
v 1.1 1.3 -2.3
v 1.1 2.4 -2.3
v 1.2 1.4 -2.3
v 1.2 1.8 -2.3
v 1.2 1.9 -2.3
v 1.2 2.3 -2.3
v 1.3 2.7 -2.3
v 1.3 3.2 -2.3
v 1.3 3.3 -2.3
v 1.3 3.7 -2.3
v 1.3 3.8 -2.3
v 1.4 2.8 -2.3
v 1.4 3.2 -2.3
v 1.4 3.3 -2.3
v 1.4 3.7 -2.3
v 1.5 1.8 -2.3
v 1.5 1.9 -2.3
v 1.5 2.7 -2.3
v 1.5 2.8 -2.3
v 1.6 1.3 -2.3
v 1.6 1.4 -2.3
v 1.6 2.3 -2.3
v 1.6 2.4 -2.3
v 1.7 3.2 -2.3
v 1.7 3.3 -2.3
v 1.8 2.3 -2.3
v 1.8 2.4 -2.3
v 2 1.3 -2.3
v 2 2.3 -2.3
v 2.1 1.3 -2.3
v 2.1 2.3 -2.3
v 2.3 2.3 -2.3
v 2.3 2.4 -2.3
v 2.3 3.2 -2.3
v 2.3 3.3 -2.3
v 2.5 1 -2.3
v 2.5 1.1 -2.3
v 2.5 4 -2.3
v 2.5 4.1 -2.3
v -2.5 1 -2.5
v -2.5 1.1 -2.5
v -2.5 4 -2.5
v -2.5 4.1 -2.5
v 2.5 1 -2.5
v 2.5 1.1 -2.5
v 2.5 4 -2.5
v 2.5 4.1 -2.5
v -2.5 1 -2.3
v 2.5 1 -2.3
v -2.5 1 -2.5
v 2.5 1 -2.5
v -2.5 4.1 -2.3
v 2.5 4.1 -2.3
v -2.5 4.1 -2.5
v 2.5 4.1 -2.5

# faces
f 3/1/1 2/1/1 1/1/1
f 4/1/1 2/1/1 3/1/1
f 5/2/1 4/2/1 3/2/1
f 6/2/1 4/2/1 5/2/1
f 7/1/1 6/1/1 5/1/1
f 8/1/1 6/1/1 7/1/1
f 9/1/2 10/1/2 11/1/2
f 11/1/2 10/1/2 12/1/2
f 11/2/2 12/2/2 13/2/2
f 13/2/2 12/2/2 14/2/2
f 13/1/2 14/1/2 15/1/2
f 15/1/2 14/1/2 16/1/2
f 21/2/3 19/2/3 18/2/3
f 22/2/3 19/2/3 21/2/3
f 23/2/3 19/2/3 22/2/3
f 24/2/3 19/2/3 23/2/3
f 25/2/3 19/2/3 24/2/3
f 26/2/3 19/2/3 25/2/3
f 27/2/3 21/2/3 18/2/3
f 27/1/3 22/1/3 21/1/3
f 28/1/3 22/1/3 27/1/3
f 29/1/3 22/1/3 28/1/3
f 30/2/3 23/2/3 22/2/3
f 30/1/3 22/1/3 29/1/3
f 31/1/3 24/1/3 23/1/3
f 32/2/3 25/2/3 24/2/3
f 32/1/3 24/1/3 31/1/3
f 33/1/3 26/1/3 25/1/3
f 34/1/3 26/1/3 33/1/3
f 35/2/3 28/2/3 27/2/3
f 36/1/3 29/1/3 28/1/3
f 36/2/3 28/2/3 35/2/3
f 37/2/3 30/2/3 29/2/3
f 37/1/3 29/1/3 36/1/3
f 38/2/3 35/2/3 27/2/3
f 39/1/3 36/1/3 35/1/3
f 39/2/3 35/2/3 38/2/3
f 40/2/3 37/2/3 36/2/3
f 40/1/3 36/1/3 39/1/3
f 41/2/3 38/2/3 27/2/3
f 41/1/3 39/1/3 38/1/3
f 42/2/3 40/2/3 39/2/3
f 42/1/3 39/1/3 41/1/3
f 43/2/3 37/2/3 40/2/3
f 43/2/3 40/2/3 42/2/3
f 44/1/3 31/1/3 23/1/3
f 44/2/3 32/2/3 31/2/3
f 45/2/3 25/2/3 32/2/3
f 45/2/3 32/2/3 44/2/3
f 45/1/3 33/1/3 25/1/3
f 46/2/3 34/2/3 33/2/3
f 47/1/3 26/1/3 34/1/3
f 47/2/3 34/2/3 46/2/3
f 48/2/3 42/2/3 41/2/3
f 48/1/3 43/1/3 42/1/3
f 49/2/3 37/2/3 43/2/3
f 49/1/3 43/1/3 48/1/3
f 50/2/3 30/2/3 37/2/3
f 50/2/3 37/2/3 49/2/3
f 51/1/3 44/1/3 23/1/3
f 51/2/3 30/2/3 50/2/3
f 51/2/3 23/2/3 30/2/3
f 51/1/3 45/1/3 44/1/3
f 52/1/3 33/1/3 45/1/3
f 52/1/3 45/1/3 51/1/3
f 52/2/3 46/2/3 33/2/3
f 53/1/3 47/1/3 46/1/3
f 53/2/3 46/2/3 52/2/3
f 54/2/3 19/2/3 26/2/3
f 54/1/3 47/1/3 53/1/3
f 54/1/3 26/1/3 47/1/3
f 55/2/3 49/2/3 48/2/3
f 55/2/3 48/2/3 41/2/3
f 55/2/3 27/2/3 18/2/3
f 55/2/3 41/2/3 27/2/3
f 56/1/3 50/1/3 49/1/3
f 56/2/3 49/2/3 55/2/3
f 57/2/3 53/2/3 52/2/3
f 57/1/3 50/1/3 56/1/3
f 57/2/3 51/2/3 50/2/3
f 57/2/3 52/2/3 51/2/3
f 57/2/3 54/2/3 53/2/3
f 58/2/3 54/2/3 57/2/3
f 59/1/3 56/1/3 55/1/3
f 59/2/3 55/2/3 18/2/3
f 59/1/3 58/1/3 57/1/3
f 59/1/3 57/1/3 56/1/3
f 60/2/3 54/2/3 58/2/3
f 60/1/3 58/1/3 59/1/3
f 61/2/3 54/2/3 60/2/3
f 62/2/3 19/2/3 54/2/3
f 62/2/3 54/2/3 61/2/3
f 63/1/3 62/1/3 61/1/3
f 64/2/3 19/2/3 62/2/3
f 64/1/3 62/1/3 63/1/3
f 65/2/3 59/2/3 18/2/3
f 65/2/3 61/2/3 60/2/3
f 65/2/3 60/2/3 59/2/3
f 66/2/3 61/2/3 65/2/3
f 67/2/3 65/2/3 18/2/3
f 67/1/3 66/1/3 65/1/3
f 68/1/3 66/1/3 67/1/3
f 69/1/3 66/1/3 68/1/3
f 70/1/3 66/1/3 69/1/3
f 71/2/3 61/2/3 66/2/3
f 71/1/3 66/1/3 70/1/3
f 72/2/3 61/2/3 71/2/3
f 73/2/3 70/2/3 69/2/3
f 73/1/3 71/1/3 70/1/3
f 73/1/3 72/1/3 71/1/3
f 74/1/3 72/1/3 73/1/3
f 75/2/3 64/2/3 63/2/3
f 75/1/3 63/1/3 61/1/3
f 76/2/3 19/2/3 64/2/3
f 76/2/3 64/2/3 75/2/3
f 77/2/3 74/2/3 73/2/3
f 77/2/3 73/2/3 69/2/3
f 78/1/3 72/1/3 74/1/3
f 78/2/3 74/2/3 77/2/3
f 79/1/3 75/1/3 61/1/3
f 79/2/3 61/2/3 72/2/3
f 79/1/3 76/1/3 75/1/3
f 80/2/3 19/2/3 76/2/3
f 80/1/3 76/1/3 79/1/3
f 81/2/3 67/2/3 18/2/3
f 81/2/3 68/2/3 67/2/3
f 82/1/3 69/1/3 68/1/3
f 82/2/3 68/2/3 81/2/3
f 83/2/3 77/2/3 69/2/3
f 83/1/3 69/1/3 82/1/3
f 84/1/3 78/1/3 77/1/3
f 84/2/3 77/2/3 83/2/3
f 85/1/3 72/1/3 78/1/3
f 85/1/3 78/1/3 84/1/3
f 86/2/3 79/2/3 72/2/3
f 86/1/3 72/1/3 85/1/3
f 86/2/3 80/2/3 79/2/3
f 87/1/3 84/1/3 83/1/3
f 87/1/3 82/1/3 81/1/3
f 87/1/3 85/1/3 84/1/3
f 87/2/3 81/2/3 18/2/3
f 87/1/3 83/1/3 82/1/3
f 88/2/3 86/2/3 85/2/3
f 88/1/3 85/1/3 87/1/3
f 89/2/3 80/2/3 86/2/3
f 89/2/3 86/2/3 88/2/3
f 90/2/3 19/2/3 80/2/3
f 90/2/3 80/2/3 89/2/3
f 91/2/3 88/2/3 87/2/3
f 91/2/3 89/2/3 88/2/3
f 91/1/3 90/1/3 89/1/3
f 92/1/3 90/1/3 91/1/3
f 93/1/3 90/1/3 92/1/3
f 94/1/3 90/1/3 93/1/3
f 95/2/3 87/2/3 18/2/3
f 95/2/3 91/2/3 87/2/3
f 95/2/3 92/2/3 91/2/3
f 96/2/3 92/2/3 95/2/3
f 97/2/3 95/2/3 18/2/3
f 97/1/3 96/1/3 95/1/3
f 98/1/3 96/1/3 97/1/3
f 99/1/3 96/1/3 98/1/3
f 100/1/3 96/1/3 99/1/3
f 101/1/3 93/1/3 92/1/3
f 101/2/3 92/2/3 96/2/3
f 102/2/3 94/2/3 93/2/3
f 102/1/3 93/1/3 101/1/3
f 103/1/3 90/1/3 94/1/3
f 103/2/3 94/2/3 102/2/3
f 104/2/3 19/2/3 90/2/3
f 104/1/3 90/1/3 103/1/3
f 105/1/3 103/1/3 102/1/3
f 105/2/3 102/2/3 101/2/3
f 106/2/3 104/2/3 103/2/3
f 106/1/3 103/1/3 105/1/3
f 107/2/3 97/2/3 18/2/3
f 107/2/3 98/2/3 97/2/3
f 108/1/3 99/1/3 98/1/3
f 108/2/3 98/2/3 107/2/3
f 109/2/3 100/2/3 99/2/3
f 109/1/3 99/1/3 108/1/3
f 110/1/3 96/1/3 100/1/3
f 110/2/3 100/2/3 109/2/3
f 111/2/3 105/2/3 101/2/3
f 111/1/3 96/1/3 110/1/3
f 111/2/3 101/2/3 96/2/3
f 111/2/3 106/2/3 105/2/3
f 112/1/3 108/1/3 107/1/3
f 113/2/3 109/2/3 108/2/3
f 113/1/3 108/1/3 112/1/3
f 114/1/3 110/1/3 109/1/3
f 114/2/3 109/2/3 113/2/3
f 115/2/3 111/2/3 110/2/3
f 115/1/3 110/1/3 114/1/3
f 116/2/3 106/2/3 111/2/3
f 116/2/3 111/2/3 115/2/3
f 117/2/3 19/2/3 104/2/3
f 117/2/3 106/2/3 116/2/3
f 117/2/3 104/2/3 106/2/3
f 118/2/3 107/2/3 18/2/3
f 118/1/3 112/1/3 107/1/3
f 119/2/3 116/2/3 115/2/3
f 119/1/3 112/1/3 118/1/3
f 119/2/3 113/2/3 112/2/3
f 119/2/3 114/2/3 113/2/3
f 119/2/3 115/2/3 114/2/3
f 120/1/3 117/1/3 116/1/3
f 121/1/3 117/1/3 120/1/3
f 122/1/3 117/1/3 121/1/3
f 123/1/3 117/1/3 122/1/3
f 124/2/3 118/2/3 18/2/3
f 124/2/3 119/2/3 118/2/3
f 125/2/3 116/2/3 119/2/3
f 125/2/3 119/2/3 124/2/3
f 126/2/3 124/2/3 18/2/3
f 126/1/3 125/1/3 124/1/3
f 127/1/3 125/1/3 126/1/3
f 128/1/3 125/1/3 127/1/3
f 129/2/3 116/2/3 125/2/3
f 129/1/3 125/1/3 128/1/3
f 130/2/3 127/2/3 126/2/3
f 131/1/3 128/1/3 127/1/3
f 131/2/3 127/2/3 130/2/3
f 132/2/3 129/2/3 128/2/3
f 132/1/3 128/1/3 131/1/3
f 133/2/3 129/2/3 132/2/3
f 134/2/3 121/2/3 120/2/3
f 134/1/3 122/1/3 121/1/3
f 135/2/3 123/2/3 122/2/3
f 135/1/3 122/1/3 134/1/3
f 136/2/3 130/2/3 126/2/3
f 137/1/3 131/1/3 130/1/3
f 137/2/3 130/2/3 136/2/3
f 138/2/3 132/2/3 131/2/3
f 138/1/3 131/1/3 137/1/3
f 139/1/3 133/1/3 132/1/3
f 139/2/3 132/2/3 138/2/3
f 140/2/3 129/2/3 133/2/3
f 140/1/3 133/1/3 139/1/3
f 141/2/3 129/2/3 140/2/3
f 142/1/3 120/1/3 116/1/3
f 142/2/3 129/2/3 141/2/3
f 142/2/3 116/2/3 129/2/3
f 143/2/3 134/2/3 120/2/3
f 143/1/3 120/1/3 142/1/3
f 143/2/3 135/2/3 134/2/3
f 144/1/3 117/1/3 123/1/3
f 144/2/3 135/2/3 143/2/3
f 144/2/3 123/2/3 135/2/3
f 145/2/3 19/2/3 117/2/3
f 145/1/3 117/1/3 144/1/3
f 146/2/3 136/2/3 126/2/3
f 147/1/3 137/1/3 136/1/3
f 147/2/3 136/2/3 146/2/3
f 148/2/3 139/2/3 138/2/3
f 148/1/3 137/1/3 147/1/3
f 148/2/3 138/2/3 137/2/3
f 148/2/3 140/2/3 139/2/3
f 149/1/3 141/1/3 140/1/3
f 149/2/3 140/2/3 148/2/3
f 150/2/3 143/2/3 142/2/3
f 150/1/3 141/1/3 149/1/3
f 150/2/3 144/2/3 143/2/3
f 150/2/3 142/2/3 141/2/3
f 150/2/3 145/2/3 144/2/3
f 151/2/3 145/2/3 150/2/3
f 152/2/3 146/2/3 126/2/3
f 152/2/3 126/2/3 18/2/3
f 153/1/3 147/1/3 146/1/3
f 153/2/3 146/2/3 152/2/3
f 154/2/3 149/2/3 148/2/3
f 154/1/3 147/1/3 153/1/3
f 154/2/3 148/2/3 147/2/3
f 154/2/3 150/2/3 149/2/3
f 155/1/3 151/1/3 150/1/3
f 155/2/3 150/2/3 154/2/3
f 156/2/3 145/2/3 151/2/3
f 156/1/3 151/1/3 155/1/3
f 157/2/3 145/2/3 156/2/3
f 158/2/3 145/2/3 157/2/3
f 159/2/3 19/2/3 145/2/3
f 159/2/3 145/2/3 158/2/3
f 160/1/3 153/1/3 152/1/3
f 160/2/3 152/2/3 18/2/3
f 161/2/3 155/2/3 154/2/3
f 161/1/3 153/1/3 160/1/3
f 161/2/3 154/2/3 153/2/3
f 161/2/3 156/2/3 155/2/3
f 162/1/3 157/1/3 156/1/3
f 162/2/3 156/2/3 161/2/3
f 163/2/3 158/2/3 157/2/3
f 163/1/3 157/1/3 162/1/3
f 164/1/3 159/1/3 158/1/3
f 164/2/3 158/2/3 163/2/3
f 165/1/3 159/1/3 164/1/3
f 166/1/3 159/1/3 165/1/3
f 167/1/3 159/1/3 166/1/3
f 168/2/3 160/2/3 18/2/3
f 168/2/3 162/2/3 161/2/3
f 168/2/3 161/2/3 160/2/3
f 168/2/3 163/2/3 162/2/3
f 168/2/3 165/2/3 164/2/3
f 168/2/3 164/2/3 163/2/3
f 169/2/3 165/2/3 168/2/3
f 170/1/3 169/1/3 168/1/3
f 171/1/3 169/1/3 170/1/3
f 172/1/3 169/1/3 171/1/3
f 173/1/3 169/1/3 172/1/3
f 174/2/3 165/2/3 169/2/3
f 175/1/3 166/1/3 165/1/3
f 175/2/3 165/2/3 174/2/3
f 176/2/3 167/2/3 166/2/3
f 176/1/3 166/1/3 175/1/3
f 177/1/3 159/1/3 167/1/3
f 177/2/3 167/2/3 176/2/3
f 178/2/3 19/2/3 159/2/3
f 178/1/3 159/1/3 177/1/3
f 179/1/3 175/1/3 174/1/3
f 180/2/3 176/2/3 175/2/3
f 180/1/3 175/1/3 179/1/3
f 181/1/3 177/1/3 176/1/3
f 181/2/3 176/2/3 180/2/3
f 182/2/3 178/2/3 177/2/3
f 182/1/3 177/1/3 181/1/3
f 183/2/3 171/2/3 170/2/3
f 183/1/3 172/1/3 171/1/3
f 184/2/3 173/2/3 172/2/3
f 184/1/3 172/1/3 183/1/3
f 185/1/3 179/1/3 174/1/3
f 185/2/3 174/2/3 169/2/3
f 186/2/3 180/2/3 179/2/3
f 186/1/3 179/1/3 185/1/3
f 186/2/3 182/2/3 181/2/3
f 186/2/3 181/2/3 180/2/3
f 187/2/3 168/2/3 18/2/3
f 187/1/3 170/1/3 168/1/3
f 188/2/3 184/2/3 183/2/3
f 188/1/3 170/1/3 187/1/3
f 188/2/3 183/2/3 170/2/3
f 189/2/3 173/2/3 184/2/3
f 189/2/3 184/2/3 188/2/3
f 189/1/3 169/1/3 173/1/3
f 190/2/3 185/2/3 169/2/3
f 190/1/3 169/1/3 189/1/3
f 190/2/3 186/2/3 185/2/3
f 191/2/3 189/2/3 188/2/3
f 191/2/3 186/2/3 190/2/3
f 191/2/3 190/2/3 189/2/3
f 191/2/3 188/2/3 187/2/3
f 191/2/3 182/2/3 186/2/3
f 192/2/3 182/2/3 191/2/3
f 193/2/3 191/2/3 187/2/3
f 194/2/3 191/2/3 193/2/3
f 195/2/3 187/2/3 18/2/3
f 195/2/3 193/2/3 187/2/3
f 196/1/3 194/1/3 193/1/3
f 196/2/3 193/2/3 195/2/3
f 197/2/3 195/2/3 18/2/3
f 197/1/3 196/1/3 195/1/3
f 198/1/3 194/1/3 196/1/3
f 198/1/3 196/1/3 197/1/3
f 199/2/3 198/2/3 197/2/3
f 199/1/3 194/1/3 198/1/3
f 200/2/3 191/2/3 194/2/3
f 200/1/3 194/1/3 199/1/3
f 201/1/3 192/1/3 191/1/3
f 201/2/3 191/2/3 200/2/3
f 202/2/3 182/2/3 192/2/3
f 202/1/3 192/1/3 201/1/3
f 203/1/3 18/1/3 17/1/3
f 204/2/3 199/2/3 197/2/3
f 204/1/3 18/1/3 203/1/3
f 204/2/3 201/2/3 200/2/3
f 204/2/3 202/2/3 201/2/3
f 204/2/3 197/2/3 18/2/3
f 204/2/3 200/2/3 199/2/3
f 205/2/3 182/2/3 202/2/3
f 205/2/3 202/2/3 204/2/3
f 205/1/3 20/1/3 19/1/3
f 205/2/3 19/2/3 178/2/3
f 205/2/3 178/2/3 182/2/3
f 206/1/3 20/1/3 205/1/3
f 207/1/4 208/1/4 211/1/4
f 208/2/4 209/2/4 212/2/4
f 211/1/4 208/1/4 212/1/4
f 209/1/4 210/1/4 213/1/4
f 212/2/4 209/2/4 213/2/4
f 213/1/4 210/1/4 214/1/4
f 217/1/5 216/1/5 215/1/5
f 218/1/5 216/1/5 217/1/5
f 219/1/6 220/1/6 221/1/6
f 221/1/6 220/1/6 222/1/6
