# MagicaVoxel @ Ephtracy

# group
o 

# material
mtllib v_monitor.mtl
usemtl palette

# normals
vn -1 0 0
vn 1 0 0
vn 0 0 1
vn 0 0 -1
vn 0 -1 0
vn 0 1 0

# texcoords
vt 0.841797 0.5
vt 0.904297 0.5
vt 0.935547 0.5
vt 0.986328 0.5
vt 0.994141 0.5

# verts
v -1.2 1 2
v -1.2 1 1.9
v -1.2 2.8 2
v -1.2 2.8 1.9
v -1.1 1.1 1.9
v -1.1 1.1 1.8
v -1.1 2.7 1.9
v -1.1 2.7 1.8
v -0.5 0.6 2
v -0.5 0.6 1.9
v -0.5 0.8 2
v -0.5 0.8 1.9
v -0.0999999 0.8 2
v -0.0999999 0.8 1.9
v -0.0999999 1 2
v -0.0999999 1 1.9
v 0.3 0.8 2
v 0.3 0.8 1.9
v 0.3 1 2
v 0.3 1 1.9
v 0.7 0.6 2
v 0.7 0.6 1.9
v 0.7 0.8 2
v 0.7 0.8 1.9
v 1.3 1.1 1.9
v 1.3 1.1 1.8
v 1.3 2.7 1.9
v 1.3 2.7 1.8
v 1.4 1 2
v 1.4 1 1.9
v 1.4 2.8 2
v 1.4 2.8 1.9
v -1.2 1 2
v -1.2 2.8 2
v -1.1 1.1 2
v -1.1 2.7 2
v -0.5 0.6 2
v -0.5 0.8 2
v -0.0999999 0.8 2
v -0.0999999 1 2
v 0.3 0.8 2
v 0.3 1 2
v 0.7 0.6 2
v 0.7 0.8 2
v 0.8 1 2
v 0.8 1.1 2
v 0.9 1 2
v 0.9 1.1 2
v 1 1 2
v 1 1.1 2
v 1.1 1 2
v 1.1 1.1 2
v 1.2 1 2
v 1.2 1.1 2
v 1.3 1 2
v 1.3 1.1 2
v 1.3 2.7 2
v 1.4 1 2
v 1.4 2.8 2
v -1.2 1 1.9
v -1.2 2.8 1.9
v -1.1 1.1 1.9
v -1.1 2.7 1.9
v -0.5 0.6 1.9
v -0.5 0.8 1.9
v -0.0999999 0.8 1.9
v -0.0999999 1 1.9
v 0.3 0.8 1.9
v 0.3 1 1.9
v 0.7 0.6 1.9
v 0.7 0.8 1.9
v 0.8 1 1.9
v 0.8 1.1 1.9
v 0.9 1 1.9
v 0.9 1.1 1.9
v 1 1 1.9
v 1 1.1 1.9
v 1.1 1 1.9
v 1.1 1.1 1.9
v 1.2 1 1.9
v 1.2 1.1 1.9
v 1.3 1 1.9
v 1.3 1.1 1.9
v 1.3 2.7 1.9
v 1.4 1 1.9
v 1.4 2.8 1.9
v -1.1 1.1 1.8
v -1.1 2.7 1.8
v 1.3 1.1 1.8
v 1.3 2.7 1.8
v -0.5 0.6 2
v 0.7 0.6 2
v -0.5 0.6 1.9
v 0.7 0.6 1.9
v -1.2 1 2
v -0.0999999 1 2
v 0.3 1 2
v 0.8 1 2
v 0.9 1 2
v 1 1 2
v 1.1 1 2
v 1.2 1 2
v 1.3 1 2
v 1.4 1 2
v -1.2 1 1.9
v -0.0999999 1 1.9
v 0.3 1 1.9
v 0.8 1 1.9
v 0.9 1 1.9
v 1 1 1.9
v 1.1 1 1.9
v 1.2 1 1.9
v 1.3 1 1.9
v 1.4 1 1.9
v -1.1 1.1 1.9
v 0.8 1.1 1.9
v 0.9 1.1 1.9
v 1 1.1 1.9
v 1.1 1.1 1.9
v 1.2 1.1 1.9
v 1.3 1.1 1.9
v -1.1 1.1 1.8
v 1.3 1.1 1.8
v -0.5 0.8 2
v -0.0999999 0.8 2
v 0.3 0.8 2
v 0.7 0.8 2
v -0.5 0.8 1.9
v -0.0999999 0.8 1.9
v 0.3 0.8 1.9
v 0.7 0.8 1.9
v -1.1 2.7 1.9
v 1.3 2.7 1.9
v -1.1 2.7 1.8
v 1.3 2.7 1.8
v -1.2 2.8 2
v 1.4 2.8 2
v -1.2 2.8 1.9
v 1.4 2.8 1.9

# faces
f 3/4/1 2/4/1 1/4/1
f 4/4/1 2/4/1 3/4/1
f 7/5/1 6/5/1 5/5/1
f 8/5/1 6/5/1 7/5/1
f 11/4/1 10/4/1 9/4/1
f 12/4/1 10/4/1 11/4/1
f 15/4/1 14/4/1 13/4/1
f 16/4/1 14/4/1 15/4/1
f 17/4/2 18/4/2 19/4/2
f 19/4/2 18/4/2 20/4/2
f 21/4/2 22/4/2 23/4/2
f 23/4/2 22/4/2 24/4/2
f 25/5/2 26/5/2 27/5/2
f 27/5/2 26/5/2 28/5/2
f 29/4/2 30/4/2 31/4/2
f 31/4/2 30/4/2 32/4/2
f 35/4/3 34/4/3 33/4/3
f 36/4/3 34/4/3 35/4/3
f 39/4/3 38/4/3 37/4/3
f 40/4/3 35/4/3 33/4/3
f 41/4/3 39/4/3 37/4/3
f 41/4/3 40/4/3 39/4/3
f 42/4/3 35/4/3 40/4/3
f 42/4/3 40/4/3 41/4/3
f 43/4/3 41/4/3 37/4/3
f 44/4/3 41/4/3 43/4/3
f 45/4/3 35/4/3 42/4/3
f 46/5/3 36/5/3 35/5/3
f 46/4/3 35/4/3 45/4/3
f 47/2/3 46/2/3 45/2/3
f 48/5/3 36/5/3 46/5/3
f 48/2/3 46/2/3 47/2/3
f 49/4/3 48/4/3 47/4/3
f 50/5/3 36/5/3 48/5/3
f 50/4/3 48/4/3 49/4/3
f 51/1/3 50/1/3 49/1/3
f 52/5/3 36/5/3 50/5/3
f 52/1/3 50/1/3 51/1/3
f 53/4/3 52/4/3 51/4/3
f 54/5/3 36/5/3 52/5/3
f 54/4/3 52/4/3 53/4/3
f 55/3/3 54/3/3 53/3/3
f 56/5/3 36/5/3 54/5/3
f 56/3/3 54/3/3 55/3/3
f 57/4/3 34/4/3 36/4/3
f 57/5/3 36/5/3 56/5/3
f 58/4/3 56/4/3 55/4/3
f 58/4/3 57/4/3 56/4/3
f 59/4/3 34/4/3 57/4/3
f 59/4/3 57/4/3 58/4/3
f 60/4/4 61/4/4 62/4/4
f 62/4/4 61/4/4 63/4/4
f 64/4/4 65/4/4 66/4/4
f 60/4/4 62/4/4 67/4/4
f 64/4/4 66/4/4 68/4/4
f 66/4/4 67/4/4 68/4/4
f 67/4/4 62/4/4 69/4/4
f 68/4/4 67/4/4 69/4/4
f 64/4/4 68/4/4 70/4/4
f 70/4/4 68/4/4 71/4/4
f 69/4/4 62/4/4 72/4/4
f 72/4/4 62/4/4 73/4/4
f 72/2/4 73/2/4 74/2/4
f 74/2/4 73/2/4 75/2/4
f 74/4/4 75/4/4 76/4/4
f 76/4/4 75/4/4 77/4/4
f 76/1/4 77/1/4 78/1/4
f 78/1/4 77/1/4 79/1/4
f 78/4/4 79/4/4 80/4/4
f 80/4/4 79/4/4 81/4/4
f 80/3/4 81/3/4 82/3/4
f 82/3/4 81/3/4 83/3/4
f 63/4/4 61/4/4 84/4/4
f 82/4/4 83/4/4 85/4/4
f 83/4/4 84/4/4 85/4/4
f 84/4/4 61/4/4 86/4/4
f 85/4/4 84/4/4 86/4/4
f 87/5/4 88/5/4 89/5/4
f 89/5/4 88/5/4 90/5/4
f 93/4/5 92/4/5 91/4/5
f 94/4/5 92/4/5 93/4/5
f 105/4/5 96/4/5 95/4/5
f 106/4/5 96/4/5 105/4/5
f 107/4/5 98/4/5 97/4/5
f 108/2/5 99/2/5 98/2/5
f 108/4/5 98/4/5 107/4/5
f 109/4/5 100/4/5 99/4/5
f 109/2/5 99/2/5 108/2/5
f 110/1/5 101/1/5 100/1/5
f 110/4/5 100/4/5 109/4/5
f 111/4/5 102/4/5 101/4/5
f 111/1/5 101/1/5 110/1/5
f 112/3/5 103/3/5 102/3/5
f 112/4/5 102/4/5 111/4/5
f 113/4/5 104/4/5 103/4/5
f 113/3/5 103/3/5 112/3/5
f 114/4/5 104/4/5 113/4/5
f 122/5/5 116/5/5 115/5/5
f 122/5/5 121/5/5 120/5/5
f 122/5/5 120/5/5 119/5/5
f 122/5/5 119/5/5 118/5/5
f 122/5/5 118/5/5 117/5/5
f 122/5/5 117/5/5 116/5/5
f 123/5/5 121/5/5 122/5/5
f 124/4/6 125/4/6 128/4/6
f 128/4/6 125/4/6 129/4/6
f 126/4/6 127/4/6 130/4/6
f 130/4/6 127/4/6 131/4/6
f 132/5/6 133/5/6 134/5/6
f 134/5/6 133/5/6 135/5/6
f 136/4/6 137/4/6 138/4/6
f 138/4/6 137/4/6 139/4/6
