# MagicaVoxel @ Ephtracy

# group
o 

# material
mtllib v_scream.mtl
usemtl palette

# normals
vn -1 0 0
vn 1 0 0
vn 0 0 1
vn 0 0 -1
vn 0 -1 0
vn 0 1 0

# texcoords
vt 0.958984 0.5
vt 0.994141 0.5

# verts
v -1.3 2.1 0.7
v -1.3 2.1 0.6
v -1.3 2.8 0.7
v -1.3 2.8 0.6
v -1.2 2 0.7
v -1.2 2 0.6
v -1.2 2.1 0.7
v -1.2 2.1 0.6
v -1.2 2.8 0.7
v -1.2 2.8 0.6
v -1.2 2.9 0.7
v -1.2 2.9 0.6
v -1.1 1.7 0.7
v -1.1 1.7 0.6
v -1.1 2 0.7
v -1.1 2 0.6
v -1.1 2.9 0.7
v -1.1 2.9 0.6
v -1.1 3 0.7
v -1.1 3 0.6
v -1 1.5 0.7
v -1 1.5 0.6
v -1 1.7 0.7
v -1 1.7 0.6
v -1 3 0.7
v -1 3 0.6
v -1 3.1 0.7
v -1 3.1 0.6
v -0.9 1.3 0.7
v -0.9 1.3 0.6
v -0.9 1.5 0.7
v -0.9 1.5 0.6
v -0.9 3.1 0.7
v -0.9 3.1 0.6
v -0.9 3.3 0.7
v -0.9 3.3 0.6
v -0.8 1.2 0.7
v -0.8 1.2 0.6
v -0.8 1.3 0.7
v -0.8 1.3 0.6
v -0.8 3.3 0.7
v -0.8 3.3 0.6
v -0.8 3.4 0.7
v -0.8 3.4 0.6
v -0.7 1 0.7
v -0.7 1 0.6
v -0.7 1.2 0.7
v -0.7 1.2 0.6
v -0.6 0.8 0.7
v -0.6 0.8 0.6
v -0.6 1 0.7
v -0.6 1 0.6
v -0.6 3.4 0.7
v -0.6 3.4 0.6
v -0.6 3.5 0.7
v -0.6 3.5 0.6
v -0.5 0.6 0.7
v -0.5 0.6 0.6
v -0.5 0.8 0.7
v -0.5 0.8 0.6
v -0.4 0.5 0.7
v -0.4 0.5 0.6
v -0.4 0.6 0.7
v -0.4 0.6 0.6
v -0.2 0.3 0.7
v -0.2 0.3 0.6
v -0.2 0.5 0.7
v -0.2 0.5 0.6
v 0.1 0.3 0.7
v 0.1 0.3 0.6
v 0.1 0.4 0.7
v 0.1 0.4 0.6
v 0.2 0.4 0.7
v 0.2 0.4 0.6
v 0.2 0.5 0.7
v 0.2 0.5 0.6
v 0.3 0.5 0.7
v 0.3 0.5 0.6
v 0.3 0.6 0.7
v 0.3 0.6 0.6
v 0.4 0.6 0.7
v 0.4 0.6 0.6
v 0.4 0.8 0.7
v 0.4 0.8 0.6
v 0.5 0.8 0.7
v 0.5 0.8 0.6
v 0.5 0.9 0.7
v 0.5 0.9 0.6
v 0.5 3.4 0.7
v 0.5 3.4 0.6
v 0.5 3.5 0.7
v 0.5 3.5 0.6
v 0.6 0.9 0.7
v 0.6 0.9 0.6
v 0.6 1.1 0.7
v 0.6 1.1 0.6
v 0.6 3.3 0.7
v 0.6 3.3 0.6
v 0.6 3.4 0.7
v 0.6 3.4 0.6
v 0.7 1.1 0.7
v 0.7 1.1 0.6
v 0.7 1.3 0.7
v 0.7 1.3 0.6
v 0.7 3.2 0.7
v 0.7 3.2 0.6
v 0.7 3.3 0.7
v 0.7 3.3 0.6
v 0.8 1.3 0.7
v 0.8 1.3 0.6
v 0.8 1.4 0.7
v 0.8 1.4 0.6
v 0.8 3.1 0.7
v 0.8 3.1 0.6
v 0.8 3.2 0.7
v 0.8 3.2 0.6
v 0.9 1.4 0.7
v 0.9 1.4 0.6
v 0.9 1.6 0.7
v 0.9 1.6 0.6
v 0.9 3 0.7
v 0.9 3 0.6
v 0.9 3.1 0.7
v 0.9 3.1 0.6
v 1 1.6 0.7
v 1 1.6 0.6
v 1 1.8 0.7
v 1 1.8 0.6
v 1 2.8 0.7
v 1 2.8 0.6
v 1 3 0.7
v 1 3 0.6
v 1.1 1.8 0.7
v 1.1 1.8 0.6
v 1.1 2 0.7
v 1.1 2 0.6
v 1.1 2.6 0.7
v 1.1 2.6 0.6
v 1.1 2.8 0.7
v 1.1 2.8 0.6
v 1.2 2 0.7
v 1.2 2 0.6
v 1.2 2.6 0.7
v 1.2 2.6 0.6
v -1.3 2.1 0.7
v -1.3 2.8 0.7
v -1.2 2 0.7
v -1.2 2.1 0.7
v -1.2 2.8 0.7
v -1.2 2.9 0.7
v -1.1 1.7 0.7
v -1.1 2 0.7
v -1.1 2.5 0.7
v -1.1 2.6 0.7
v -1.1 2.9 0.7
v -1.1 3 0.7
v -1 1.5 0.7
v -1 1.7 0.7
v -1 2.4 0.7
v -1 2.5 0.7
v -1 2.6 0.7
v -1 2.7 0.7
v -1 3 0.7
v -1 3.1 0.7
v -0.9 1.3 0.7
v -0.9 1.5 0.7
v -0.9 3.1 0.7
v -0.9 3.3 0.7
v -0.8 1.2 0.7
v -0.8 1.3 0.7
v -0.8 2.4 0.7
v -0.8 2.5 0.7
v -0.8 2.7 0.7
v -0.8 2.8 0.7
v -0.8 3.3 0.7
v -0.8 3.4 0.7
v -0.7 1 0.7
v -0.7 1.2 0.7
v -0.7 2.5 0.7
v -0.7 2.6 0.7
v -0.7 2.8 0.7
v -0.7 2.9 0.7
v -0.6 0.8 0.7
v -0.6 1 0.7
v -0.6 1.6 0.7
v -0.6 1.7 0.7
v -0.6 2.6 0.7
v -0.6 2.7 0.7
v -0.6 2.9 0.7
v -0.6 3 0.7
v -0.6 3.4 0.7
v -0.6 3.5 0.7
v -0.5 0.6 0.7
v -0.5 0.8 0.7
v -0.5 1.4 0.7
v -0.5 1.6 0.7
v -0.5 2.7 0.7
v -0.5 2.8 0.7
v -0.4 0.5 0.7
v -0.4 0.6 0.7
v -0.4 1.1 0.7
v -0.4 1.4 0.7
v -0.4 1.9 0.7
v -0.4 2.1 0.7
v -0.4 2.8 0.7
v -0.4 3 0.7
v -0.3 0.8 0.7
v -0.3 1.1 0.7
v -0.3 2.1 0.7
v -0.3 2.2 0.7
v -0.2 0.3 0.7
v -0.2 0.5 0.7
v -0.2 0.7 0.7
v -0.2 0.8 0.7
v -0.2 1.9 0.7
v -0.2 2 0.7
v -0.2 2.2 0.7
v -0.2 2.3 0.7
v -0.0999999 1.9 0.7
v -0.0999999 2 0.7
v -0.0999999 2.2 0.7
v -0.0999999 2.3 0.7
v 0 0.7 0.7
v 0 0.9 0.7
v 0 2.1 0.7
v 0 2.2 0.7
v 0.1 0.3 0.7
v 0.1 0.4 0.7
v 0.1 0.9 0.7
v 0.1 1 0.7
v 0.1 1.9 0.7
v 0.1 2.1 0.7
v 0.1 2.8 0.7
v 0.1 3 0.7
v 0.2 0.4 0.7
v 0.2 0.5 0.7
v 0.2 1 0.7
v 0.2 1.2 0.7
v 0.2 2.7 0.7
v 0.2 2.8 0.7
v 0.3 0.5 0.7
v 0.3 0.6 0.7
v 0.3 1.2 0.7
v 0.3 1.5 0.7
v 0.3 2.6 0.7
v 0.3 2.7 0.7
v 0.3 2.9 0.7
v 0.3 3 0.7
v 0.4 0.6 0.7
v 0.4 0.8 0.7
v 0.4 1.5 0.7
v 0.4 1.7 0.7
v 0.4 2.5 0.7
v 0.4 2.6 0.7
v 0.4 2.8 0.7
v 0.4 2.9 0.7
v 0.5 0.8 0.7
v 0.5 0.9 0.7
v 0.5 2.4 0.7
v 0.5 2.5 0.7
v 0.5 2.7 0.7
v 0.5 2.8 0.7
v 0.5 3.4 0.7
v 0.5 3.5 0.7
v 0.6 0.9 0.7
v 0.6 1.1 0.7
v 0.6 3.3 0.7
v 0.6 3.4 0.7
v 0.7 1.1 0.7
v 0.7 1.3 0.7
v 0.7 2.4 0.7
v 0.7 2.5 0.7
v 0.7 2.6 0.7
v 0.7 2.7 0.7
v 0.7 3.2 0.7
v 0.7 3.3 0.7
v 0.8 1.3 0.7
v 0.8 1.4 0.7
v 0.8 2.5 0.7
v 0.8 2.6 0.7
v 0.8 3.1 0.7
v 0.8 3.2 0.7
v 0.9 1.4 0.7
v 0.9 1.6 0.7
v 0.9 3 0.7
v 0.9 3.1 0.7
v 1 1.6 0.7
v 1 1.8 0.7
v 1 2.8 0.7
v 1 3 0.7
v 1.1 1.8 0.7
v 1.1 2 0.7
v 1.1 2.6 0.7
v 1.1 2.8 0.7
v 1.2 2 0.7
v 1.2 2.6 0.7
v -1.3 2.1 0.6
v -1.3 2.8 0.6
v -1.2 2 0.6
v -1.2 2.1 0.6
v -1.2 2.8 0.6
v -1.2 2.9 0.6
v -1.1 1.7 0.6
v -1.1 2 0.6
v -1.1 2.5 0.6
v -1.1 2.6 0.6
v -1.1 2.9 0.6
v -1.1 3 0.6
v -1 1.5 0.6
v -1 1.7 0.6
v -1 2.4 0.6
v -1 2.5 0.6
v -1 2.6 0.6
v -1 2.7 0.6
v -1 3 0.6
v -1 3.1 0.6
v -0.9 1.3 0.6
v -0.9 1.5 0.6
v -0.9 3.1 0.6
v -0.9 3.3 0.6
v -0.8 1.2 0.6
v -0.8 1.3 0.6
v -0.8 2.4 0.6
v -0.8 2.5 0.6
v -0.8 2.7 0.6
v -0.8 2.8 0.6
v -0.8 3.3 0.6
v -0.8 3.4 0.6
v -0.7 1 0.6
v -0.7 1.2 0.6
v -0.7 2.5 0.6
v -0.7 2.6 0.6
v -0.7 2.8 0.6
v -0.7 2.9 0.6
v -0.6 0.8 0.6
v -0.6 1 0.6
v -0.6 1.6 0.6
v -0.6 1.7 0.6
v -0.6 2.6 0.6
v -0.6 2.7 0.6
v -0.6 2.9 0.6
v -0.6 3 0.6
v -0.6 3.4 0.6
v -0.6 3.5 0.6
v -0.5 0.6 0.6
v -0.5 0.8 0.6
v -0.5 1.4 0.6
v -0.5 1.6 0.6
v -0.5 2.7 0.6
v -0.5 2.8 0.6
v -0.4 0.5 0.6
v -0.4 0.6 0.6
v -0.4 1.1 0.6
v -0.4 1.4 0.6
v -0.4 1.9 0.6
v -0.4 2.1 0.6
v -0.4 2.8 0.6
v -0.4 3 0.6
v -0.3 0.8 0.6
v -0.3 1.1 0.6
v -0.3 2.1 0.6
v -0.3 2.2 0.6
v -0.2 0.3 0.6
v -0.2 0.5 0.6
v -0.2 0.7 0.6
v -0.2 0.8 0.6
v -0.2 1.9 0.6
v -0.2 2 0.6
v -0.2 2.2 0.6
v -0.2 2.3 0.6
v -0.0999999 1.9 0.6
v -0.0999999 2 0.6
v -0.0999999 2.2 0.6
v -0.0999999 2.3 0.6
v 0 0.7 0.6
v 0 0.9 0.6
v 0 2.1 0.6
v 0 2.2 0.6
v 0.1 0.3 0.6
v 0.1 0.4 0.6
v 0.1 0.9 0.6
v 0.1 1 0.6
v 0.1 1.9 0.6
v 0.1 2.1 0.6
v 0.1 2.8 0.6
v 0.1 3 0.6
v 0.2 0.4 0.6
v 0.2 0.5 0.6
v 0.2 1 0.6
v 0.2 1.2 0.6
v 0.2 2.7 0.6
v 0.2 2.8 0.6
v 0.3 0.5 0.6
v 0.3 0.6 0.6
v 0.3 1.2 0.6
v 0.3 1.5 0.6
v 0.3 2.6 0.6
v 0.3 2.7 0.6
v 0.3 2.9 0.6
v 0.3 3 0.6
v 0.4 0.6 0.6
v 0.4 0.8 0.6
v 0.4 1.5 0.6
v 0.4 1.7 0.6
v 0.4 2.5 0.6
v 0.4 2.6 0.6
v 0.4 2.8 0.6
v 0.4 2.9 0.6
v 0.5 0.8 0.6
v 0.5 0.9 0.6
v 0.5 2.4 0.6
v 0.5 2.5 0.6
v 0.5 2.7 0.6
v 0.5 2.8 0.6
v 0.5 3.4 0.6
v 0.5 3.5 0.6
v 0.6 0.9 0.6
v 0.6 1.1 0.6
v 0.6 3.3 0.6
v 0.6 3.4 0.6
v 0.7 1.1 0.6
v 0.7 1.3 0.6
v 0.7 2.4 0.6
v 0.7 2.5 0.6
v 0.7 2.6 0.6
v 0.7 2.7 0.6
v 0.7 3.2 0.6
v 0.7 3.3 0.6
v 0.8 1.3 0.6
v 0.8 1.4 0.6
v 0.8 2.5 0.6
v 0.8 2.6 0.6
v 0.8 3.1 0.6
v 0.8 3.2 0.6
v 0.9 1.4 0.6
v 0.9 1.6 0.6
v 0.9 3 0.6
v 0.9 3.1 0.6
v 1 1.6 0.6
v 1 1.8 0.6
v 1 2.8 0.6
v 1 3 0.6
v 1.1 1.8 0.6
v 1.1 2 0.6
v 1.1 2.6 0.6
v 1.1 2.8 0.6
v 1.2 2 0.6
v 1.2 2.6 0.6
v -0.2 0.3 0.7
v 0.1 0.3 0.7
v -0.2 0.3 0.6
v 0.1 0.3 0.6
v 0.1 0.4 0.7
v 0.2 0.4 0.7
v 0.1 0.4 0.6
v 0.2 0.4 0.6
v -0.4 0.5 0.7
v -0.2 0.5 0.7
v 0.2 0.5 0.7
v 0.3 0.5 0.7
v -0.4 0.5 0.6
v -0.2 0.5 0.6
v 0.2 0.5 0.6
v 0.3 0.5 0.6
v -0.5 0.6 0.7
v -0.4 0.6 0.7
v 0.3 0.6 0.7
v 0.4 0.6 0.7
v -0.5 0.6 0.6
v -0.4 0.6 0.6
v 0.3 0.6 0.6
v 0.4 0.6 0.6
v -0.6 0.8 0.7
v -0.5 0.8 0.7
v 0.4 0.8 0.7
v 0.5 0.8 0.7
v -0.6 0.8 0.6
v -0.5 0.8 0.6
v 0.4 0.8 0.6
v 0.5 0.8 0.6
v 0.5 0.9 0.7
v 0.6 0.9 0.7
v 0.5 0.9 0.6
v 0.6 0.9 0.6
v -0.7 1 0.7
v -0.6 1 0.7
v -0.7 1 0.6
v -0.6 1 0.6
v 0.6 1.1 0.7
v 0.7 1.1 0.7
v 0.6 1.1 0.6
v 0.7 1.1 0.6
v -0.8 1.2 0.7
v -0.7 1.2 0.7
v -0.8 1.2 0.6
v -0.7 1.2 0.6
v -0.9 1.3 0.7
v -0.8 1.3 0.7
v 0.7 1.3 0.7
v 0.8 1.3 0.7
v -0.9 1.3 0.6
v -0.8 1.3 0.6
v 0.7 1.3 0.6
v 0.8 1.3 0.6
v 0.8 1.4 0.7
v 0.9 1.4 0.7
v 0.8 1.4 0.6
v 0.9 1.4 0.6
v -1 1.5 0.7
v -0.9 1.5 0.7
v -1 1.5 0.6
v -0.9 1.5 0.6
v 0.9 1.6 0.7
v 1 1.6 0.7
v 0.9 1.6 0.6
v 1 1.6 0.6
v -1.1 1.7 0.7
v -1 1.7 0.7
v -1.1 1.7 0.6
v -1 1.7 0.6
v 1 1.8 0.7
v 1.1 1.8 0.7
v 1 1.8 0.6
v 1.1 1.8 0.6
v -1.2 2 0.7
v -1.1 2 0.7
v 1.1 2 0.7
v 1.2 2 0.7
v -1.2 2 0.6
v -1.1 2 0.6
v 1.1 2 0.6
v 1.2 2 0.6
v -1.3 2.1 0.7
v -1.2 2.1 0.7
v -1.3 2.1 0.6
v -1.2 2.1 0.6
v 1.1 2.6 0.7
v 1.2 2.6 0.7
v 1.1 2.6 0.6
v 1.2 2.6 0.6
v -1.3 2.8 0.7
v -1.2 2.8 0.7
v 1 2.8 0.7
v 1.1 2.8 0.7
v -1.3 2.8 0.6
v -1.2 2.8 0.6
v 1 2.8 0.6
v 1.1 2.8 0.6
v -1.2 2.9 0.7
v -1.1 2.9 0.7
v -1.2 2.9 0.6
v -1.1 2.9 0.6
v -1.1 3 0.7
v -1 3 0.7
v 0.9 3 0.7
v 1 3 0.7
v -1.1 3 0.6
v -1 3 0.6
v 0.9 3 0.6
v 1 3 0.6
v -1 3.1 0.7
v -0.9 3.1 0.7
v 0.8 3.1 0.7
v 0.9 3.1 0.7
v -1 3.1 0.6
v -0.9 3.1 0.6
v 0.8 3.1 0.6
v 0.9 3.1 0.6
v 0.7 3.2 0.7
v 0.8 3.2 0.7
v 0.7 3.2 0.6
v 0.8 3.2 0.6
v -0.9 3.3 0.7
v -0.8 3.3 0.7
v 0.6 3.3 0.7
v 0.7 3.3 0.7
v -0.9 3.3 0.6
v -0.8 3.3 0.6
v 0.6 3.3 0.6
v 0.7 3.3 0.6
v -0.8 3.4 0.7
v -0.6 3.4 0.7
v 0.5 3.4 0.7
v 0.6 3.4 0.7
v -0.8 3.4 0.6
v -0.6 3.4 0.6
v 0.5 3.4 0.6
v 0.6 3.4 0.6
v -0.6 3.5 0.7
v 0.5 3.5 0.7
v -0.6 3.5 0.6
v 0.5 3.5 0.6

# faces
f 3/1/1 2/1/1 1/1/1
f 4/1/1 2/1/1 3/1/1
f 7/1/1 6/1/1 5/1/1
f 8/1/1 6/1/1 7/1/1
f 11/1/1 10/1/1 9/1/1
f 12/1/1 10/1/1 11/1/1
f 15/1/1 14/1/1 13/1/1
f 16/1/1 14/1/1 15/1/1
f 19/1/1 18/1/1 17/1/1
f 20/1/1 18/1/1 19/1/1
f 23/1/1 22/1/1 21/1/1
f 24/1/1 22/1/1 23/1/1
f 27/1/1 26/1/1 25/1/1
f 28/1/1 26/1/1 27/1/1
f 31/1/1 30/1/1 29/1/1
f 32/1/1 30/1/1 31/1/1
f 35/1/1 34/1/1 33/1/1
f 36/1/1 34/1/1 35/1/1
f 39/1/1 38/1/1 37/1/1
f 40/1/1 38/1/1 39/1/1
f 43/1/1 42/1/1 41/1/1
f 44/1/1 42/1/1 43/1/1
f 47/1/1 46/1/1 45/1/1
f 48/1/1 46/1/1 47/1/1
f 51/1/1 50/1/1 49/1/1
f 52/1/1 50/1/1 51/1/1
f 55/1/1 54/1/1 53/1/1
f 56/1/1 54/1/1 55/1/1
f 59/1/1 58/1/1 57/1/1
f 60/1/1 58/1/1 59/1/1
f 63/1/1 62/1/1 61/1/1
f 64/1/1 62/1/1 63/1/1
f 67/1/1 66/1/1 65/1/1
f 68/1/1 66/1/1 67/1/1
f 69/1/2 70/1/2 71/1/2
f 71/1/2 70/1/2 72/1/2
f 73/1/2 74/1/2 75/1/2
f 75/1/2 74/1/2 76/1/2
f 77/1/2 78/1/2 79/1/2
f 79/1/2 78/1/2 80/1/2
f 81/1/2 82/1/2 83/1/2
f 83/1/2 82/1/2 84/1/2
f 85/1/2 86/1/2 87/1/2
f 87/1/2 86/1/2 88/1/2
f 89/1/2 90/1/2 91/1/2
f 91/1/2 90/1/2 92/1/2
f 93/1/2 94/1/2 95/1/2
f 95/1/2 94/1/2 96/1/2
f 97/1/2 98/1/2 99/1/2
f 99/1/2 98/1/2 100/1/2
f 101/1/2 102/1/2 103/1/2
f 103/1/2 102/1/2 104/1/2
f 105/1/2 106/1/2 107/1/2
f 107/1/2 106/1/2 108/1/2
f 109/1/2 110/1/2 111/1/2
f 111/1/2 110/1/2 112/1/2
f 113/1/2 114/1/2 115/1/2
f 115/1/2 114/1/2 116/1/2
f 117/1/2 118/1/2 119/1/2
f 119/1/2 118/1/2 120/1/2
f 121/1/2 122/1/2 123/1/2
f 123/1/2 122/1/2 124/1/2
f 125/1/2 126/1/2 127/1/2
f 127/1/2 126/1/2 128/1/2
f 129/1/2 130/1/2 131/1/2
f 131/1/2 130/1/2 132/1/2
f 133/1/2 134/1/2 135/1/2
f 135/1/2 134/1/2 136/1/2
f 137/1/2 138/1/2 139/1/2
f 139/1/2 138/1/2 140/1/2
f 141/1/2 142/1/2 143/1/2
f 143/1/2 142/1/2 144/1/2
f 148/1/3 146/1/3 145/1/3
f 149/1/3 146/1/3 148/1/3
f 152/1/3 148/1/3 147/1/3
f 152/1/3 150/1/3 149/1/3
f 152/1/3 149/1/3 148/1/3
f 153/1/3 150/1/3 152/1/3
f 154/1/3 150/1/3 153/1/3
f 155/1/3 150/1/3 154/1/3
f 158/1/3 152/1/3 151/1/3
f 158/1/3 153/1/3 152/1/3
f 159/1/3 153/1/3 158/1/3
f 160/2/3 154/2/3 153/2/3
f 160/1/3 153/1/3 159/1/3
f 161/1/3 156/1/3 155/1/3
f 161/2/3 154/2/3 160/2/3
f 161/1/3 155/1/3 154/1/3
f 162/1/3 156/1/3 161/1/3
f 163/1/3 156/1/3 162/1/3
f 166/1/3 158/1/3 157/1/3
f 166/1/3 159/1/3 158/1/3
f 167/1/3 164/1/3 163/1/3
f 167/1/3 163/1/3 162/1/3
f 170/1/3 166/1/3 165/1/3
f 171/2/3 160/2/3 159/2/3
f 171/1/3 159/1/3 166/1/3
f 171/1/3 166/1/3 170/1/3
f 171/2/3 161/2/3 160/2/3
f 171/2/3 162/2/3 161/2/3
f 172/2/3 162/2/3 171/2/3
f 173/1/3 168/1/3 167/1/3
f 173/2/3 162/2/3 172/2/3
f 173/1/3 167/1/3 162/1/3
f 174/1/3 168/1/3 173/1/3
f 175/1/3 168/1/3 174/1/3
f 178/1/3 170/1/3 169/1/3
f 178/1/3 172/1/3 171/1/3
f 178/1/3 171/1/3 170/1/3
f 179/2/3 174/2/3 173/2/3
f 179/2/3 173/2/3 172/2/3
f 179/1/3 172/1/3 178/1/3
f 180/2/3 174/2/3 179/2/3
f 181/1/3 176/1/3 175/1/3
f 181/2/3 174/2/3 180/2/3
f 181/1/3 175/1/3 174/1/3
f 182/1/3 176/1/3 181/1/3
f 184/1/3 180/1/3 179/1/3
f 184/1/3 179/1/3 178/1/3
f 184/1/3 178/1/3 177/1/3
f 185/1/3 180/1/3 184/1/3
f 186/1/3 180/1/3 185/1/3
f 187/2/3 182/2/3 181/2/3
f 187/1/3 180/1/3 186/1/3
f 187/2/3 181/2/3 180/2/3
f 188/2/3 182/2/3 187/2/3
f 189/1/3 176/1/3 182/1/3
f 189/2/3 182/2/3 188/2/3
f 190/1/3 176/1/3 189/1/3
f 191/1/3 176/1/3 190/1/3
f 194/1/3 185/1/3 184/1/3
f 194/1/3 184/1/3 183/1/3
f 195/1/3 185/1/3 194/1/3
f 196/2/3 186/2/3 185/2/3
f 196/1/3 185/1/3 195/1/3
f 197/1/3 188/1/3 187/1/3
f 197/1/3 187/1/3 186/1/3
f 197/2/3 189/2/3 188/2/3
f 197/2/3 190/2/3 189/2/3
f 198/2/3 190/2/3 197/2/3
f 200/1/3 195/1/3 194/1/3
f 200/1/3 194/1/3 193/1/3
f 201/1/3 195/1/3 200/1/3
f 202/2/3 196/2/3 195/2/3
f 202/1/3 195/1/3 201/1/3
f 203/1/3 198/1/3 197/1/3
f 203/1/3 197/1/3 186/1/3
f 204/1/3 198/1/3 203/1/3
f 205/2/3 190/2/3 198/2/3
f 205/1/3 198/1/3 204/1/3
f 206/1/3 192/1/3 191/1/3
f 206/2/3 190/2/3 205/2/3
f 206/1/3 191/1/3 190/1/3
f 207/1/3 201/1/3 200/1/3
f 207/1/3 200/1/3 199/1/3
f 208/2/3 202/2/3 201/2/3
f 208/1/3 201/1/3 207/1/3
f 209/2/3 204/2/3 203/2/3
f 209/1/3 205/1/3 204/1/3
f 209/1/3 206/1/3 205/1/3
f 210/1/3 206/1/3 209/1/3
f 212/1/3 207/1/3 199/1/3
f 213/1/3 207/1/3 212/1/3
f 214/2/3 208/2/3 207/2/3
f 214/1/3 207/1/3 213/1/3
f 215/1/3 203/1/3 186/1/3
f 215/2/3 209/2/3 203/2/3
f 215/2/3 210/2/3 209/2/3
f 216/2/3 210/2/3 215/2/3
f 217/1/3 206/1/3 210/1/3
f 217/2/3 210/2/3 216/2/3
f 218/1/3 206/1/3 217/1/3
f 219/1/3 216/1/3 215/1/3
f 219/1/3 215/1/3 186/1/3
f 220/2/3 218/2/3 217/2/3
f 220/1/3 216/1/3 219/1/3
f 220/2/3 217/2/3 216/2/3
f 221/2/3 218/2/3 220/2/3
f 222/1/3 206/1/3 218/1/3
f 222/2/3 218/2/3 221/2/3
f 223/1/3 213/1/3 212/1/3
f 223/2/3 214/2/3 213/2/3
f 223/1/3 212/1/3 211/1/3
f 224/2/3 208/2/3 214/2/3
f 224/2/3 214/2/3 223/2/3
f 225/2/3 221/2/3 220/2/3
f 225/2/3 220/2/3 219/2/3
f 226/1/3 222/1/3 221/1/3
f 226/2/3 221/2/3 225/2/3
f 227/1/3 223/1/3 211/1/3
f 227/1/3 224/1/3 223/1/3
f 228/1/3 224/1/3 227/1/3
f 229/2/3 208/2/3 224/2/3
f 229/1/3 224/1/3 228/1/3
f 230/2/3 208/2/3 229/2/3
f 231/2/3 225/2/3 219/2/3
f 231/1/3 219/1/3 186/1/3
f 232/1/3 226/1/3 225/1/3
f 232/2/3 225/2/3 231/2/3
f 233/1/3 206/1/3 222/1/3
f 233/1/3 226/1/3 232/1/3
f 233/1/3 222/1/3 226/1/3
f 234/1/3 192/1/3 206/1/3
f 234/1/3 206/1/3 233/1/3
f 235/1/3 229/1/3 228/1/3
f 235/1/3 230/1/3 229/1/3
f 236/1/3 230/1/3 235/1/3
f 237/2/3 208/2/3 230/2/3
f 237/1/3 230/1/3 236/1/3
f 238/2/3 202/2/3 208/2/3
f 238/2/3 208/2/3 237/2/3
f 239/1/3 232/1/3 231/1/3
f 239/1/3 233/1/3 232/1/3
f 240/2/3 234/2/3 233/2/3
f 240/1/3 233/1/3 239/1/3
f 241/1/3 237/1/3 236/1/3
f 241/1/3 238/1/3 237/1/3
f 242/1/3 238/1/3 241/1/3
f 243/2/3 202/2/3 238/2/3
f 243/1/3 238/1/3 242/1/3
f 244/2/3 196/2/3 202/2/3
f 244/2/3 202/2/3 243/2/3
f 245/1/3 239/1/3 231/1/3
f 246/2/3 240/2/3 239/2/3
f 246/1/3 239/1/3 245/1/3
f 247/2/3 234/2/3 240/2/3
f 247/2/3 240/2/3 246/2/3
f 248/1/3 192/1/3 234/1/3
f 248/2/3 234/2/3 247/2/3
f 249/1/3 243/1/3 242/1/3
f 249/1/3 244/1/3 243/1/3
f 250/1/3 244/1/3 249/1/3
f 251/2/3 196/2/3 244/2/3
f 251/1/3 244/1/3 250/1/3
f 252/2/3 186/2/3 196/2/3
f 252/2/3 196/2/3 251/2/3
f 252/1/3 245/1/3 231/1/3
f 252/1/3 231/1/3 186/1/3
f 253/1/3 245/1/3 252/1/3
f 254/2/3 246/2/3 245/2/3
f 254/1/3 245/1/3 253/1/3
f 254/2/3 247/2/3 246/2/3
f 255/2/3 247/2/3 254/2/3
f 256/1/3 248/1/3 247/1/3
f 256/2/3 247/2/3 255/2/3
f 257/1/3 251/1/3 250/1/3
f 257/1/3 253/1/3 252/1/3
f 257/1/3 252/1/3 251/1/3
f 258/1/3 253/1/3 257/1/3
f 259/1/3 253/1/3 258/1/3
f 260/2/3 254/2/3 253/2/3
f 260/1/3 253/1/3 259/1/3
f 260/2/3 255/2/3 254/2/3
f 261/2/3 255/2/3 260/2/3
f 262/1/3 256/1/3 255/1/3
f 262/2/3 255/2/3 261/2/3
f 263/1/3 248/1/3 256/1/3
f 263/1/3 256/1/3 262/1/3
f 263/1/3 192/1/3 248/1/3
f 264/1/3 192/1/3 263/1/3
f 265/1/3 259/1/3 258/1/3
f 266/1/3 259/1/3 265/1/3
f 267/1/3 262/1/3 261/1/3
f 267/1/3 263/1/3 262/1/3
f 268/1/3 263/1/3 267/1/3
f 269/1/3 259/1/3 266/1/3
f 270/1/3 259/1/3 269/1/3
f 271/2/3 261/2/3 260/2/3
f 271/1/3 259/1/3 270/1/3
f 271/2/3 260/2/3 259/2/3
f 272/2/3 261/2/3 271/2/3
f 273/2/3 261/2/3 272/2/3
f 274/1/3 267/1/3 261/1/3
f 274/2/3 261/2/3 273/2/3
f 275/1/3 267/1/3 274/1/3
f 276/1/3 267/1/3 275/1/3
f 277/1/3 271/1/3 270/1/3
f 277/1/3 272/1/3 271/1/3
f 278/1/3 272/1/3 277/1/3
f 279/2/3 273/2/3 272/2/3
f 279/1/3 272/1/3 278/1/3
f 280/1/3 275/1/3 274/1/3
f 280/2/3 273/2/3 279/2/3
f 280/1/3 274/1/3 273/1/3
f 281/1/3 275/1/3 280/1/3
f 282/1/3 275/1/3 281/1/3
f 283/1/3 279/1/3 278/1/3
f 283/1/3 281/1/3 280/1/3
f 283/1/3 280/1/3 279/1/3
f 284/1/3 281/1/3 283/1/3
f 285/1/3 281/1/3 284/1/3
f 286/1/3 281/1/3 285/1/3
f 287/1/3 285/1/3 284/1/3
f 288/1/3 285/1/3 287/1/3
f 289/1/3 285/1/3 288/1/3
f 290/1/3 285/1/3 289/1/3
f 291/1/3 289/1/3 288/1/3
f 292/1/3 289/1/3 291/1/3
f 293/1/3 289/1/3 292/1/3
f 294/1/3 289/1/3 293/1/3
f 295/1/3 293/1/3 292/1/3
f 296/1/3 293/1/3 295/1/3
f 297/1/4 298/1/4 300/1/4
f 300/1/4 298/1/4 301/1/4
f 299/1/4 300/1/4 304/1/4
f 301/1/4 302/1/4 304/1/4
f 300/1/4 301/1/4 304/1/4
f 304/1/4 302/1/4 305/1/4
f 305/1/4 302/1/4 306/1/4
f 306/1/4 302/1/4 307/1/4
f 303/1/4 304/1/4 310/1/4
f 304/1/4 305/1/4 310/1/4
f 310/1/4 305/1/4 311/1/4
f 305/2/4 306/2/4 312/2/4
f 311/1/4 305/1/4 312/1/4
f 307/1/4 308/1/4 313/1/4
f 312/2/4 306/2/4 313/2/4
f 306/1/4 307/1/4 313/1/4
f 313/1/4 308/1/4 314/1/4
f 314/1/4 308/1/4 315/1/4
f 309/1/4 310/1/4 318/1/4
f 310/1/4 311/1/4 318/1/4
f 315/1/4 316/1/4 319/1/4
f 314/1/4 315/1/4 319/1/4
f 317/1/4 318/1/4 322/1/4
f 311/2/4 312/2/4 323/2/4
f 318/1/4 311/1/4 323/1/4
f 322/1/4 318/1/4 323/1/4
f 312/2/4 313/2/4 323/2/4
f 313/2/4 314/2/4 323/2/4
f 323/2/4 314/2/4 324/2/4
f 319/1/4 320/1/4 325/1/4
f 324/2/4 314/2/4 325/2/4
f 314/1/4 319/1/4 325/1/4
f 325/1/4 320/1/4 326/1/4
f 326/1/4 320/1/4 327/1/4
f 321/1/4 322/1/4 330/1/4
f 323/1/4 324/1/4 330/1/4
f 322/1/4 323/1/4 330/1/4
f 325/2/4 326/2/4 331/2/4
f 324/2/4 325/2/4 331/2/4
f 330/1/4 324/1/4 331/1/4
f 331/2/4 326/2/4 332/2/4
f 327/1/4 328/1/4 333/1/4
f 332/2/4 326/2/4 333/2/4
f 326/1/4 327/1/4 333/1/4
f 333/1/4 328/1/4 334/1/4
f 331/1/4 332/1/4 336/1/4
f 330/1/4 331/1/4 336/1/4
f 329/1/4 330/1/4 336/1/4
f 336/1/4 332/1/4 337/1/4
f 337/1/4 332/1/4 338/1/4
f 333/2/4 334/2/4 339/2/4
f 338/1/4 332/1/4 339/1/4
f 332/2/4 333/2/4 339/2/4
f 339/2/4 334/2/4 340/2/4
f 334/1/4 328/1/4 341/1/4
f 340/2/4 334/2/4 341/2/4
f 341/1/4 328/1/4 342/1/4
f 342/1/4 328/1/4 343/1/4
f 336/1/4 337/1/4 346/1/4
f 335/1/4 336/1/4 346/1/4
f 346/1/4 337/1/4 347/1/4
f 337/2/4 338/2/4 348/2/4
f 347/1/4 337/1/4 348/1/4
f 339/1/4 340/1/4 349/1/4
f 338/1/4 339/1/4 349/1/4
f 340/2/4 341/2/4 349/2/4
f 341/2/4 342/2/4 349/2/4
f 349/2/4 342/2/4 350/2/4
f 346/1/4 347/1/4 352/1/4
f 345/1/4 346/1/4 352/1/4
f 352/1/4 347/1/4 353/1/4
f 347/2/4 348/2/4 354/2/4
f 353/1/4 347/1/4 354/1/4
f 349/1/4 350/1/4 355/1/4
f 338/1/4 349/1/4 355/1/4
f 355/1/4 350/1/4 356/1/4
f 350/2/4 342/2/4 357/2/4
f 356/1/4 350/1/4 357/1/4
f 343/1/4 344/1/4 358/1/4
f 357/2/4 342/2/4 358/2/4
f 342/1/4 343/1/4 358/1/4
f 352/1/4 353/1/4 359/1/4
f 351/1/4 352/1/4 359/1/4
f 353/2/4 354/2/4 360/2/4
f 359/1/4 353/1/4 360/1/4
f 355/2/4 356/2/4 361/2/4
f 356/1/4 357/1/4 361/1/4
f 357/1/4 358/1/4 361/1/4
f 361/1/4 358/1/4 362/1/4
f 351/1/4 359/1/4 364/1/4
f 364/1/4 359/1/4 365/1/4
f 359/2/4 360/2/4 366/2/4
f 365/1/4 359/1/4 366/1/4
f 338/1/4 355/1/4 367/1/4
f 355/2/4 361/2/4 367/2/4
f 361/2/4 362/2/4 367/2/4
f 367/2/4 362/2/4 368/2/4
f 362/1/4 358/1/4 369/1/4
f 368/2/4 362/2/4 369/2/4
f 369/1/4 358/1/4 370/1/4
f 367/1/4 368/1/4 371/1/4
f 338/1/4 367/1/4 371/1/4
f 369/2/4 370/2/4 372/2/4
f 371/1/4 368/1/4 372/1/4
f 368/2/4 369/2/4 372/2/4
f 372/2/4 370/2/4 373/2/4
f 370/1/4 358/1/4 374/1/4
f 373/2/4 370/2/4 374/2/4
f 364/1/4 365/1/4 375/1/4
f 365/2/4 366/2/4 375/2/4
f 363/1/4 364/1/4 375/1/4
f 366/2/4 360/2/4 376/2/4
f 375/2/4 366/2/4 376/2/4
f 372/2/4 373/2/4 377/2/4
f 371/2/4 372/2/4 377/2/4
f 373/1/4 374/1/4 378/1/4
f 377/2/4 373/2/4 378/2/4
f 363/1/4 375/1/4 379/1/4
f 375/1/4 376/1/4 379/1/4
f 379/1/4 376/1/4 380/1/4
f 376/2/4 360/2/4 381/2/4
f 380/1/4 376/1/4 381/1/4
f 381/2/4 360/2/4 382/2/4
f 371/2/4 377/2/4 383/2/4
f 338/1/4 371/1/4 383/1/4
f 377/1/4 378/1/4 384/1/4
f 383/2/4 377/2/4 384/2/4
f 374/1/4 358/1/4 385/1/4
f 384/1/4 378/1/4 385/1/4
f 378/1/4 374/1/4 385/1/4
f 358/1/4 344/1/4 386/1/4
f 385/1/4 358/1/4 386/1/4
f 380/1/4 381/1/4 387/1/4
f 381/1/4 382/1/4 387/1/4
f 387/1/4 382/1/4 388/1/4
f 382/2/4 360/2/4 389/2/4
f 388/1/4 382/1/4 389/1/4
f 360/2/4 354/2/4 390/2/4
f 389/2/4 360/2/4 390/2/4
f 383/1/4 384/1/4 391/1/4
f 384/1/4 385/1/4 391/1/4
f 385/2/4 386/2/4 392/2/4
f 391/1/4 385/1/4 392/1/4
f 388/1/4 389/1/4 393/1/4
f 389/1/4 390/1/4 393/1/4
f 393/1/4 390/1/4 394/1/4
f 390/2/4 354/2/4 395/2/4
f 394/1/4 390/1/4 395/1/4
f 354/2/4 348/2/4 396/2/4
f 395/2/4 354/2/4 396/2/4
f 383/1/4 391/1/4 397/1/4
f 391/2/4 392/2/4 398/2/4
f 397/1/4 391/1/4 398/1/4
f 392/2/4 386/2/4 399/2/4
f 398/2/4 392/2/4 399/2/4
f 386/1/4 344/1/4 400/1/4
f 399/2/4 386/2/4 400/2/4
f 394/1/4 395/1/4 401/1/4
f 395/1/4 396/1/4 401/1/4
f 401/1/4 396/1/4 402/1/4
f 396/2/4 348/2/4 403/2/4
f 402/1/4 396/1/4 403/1/4
f 348/2/4 338/2/4 404/2/4
f 403/2/4 348/2/4 404/2/4
f 383/1/4 397/1/4 404/1/4
f 338/1/4 383/1/4 404/1/4
f 404/1/4 397/1/4 405/1/4
f 397/2/4 398/2/4 406/2/4
f 405/1/4 397/1/4 406/1/4
f 398/2/4 399/2/4 406/2/4
f 406/2/4 399/2/4 407/2/4
f 399/1/4 400/1/4 408/1/4
f 407/2/4 399/2/4 408/2/4
f 402/1/4 403/1/4 409/1/4
f 404/1/4 405/1/4 409/1/4
f 403/1/4 404/1/4 409/1/4
f 409/1/4 405/1/4 410/1/4
f 410/1/4 405/1/4 411/1/4
f 405/2/4 406/2/4 412/2/4
f 411/1/4 405/1/4 412/1/4
f 406/2/4 407/2/4 412/2/4
f 412/2/4 407/2/4 413/2/4
f 407/1/4 408/1/4 414/1/4
f 413/2/4 407/2/4 414/2/4
f 408/1/4 400/1/4 415/1/4
f 414/1/4 408/1/4 415/1/4
f 400/1/4 344/1/4 415/1/4
f 415/1/4 344/1/4 416/1/4
f 410/1/4 411/1/4 417/1/4
f 417/1/4 411/1/4 418/1/4
f 413/1/4 414/1/4 419/1/4
f 414/1/4 415/1/4 419/1/4
f 419/1/4 415/1/4 420/1/4
f 418/1/4 411/1/4 421/1/4
f 421/1/4 411/1/4 422/1/4
f 412/2/4 413/2/4 423/2/4
f 422/1/4 411/1/4 423/1/4
f 411/2/4 412/2/4 423/2/4
f 423/2/4 413/2/4 424/2/4
f 424/2/4 413/2/4 425/2/4
f 413/1/4 419/1/4 426/1/4
f 425/2/4 413/2/4 426/2/4
f 426/1/4 419/1/4 427/1/4
f 427/1/4 419/1/4 428/1/4
f 422/1/4 423/1/4 429/1/4
f 423/1/4 424/1/4 429/1/4
f 429/1/4 424/1/4 430/1/4
f 424/2/4 425/2/4 431/2/4
f 430/1/4 424/1/4 431/1/4
f 426/1/4 427/1/4 432/1/4
f 431/2/4 425/2/4 432/2/4
f 425/1/4 426/1/4 432/1/4
f 432/1/4 427/1/4 433/1/4
f 433/1/4 427/1/4 434/1/4
f 430/1/4 431/1/4 435/1/4
f 432/1/4 433/1/4 435/1/4
f 431/1/4 432/1/4 435/1/4
f 435/1/4 433/1/4 436/1/4
f 436/1/4 433/1/4 437/1/4
f 437/1/4 433/1/4 438/1/4
f 436/1/4 437/1/4 439/1/4
f 439/1/4 437/1/4 440/1/4
f 440/1/4 437/1/4 441/1/4
f 441/1/4 437/1/4 442/1/4
f 440/1/4 441/1/4 443/1/4
f 443/1/4 441/1/4 444/1/4
f 444/1/4 441/1/4 445/1/4
f 445/1/4 441/1/4 446/1/4
f 444/1/4 445/1/4 447/1/4
f 447/1/4 445/1/4 448/1/4
f 451/1/5 450/1/5 449/1/5
f 452/1/5 450/1/5 451/1/5
f 455/1/5 454/1/5 453/1/5
f 456/1/5 454/1/5 455/1/5
f 461/1/5 458/1/5 457/1/5
f 462/1/5 458/1/5 461/1/5
f 463/1/5 460/1/5 459/1/5
f 464/1/5 460/1/5 463/1/5
f 469/1/5 466/1/5 465/1/5
f 470/1/5 466/1/5 469/1/5
f 471/1/5 468/1/5 467/1/5
f 472/1/5 468/1/5 471/1/5
f 477/1/5 474/1/5 473/1/5
f 478/1/5 474/1/5 477/1/5
f 479/1/5 476/1/5 475/1/5
f 480/1/5 476/1/5 479/1/5
f 483/1/5 482/1/5 481/1/5
f 484/1/5 482/1/5 483/1/5
f 487/1/5 486/1/5 485/1/5
f 488/1/5 486/1/5 487/1/5
f 491/1/5 490/1/5 489/1/5
f 492/1/5 490/1/5 491/1/5
f 495/1/5 494/1/5 493/1/5
f 496/1/5 494/1/5 495/1/5
f 501/1/5 498/1/5 497/1/5
f 502/1/5 498/1/5 501/1/5
f 503/1/5 500/1/5 499/1/5
f 504/1/5 500/1/5 503/1/5
f 507/1/5 506/1/5 505/1/5
f 508/1/5 506/1/5 507/1/5
f 511/1/5 510/1/5 509/1/5
f 512/1/5 510/1/5 511/1/5
f 515/1/5 514/1/5 513/1/5
f 516/1/5 514/1/5 515/1/5
f 519/1/5 518/1/5 517/1/5
f 520/1/5 518/1/5 519/1/5
f 523/1/5 522/1/5 521/1/5
f 524/1/5 522/1/5 523/1/5
f 529/1/5 526/1/5 525/1/5
f 530/1/5 526/1/5 529/1/5
f 531/1/5 528/1/5 527/1/5
f 532/1/5 528/1/5 531/1/5
f 535/1/5 534/1/5 533/1/5
f 536/1/5 534/1/5 535/1/5
f 537/1/6 538/1/6 539/1/6
f 539/1/6 538/1/6 540/1/6
f 541/1/6 542/1/6 545/1/6
f 545/1/6 542/1/6 546/1/6
f 543/1/6 544/1/6 547/1/6
f 547/1/6 544/1/6 548/1/6
f 549/1/6 550/1/6 551/1/6
f 551/1/6 550/1/6 552/1/6
f 553/1/6 554/1/6 557/1/6
f 557/1/6 554/1/6 558/1/6
f 555/1/6 556/1/6 559/1/6
f 559/1/6 556/1/6 560/1/6
f 561/1/6 562/1/6 565/1/6
f 565/1/6 562/1/6 566/1/6
f 563/1/6 564/1/6 567/1/6
f 567/1/6 564/1/6 568/1/6
f 569/1/6 570/1/6 571/1/6
f 571/1/6 570/1/6 572/1/6
f 573/1/6 574/1/6 577/1/6
f 577/1/6 574/1/6 578/1/6
f 575/1/6 576/1/6 579/1/6
f 579/1/6 576/1/6 580/1/6
f 581/1/6 582/1/6 585/1/6
f 585/1/6 582/1/6 586/1/6
f 583/1/6 584/1/6 587/1/6
f 587/1/6 584/1/6 588/1/6
f 589/1/6 590/1/6 591/1/6
f 591/1/6 590/1/6 592/1/6
